<?xml version="1.0" encoding="UTF-8" standalone="no"?>
<!-- Generator: Adobe Illustrator 19.0.0, SVG Export Plug-In . SVG Version: 6.00 Build 0)  -->

<svg
   xmlns:dc="http://purl.org/dc/elements/1.1/"
   xmlns:cc="http://creativecommons.org/ns#"
   xmlns:rdf="http://www.w3.org/1999/02/22-rdf-syntax-ns#"
   xmlns:svg="http://www.w3.org/2000/svg"
   xmlns="http://www.w3.org/2000/svg"
   xmlns:sodipodi="http://sodipodi.sourceforge.net/DTD/sodipodi-0.dtd"
   xmlns:inkscape="http://www.inkscape.org/namespaces/inkscape"
   version="1.1"
   id="Capa_1"
   x="0px"
   y="0px"
   viewBox="0 0 512 512"
   style="enable-background:new 0 0 512 512;"
   xml:space="preserve"
   sodipodi:docname="app.svg"
   inkscape:version="0.92.4 (5da689c313, 2019-01-14)"><metadata
   id="metadata59"><rdf:RDF><cc:Work
       rdf:about=""><dc:format>image/svg+xml</dc:format><dc:type
         rdf:resource="http://purl.org/dc/dcmitype/StillImage" /></cc:Work></rdf:RDF></metadata><defs
   id="defs57">
	
	
	
	
</defs><sodipodi:namedview
   pagecolor="#ffffff"
   bordercolor="#666666"
   borderopacity="1"
   objecttolerance="10"
   gridtolerance="10"
   guidetolerance="10"
   inkscape:pageopacity="0"
   inkscape:pageshadow="2"
   inkscape:window-width="640"
   inkscape:window-height="480"
   id="namedview55"
   showgrid="false"
   inkscape:zoom="0.4609375"
   inkscape:cx="256"
   inkscape:cy="256"
   inkscape:window-x="0"
   inkscape:window-y="0"
   inkscape:window-maximized="0"
   inkscape:current-layer="Capa_1" />
<g
   id="g8">
		<path
   inkscape:connector-curvature="0"
   id="path4"
   d="m 423.723,441.379 v 35.31 c 0.003,9.366 -3.717,18.348 -10.339,24.971 -6.623,6.622 -15.605,10.342 -24.971,10.339 H 123.585 c -9.366,0.003 -18.348,-3.717 -24.971,-10.339 -6.623,-6.623 -10.342,-15.605 -10.339,-24.971 v -35.31 z"
   style="fill:#35495e" />
		<path
   inkscape:connector-curvature="0"
   id="path6"
   d="M 423.723,35.31 V 70.62 H 88.275 V 35.31 C 88.272,25.944 91.992,16.961 98.614,10.339 105.236,3.717 114.219,-0.003 123.585,0 h 264.828 c 9.366,-0.003 18.349,3.717 24.971,10.339 6.622,6.623 10.342,15.606 10.339,24.971 z"
   style="fill:#35495e" />
	</g><g
   id="g14">
		<path
   inkscape:connector-curvature="0"
   id="path10"
   d="m 273.654,485.517 h -35.31 c -4.875,0 -8.828,-3.952 -8.828,-8.828 0,-4.876 3.952,-8.828 8.828,-8.828 h 35.31 c 4.875,0 8.828,3.952 8.828,8.828 0,4.876 -3.953,8.828 -8.828,8.828 z"
   style="fill:#bdc3c7" />
		<path
   inkscape:connector-curvature="0"
   id="path12"
   d="m 264.826,44.138 h -17.655 c -4.875,0 -8.828,-3.952 -8.828,-8.828 0,-4.876 3.952,-8.828 8.828,-8.828 h 17.655 c 4.875,0 8.828,3.952 8.828,8.828 0,4.876 -3.952,8.828 -8.828,8.828 z"
   style="fill:#bdc3c7" />
	</g><g
   id="g20"
   style="fill:#000000">
		<path
   inkscape:connector-curvature="0"
   id="path16"
   d="M 205.145,374.556 54.975,256 205.146,137.444 c 4.951,-3.908 7.441,-10.161 6.531,-16.403 -0.909,-6.242 -5.079,-11.524 -10.94,-13.858 -5.86,-2.333 -12.52,-1.363 -17.471,2.545 L 15.542,242.142 c -0.064,0.05 -0.108,0.114 -0.17,0.165 -0.473,0.411 -0.924,0.848 -1.351,1.306 -0.416,0.418 -0.855,0.815 -1.221,1.265 -0.054,0.067 -0.122,0.114 -0.176,0.182 -0.264,0.334 -0.436,0.706 -0.672,1.053 -0.393,0.544 -0.754,1.11 -1.081,1.695 -0.261,0.496 -0.445,1.012 -0.655,1.525 -0.221,0.542 -0.462,1.073 -0.628,1.633 -0.152,0.563 -0.275,1.132 -0.369,1.707 -0.104,0.542 -0.227,1.077 -0.281,1.626 -0.054,0.568 -0.037,1.132 -0.037,1.701 10e-4,0.569 -0.018,1.133 0.037,1.701 0.053,0.55 0.177,1.084 0.281,1.626 0.094,0.575 0.217,1.145 0.369,1.707 0.166,0.559 0.407,1.091 0.628,1.633 0.21,0.512 0.394,1.029 0.655,1.525 0.328,0.585 0.689,1.151 1.081,1.695 0.236,0.346 0.408,0.719 0.672,1.053 0.049,0.062 0.113,0.102 0.163,0.163 0.766,0.945 1.627,1.808 2.571,2.576 0.068,0.056 0.124,0.131 0.193,0.185 l 167.716,132.408 c 7.653,6.042 18.756,4.735 24.797,-2.918 6.041,-7.654 4.735,-18.756 -2.919,-24.798 z"
   style="fill:#000000" />
		<path
   inkscape:connector-curvature="0"
   id="path18"
   d="M 306.855,374.556 457.025,256 306.855,137.444 c -7.653,-6.042 -8.96,-17.144 -2.918,-24.797 6.042,-7.653 17.144,-8.96 24.797,-2.918 l 167.724,132.414 c 0.064,0.05 0.108,0.114 0.17,0.165 0.473,0.411 0.924,0.848 1.351,1.306 0.416,0.418 0.855,0.815 1.221,1.265 0.054,0.067 0.122,0.114 0.176,0.182 0.264,0.334 0.436,0.706 0.672,1.053 0.393,0.544 0.754,1.11 1.081,1.695 0.261,0.496 0.445,1.012 0.655,1.525 0.221,0.542 0.462,1.073 0.628,1.633 0.152,0.563 0.275,1.132 0.369,1.707 0.104,0.542 0.227,1.077 0.281,1.626 0.054,0.568 0.037,1.132 0.037,1.701 -10e-4,0.569 0.018,1.133 -0.037,1.701 -0.053,0.55 -0.177,1.084 -0.281,1.626 -0.094,0.575 -0.217,1.145 -0.369,1.707 -0.166,0.559 -0.407,1.091 -0.628,1.633 -0.21,0.512 -0.394,1.029 -0.655,1.525 -0.328,0.585 -0.689,1.151 -1.081,1.695 -0.236,0.346 -0.408,0.719 -0.672,1.053 -0.049,0.062 -0.113,0.102 -0.163,0.163 -0.766,0.945 -1.627,1.808 -2.571,2.576 -0.068,0.056 -0.124,0.131 -0.193,0.185 L 328.734,402.272 c -7.653,6.042 -18.756,4.735 -24.797,-2.918 -6.041,-7.653 -4.736,-18.756 2.918,-24.798 z"
   style="fill:#000000" />
	</g>
<g
   id="g24">
</g>
<g
   id="g26">
</g>
<g
   id="g28">
</g>
<g
   id="g30">
</g>
<g
   id="g32">
</g>
<g
   id="g34">
</g>
<g
   id="g36">
</g>
<g
   id="g38">
</g>
<g
   id="g40">
</g>
<g
   id="g42">
</g>
<g
   id="g44">
</g>
<g
   id="g46">
</g>
<g
   id="g48">
</g>
<g
   id="g50">
</g>
<g
   id="g52">
</g>
</svg>