<?xml version="1.0" encoding="UTF-8" standalone="no"?>
<!-- Generator: Adobe Illustrator 19.0.0, SVG Export Plug-In . SVG Version: 6.00 Build 0)  -->

<svg
   xmlns:dc="http://purl.org/dc/elements/1.1/"
   xmlns:cc="http://creativecommons.org/ns#"
   xmlns:rdf="http://www.w3.org/1999/02/22-rdf-syntax-ns#"
   xmlns:svg="http://www.w3.org/2000/svg"
   xmlns="http://www.w3.org/2000/svg"
   xmlns:sodipodi="http://sodipodi.sourceforge.net/DTD/sodipodi-0.dtd"
   xmlns:inkscape="http://www.inkscape.org/namespaces/inkscape"
   version="1.1"
   id="Capa_1"
   x="0px"
   y="0px"
   viewBox="0 0 512 512"
   style="enable-background:new 0 0 512 512;"
   xml:space="preserve"
   sodipodi:docname="baby.svg"
   inkscape:version="0.92.4 (5da689c313, 2019-01-14)"><metadata
   id="metadata117"><rdf:RDF><cc:Work
       rdf:about=""><dc:format>image/svg+xml</dc:format><dc:type
         rdf:resource="http://purl.org/dc/dcmitype/StillImage" /></cc:Work></rdf:RDF></metadata><defs
   id="defs115" /><sodipodi:namedview
   pagecolor="#ffffff"
   bordercolor="#666666"
   borderopacity="1"
   objecttolerance="10"
   gridtolerance="10"
   guidetolerance="10"
   inkscape:pageopacity="0"
   inkscape:pageshadow="2"
   inkscape:window-width="1366"
   inkscape:window-height="745"
   id="namedview113"
   showgrid="false"
   inkscape:zoom="0.65186406"
   inkscape:cx="572.07735"
   inkscape:cy="344.32047"
   inkscape:window-x="-8"
   inkscape:window-y="-8"
   inkscape:window-maximized="1"
   inkscape:current-layer="Capa_1" />
<path
   style="fill:#b3b3b3"
   d="m 512,256.54237 c 0,53.896 -16.656,103.905 -45.108,145.157 -10.094,14.639 -21.682,28.181 -34.534,40.385 -6.604,6.29 -13.531,12.215 -20.773,17.763 -43.123,33.051 -97.05,52.695 -155.585,52.695 -58.535,0 -112.462,-19.644 -155.585,-52.694 -7.576,-5.799 -14.806,-12.016 -21.682,-18.61 -7.555,-7.252 -14.67,-14.963 -21.274,-23.092 -4.347,-5.308 -8.464,-10.794 -12.351,-16.447 C 16.656,360.44737 0,310.43837 0,256.54237 0,115.15737 114.615,0.54237288 256,0.54237288 c 141.385,0 256,114.61499712 256,255.99999712 z"
   id="path2"
   inkscape:connector-curvature="0" />
<path
   style="fill:#666666"
   d="M375.734,296.636v162.67h-239.48v-162.67c0-30.605,20.062-56.529,47.752-65.327  c6.552-2.09,13.542-3.218,20.793-3.218h102.4c7.241,0,14.232,1.128,20.783,3.218C355.672,240.107,375.734,266.031,375.734,296.636z"
   id="path4" />
<path
   style="fill:#e6e6e6"
   d="M327.982,231.309c-6.687,33.646-36.373,58.995-71.983,58.995s-65.306-25.349-71.993-58.995  c6.552-2.09,13.542-3.218,20.793-3.218h102.4C314.44,228.091,321.43,229.219,327.982,231.309z"
   id="path6" />
<path
   style="fill:#333333"
   d="M229.516,228.095h-24.72c-37.852,0-68.539,30.686-68.539,68.539v162.671h24.72V296.634  C160.977,258.782,191.662,228.095,229.516,228.095z"
   id="path8" />
<circle
   style="fill:#ffffff"
   cx="394.041"
   cy="133.277"
   r="33.635"
   id="circle10" />
<circle
   style="fill:#f2f2f2"
   cx="388.159"
   cy="138.877"
   r="22.141"
   id="circle12" />
<circle
   style="fill:#f9f9f9"
   cx="117.948"
   cy="133.277"
   r="33.635"
   id="circle14" />
<circle
   style="fill:#e6e6e6"
   cx="123.831"
   cy="138.877"
   r="22.141"
   id="circle16" />
<path
   style="fill:#ffffff"
   d="M394.156,139.982c0,76.305-61.857,118.976-138.162,118.976s-138.162-42.672-138.162-118.976  S179.691,1.82,255.995,1.82S394.156,63.677,394.156,139.982z"
   id="path18" />
<path
   style="fill:#ececec"
   d="M256,258.955c-76.307,0-138.166-42.675-138.166-118.973c0-75.882,61.167-137.474,136.882-138.157  c-54.235,0.959-97.986,62.443-97.986,138.157C156.729,216.28,201.172,258.955,256,258.955z"
   id="path20" />
<g
   id="g26"
   style="fill:#000000">
	<path
   style="fill:#000000"
   d="M332.466,140.329v-24.806c0-6.469-5.244-11.713-11.713-11.713l0,0   c-6.469,0-11.713,5.244-11.713,11.713v24.806c0,6.469,5.244,11.713,11.713,11.713l0,0   C327.221,152.042,332.466,146.798,332.466,140.329z"
   id="path22" />
	<path
   style="fill:#000000"
   d="M202.952,140.329v-24.806c0-6.469-5.244-11.713-11.713-11.713l0,0   c-6.469,0-11.713,5.244-11.713,11.713v24.806c0,6.469,5.244,11.713,11.713,11.713l0,0   C197.707,152.042,202.952,146.798,202.952,140.329z"
   id="path24" />
</g>
<path
   style="fill:#53506D;"
   d="M215.753,177.214c-6.098,0-10.696,5.662-9.311,11.602c5.25,22.511,25.443,39.281,49.553,39.281  c24.11,0,44.304-16.77,49.553-39.281c1.386-5.939-3.212-11.602-9.311-11.602H215.753z"
   id="path28" />
<path
   style="fill:#FFFFFF;"
   d="M267.843,192.228L267.843,192.228c-3.316,0-6.006-2.689-6.006-6.006v-9.009h12.011v9.009  C273.848,189.539,271.159,192.228,267.843,192.228z"
   id="path30" />
<g
   id="g36"
   style="fill:#000000">
	<path
   style="fill:#000000"
   d="M268.924,129.668h-25.858c-4.607,0-8.341,3.734-8.341,8.341l0,0c0,4.607,3.734,8.341,8.341,8.341   h25.858c4.607,0,8.341-3.734,8.341-8.341l0,0C277.266,133.402,273.531,129.668,268.924,129.668z"
   id="path32" />
	<path
   style="fill:#000000"
   d="M255.995,112.282L255.995,112.282c-5.298,0-9.592,4.295-9.592,9.592v16.135h19.185v-16.135   C265.588,116.576,261.293,112.282,255.995,112.282z"
   id="path34" />
</g>
<path
   style="fill:#1a1a1a"
   d="M255.995,1.82c-34.614,15.656-35.178,65.521-4.168,80.301c44.627,21.27,60.891-36.702,60.891-36.702  s-29.194,19.185-37.536,0s25.381-36.63,44.804-27.907l-0.053-0.045C302.26,2.504,278.582-3.29,255.995,1.82L255.995,1.82z"
   id="path38" />
<path
   style="fill:#000000"
   d="M268.509,82.122c3.579,1.702,6.974,2.903,10.193,3.654c-7.499,1.969-16.407,1.334-26.876-3.654  c-31.014-14.781-30.446-64.646,4.17-80.302c8.174-1.852,16.491-2.268,24.616-1.343c-2.653,0.3-5.297,0.75-7.933,1.343  C238.064,17.476,237.497,67.341,268.509,82.122z"
   id="path40" />
<g
   id="g46"
   style="fill:#999999">
	<ellipse
   style="fill:#999999"
   cx="343.103"
   cy="169.66"
   rx="19.117"
   ry="11.628"
   id="ellipse42" />
	<path
   style="fill:#999999"
   d="M187.999,169.656c0,6.423-8.559,11.628-19.11,11.628c-2.636,0-5.146-0.325-7.424-0.917   c-6.873-1.751-11.695-5.889-11.695-10.71c0-3.912,3.179-7.382,8.057-9.485c3.12-1.351,6.94-2.144,11.06-2.144   C179.44,158.028,187.999,163.233,187.999,169.656z"
   id="path44" />
</g>
<path
   style="fill:#666666"
   d="M161.465,180.366c-6.873-1.751-11.695-5.889-11.695-10.71c0-3.912,3.179-7.382,8.057-9.485  C158.629,167.262,159.847,173.993,161.465,180.366z"
   id="path48" />
<path
   style="fill:#b3b3b3"
   d="M267.855,236.779c-7.754,2.189-15.966,2.189-23.72,0c-2.055-0.58-4.211,0.516-4.966,2.514  c-0.009,0.026-0.02,0.052-0.029,0.078c-0.85,2.25,0.387,4.772,2.7,5.427c9.254,2.619,19.057,2.619,28.31,0  c2.313-0.655,3.551-3.178,2.7-5.427c-0.009-0.026-0.02-0.052-0.029-0.078C272.066,237.295,269.911,236.199,267.855,236.779z"
   id="path50" />
<path
   style="fill:#ffffff"
   d="M228.958,423.894v35.412H100.415c-7.576-5.799-14.806-12.016-21.682-18.61  c-7.555-7.252-14.67-14.963-21.274-23.092c-4.347-5.308-8.464-10.794-12.351-16.447v-27.596c0-5.768,2.33-10.982,6.102-14.754  c3.772-3.783,8.997-6.113,14.754-6.113c11.515,0,20.856,9.341,20.856,20.867v17.345h109.15  C214.183,390.907,228.958,405.671,228.958,423.894z"
   id="path52" />
<g
   id="g58"
   style="fill:#cccccc">
	<path
   style="fill:#cccccc"
   d="M57.49,354.513c0,0.167-0.031,0.334-0.031,0.502v62.589c-4.347-5.308-8.464-10.794-12.351-16.447   v-27.596C45.108,365.056,50.197,357.763,57.49,354.513z"
   id="path54" />
	<path
   style="fill:#cccccc"
   d="M228.958,440.769v18.536H100.415c-7.576-5.799-14.806-12.016-21.682-18.61   c0.606,0.052,1.212,0.073,1.829,0.073H228.958z"
   id="path56" />
</g>
<path
   style="fill:#ffffff"
   d="M466.892,373.561v27.596c-15.276,22.162-33.97,41.796-55.306,58.149H283.031v-35.412  c0-18.223,14.775-32.987,32.987-32.987h109.15v-17.345c0-11.525,9.341-20.867,20.856-20.867c5.768,0,10.982,2.33,14.754,6.113  C464.562,362.58,466.892,367.794,466.892,373.561z"
   id="path60" />
<g
   id="g66"
   style="fill:#cccccc">
	<path
   style="fill:#cccccc"
   d="M451.252,353.353c-8.997,2.33-15.632,10.491-15.632,20.208v17.345h-10.449v-17.345   c0-11.525,9.341-20.867,20.867-20.867C447.835,352.695,449.58,352.925,451.252,353.353z"
   id="path62" />
	<path
   style="fill:#cccccc"
   d="M432.358,441.543c-6.604,6.29-13.531,12.215-20.773,17.763H283.042v-17.763H432.358z"
   id="path64" />
</g>
<g
   id="g72"
   style="fill:#ffffff">
	<path
   style="fill:#ffffff"
   d="M167.93,266.178L167.93,266.178c-17.493,0-31.673,14.18-31.673,31.673v161.906   c0,11.696,9.481,21.178,21.178,21.178h20.99c11.696,0,21.178-9.481,21.178-21.178V297.851   C199.603,280.359,185.422,266.178,167.93,266.178z"
   id="path68" />
	<path
   style="fill:#ffffff"
   d="M344.061,266.178L344.061,266.178c-17.493,0-31.673,14.18-31.673,31.673v161.906   c0,11.696,9.481,21.178,21.178,21.178h20.991c11.696,0,21.178-9.481,21.178-21.178V297.851   C375.734,280.359,361.553,266.178,344.061,266.178z"
   id="path70" />
</g>
<g
   id="g78"
   style="fill:#cccccc">
	<path
   style="fill:#cccccc"
   d="M187.022,433.04h-34.558V297.851c0-14.678,9.997-27.038,23.561-30.623   c-2.58-0.679-5.3-1.05-8.096-1.05c-17.505,0-31.673,14.183-31.673,31.673V445.62v13.906v0.229c0,11.699,9.483,21.182,21.182,21.182   h16.207c-11.696,0-21.182-9.487-21.182-21.182l0,0c0-7.074,5.734-12.808,12.808-12.808h21.751c6.948,0,12.58,5.632,12.58,12.58   V445.62C199.603,438.672,193.97,433.04,187.022,433.04z"
   id="path74" />
	<path
   style="fill:#cccccc"
   d="M363.153,433.04h-34.558V297.851c0-14.678,9.997-27.038,23.561-30.623   c-2.58-0.679-5.3-1.05-8.096-1.05c-17.505,0-31.673,14.183-31.673,31.673V445.62v13.906v0.229c0,11.699,9.483,21.182,21.182,21.182   h16.207c-11.696,0-21.182-9.487-21.182-21.182l0,0c0-7.074,5.734-12.808,12.808-12.808h21.751c6.948,0,12.58,5.632,12.58,12.58   V445.62C375.734,438.672,370.101,433.04,363.153,433.04z"
   id="path76" />
</g>
<rect
   x="228.958"
   y="440.769"
   style="fill:#cccccc"
   width="54.081"
   height="18.54"
   id="rect80" />
<g
   id="g82">
</g>
<g
   id="g84">
</g>
<g
   id="g86">
</g>
<g
   id="g88">
</g>
<g
   id="g90">
</g>
<g
   id="g92">
</g>
<g
   id="g94">
</g>
<g
   id="g96">
</g>
<g
   id="g98">
</g>
<g
   id="g100">
</g>
<g
   id="g102">
</g>
<g
   id="g104">
</g>
<g
   id="g106">
</g>
<g
   id="g108">
</g>
<g
   id="g110">
</g>
</svg>