<?xml version="1.0" encoding="UTF-8" standalone="no"?>
<!-- Created with Inkscape (http://www.inkscape.org/) -->

<svg
   xmlns:dc="http://purl.org/dc/elements/1.1/"
   xmlns:cc="http://creativecommons.org/ns#"
   xmlns:rdf="http://www.w3.org/1999/02/22-rdf-syntax-ns#"
   xmlns:svg="http://www.w3.org/2000/svg"
   xmlns="http://www.w3.org/2000/svg"
   xmlns:sodipodi="http://sodipodi.sourceforge.net/DTD/sodipodi-0.dtd"
   xmlns:inkscape="http://www.inkscape.org/namespaces/inkscape"
   width="135.00999mm"
   height="134.89301mm"
   viewBox="0 0 135.00999 134.89301"
   version="1.1"
   id="svg3983"
   inkscape:version="0.92.4 (5da689c313, 2019-01-14)"
   sodipodi:docname="big-data2.svg">
  <defs
     id="defs3977" />
  <sodipodi:namedview
     id="base"
     pagecolor="#ffffff"
     bordercolor="#666666"
     borderopacity="1.0"
     inkscape:pageopacity="0.0"
     inkscape:pageshadow="2"
     inkscape:zoom="0.35"
     inkscape:cx="400"
     inkscape:cy="560"
     inkscape:document-units="mm"
     inkscape:current-layer="layer1"
     showgrid="false"
     inkscape:window-width="1366"
     inkscape:window-height="745"
     inkscape:window-x="-8"
     inkscape:window-y="-8"
     inkscape:window-maximized="1"
     units="mm"
     inkscape:snap-bbox="true"
     inkscape:bbox-paths="true"
     inkscape:bbox-nodes="true" />
  <metadata
     id="metadata3980">
    <rdf:RDF>
      <cc:Work
         rdf:about="">
        <dc:format>image/svg+xml</dc:format>
        <dc:type
           rdf:resource="http://purl.org/dc/dcmitype/StillImage" />
        <dc:title></dc:title>
      </cc:Work>
    </rdf:RDF>
  </metadata>
  <g
     inkscape:label="Calque 1"
     inkscape:groupmode="layer"
     id="layer1"
     transform="translate(0,-162.107)">
    <path
       style="fill:#000000;stroke-width:0.33260208"
       d="m 64.190611,296.9783 c -2.96193,-0.62864 -6.472144,-3.22232 -8.32871,-6.15406 -0.912947,-1.44165 -2.055966,-5.31626 -2.055966,-6.96934 0,-1.82214 1.212329,-5.46724 2.426618,-7.29609 1.829057,-2.75476 4.779942,-4.84319 7.971918,-5.64197 l 0.91939,-0.23007 -0.0879,-10.38629 -0.0879,-10.38629 -7.317244,-0.0885 -7.317247,-0.0885 -5.303203,5.31248 c -4.920398,4.929 -5.26665,5.35554 -4.79684,5.90908 1.225296,1.44368 1.951294,4.11319 1.951294,7.17495 0,2.73092 -0.101211,3.20735 -1.138753,5.36044 -3.355676,6.96363 -10.899797,9.67307 -17.687224,6.35229 -4.315079,-2.11117 -7.103181,-6.29577 -7.373776,-11.06711 -0.57581,-10.15322 9.890421,-16.96595 19.157828,-12.47033 l 1.772031,0.85962 3.632753,-3.62149 c 1.998014,-1.99182 3.632753,-3.72219 3.632753,-3.84527 0,-0.12307 -0.935445,-0.66404 -2.078763,-1.20216 -5.594871,-2.6333 -9.069072,-8.80995 -8.358068,-14.85949 l 0.217752,-1.85273 H 30.133519 26.32568 l -0.429598,1.6762 c -0.530111,2.06839 -2.629725,5.27432 -4.342818,6.63112 -0.705673,0.5589 -2.156505,1.42117 -3.224069,1.91615 -1.69875,0.78763 -2.356192,0.90041 -5.267053,0.90352 -3.03544,0.003 -3.5148958,-0.0864 -5.4879341,-1.02643 -7.74302396,-3.68899 -10.203313,-13.18577 -5.182783,-20.00568 1.718787,-2.33481 3.545512,-3.68124 6.4014993,-4.71837 2.9332888,-1.06521 7.1210378,-0.86998 9.8346938,0.45848 3.615555,1.76997 5.696411,4.11101 7.098737,7.98633 l 0.731379,2.02115 4.498327,0.0924 4.498329,0.0924 0.769046,-1.09016 c 1.005485,-1.42531 2.816667,-3.14765 4.307133,-4.09586 1.315252,-0.83674 5.259986,-2.14962 6.458842,-2.14962 0.646957,0 0.825855,-0.26615 1.173708,-1.74616 0.225724,-0.96039 0.629951,-2.17957 0.898281,-2.70929 l 0.487879,-0.96312 -6.353379,-6.35337 -6.353376,-6.35338 -1.413227,0.73906 c -1.704562,0.89141 -4.934794,1.75396 -6.568556,1.75396 -1.632964,0 -4.87912,-0.85701 -6.485742,-1.71228 -3.024859,-1.61027 -5.746885,-5.10527 -6.629775,-8.51246 -0.659623,-2.54557 -0.65831,-4.28339 0.0052,-6.84385 1.643152,-6.34113 7.582202,-10.62098 14.041098,-10.11842 3.59055,0.27937 5.851663,1.35435 8.548405,4.06407 3.108346,3.12331 4.003487,5.32111 3.96308,9.73034 -0.02598,2.83573 -0.120597,3.25649 -1.233956,5.48793 l -1.20581,2.41674 5.886916,5.90369 c 3.237809,3.24702 6.022628,5.90368 6.188498,5.90368 0.165865,0 1.009097,-0.66181 1.873854,-1.47068 2.482688,-2.32226 7.551994,-4.51616 10.435242,-4.51616 h 0.86664 v -8.31505 -8.31505 l -0.74835,-0.003 c -1.02482,-0.004 -4.045345,-1.44909 -5.593475,-2.67523 -1.975778,-1.56485 -3.782359,-4.60121 -4.466754,-7.50741 -0.519837,-2.20741 -0.542041,-2.81344 -0.177776,-4.85175 1.205018,-6.74286 6.464149,-11.23787 13.148235,-11.23787 6.69653,0 11.93991,4.47655 13.14558,11.22309 0.35489,1.98581 0.33543,2.66593 -0.13698,4.78932 -0.63632,2.86014 -2.49867,5.99566 -4.5049,7.58463 -1.55163,1.22891 -4.56941,2.67083 -5.59905,2.67527 l -0.75397,0.003 0.0888,8.53064 0.0888,8.53064 1.7239,0.56182 c 2.64126,0.8608 5.28998,2.61449 7.48998,4.95903 l 1.99596,2.12709 6.9387,-6.94982 6.93871,-6.94984 -1.06885,-2.16191 c -1.0076,-2.03801 -1.06885,-2.37159 -1.06885,-5.82054 0,-3.36984 0.0761,-3.81129 0.96389,-5.59282 4.20472,-8.43749 15.375109,-10.0431 21.665199,-3.1141 5.30743,5.84651 4.43909,14.70047 -1.89936,19.36657 -4.04478,2.9776 -8.80103,3.40571 -13.685935,1.23188 l -1.936474,-0.86175 -6.96604,6.95769 -6.96605,6.95769 2.25956,0.209 c 1.40133,0.12961 3.26031,0.62561 4.89434,1.30585 3.41417,1.42133 6.90199,4.71764 8.349204,7.8908 l 0.952495,2.08841 3.96954,-0.0928 3.96955,-0.0928 0.60139,-1.77087 c 1.5011,-4.42017 4.13424,-7.11117 8.51499,-8.70206 1.73937,-0.63167 2.53492,-0.72689 4.98903,-0.59715 3.64254,0.19255 6.12411,1.28522 8.67269,3.81868 6.52801,6.48929 4.54635,17.5304 -3.85694,21.48948 -2.0396,0.96092 -2.51084,1.0497 -5.55469,1.04644 -2.91087,-0.003 -3.56831,-0.11589 -5.26705,-0.90352 -1.06757,-0.49498 -2.5184,-1.35725 -3.22408,-1.91616 -1.73613,-1.37504 -3.81774,-4.57544 -4.30964,-6.62592 l -0.40336,-1.68139 h -3.55317 -3.55316 l -0.37556,3.1587 c -0.68444,5.75664 -3.935839,10.56742 -8.920499,13.1988 l -2.14115,1.13031 3.97767,3.96731 3.97768,3.96731 1.829814,-0.92652 c 6.714055,-3.39964 14.639185,-0.72122 18.182335,6.14498 1.04236,2.01998 1.09419,2.29371 1.09419,5.77904 0,3.44315 -0.0609,3.77615 -1.03335,5.65423 -1.62577,3.1397 -3.46188,4.98312 -6.37183,6.3972 -2.35727,1.1455 -2.7715,1.2386 -5.54114,1.24535 -4.38682,0.0107 -6.593265,-0.89918 -9.645469,-3.97753 -3.09888,-3.12543 -3.82492,-4.91985 -3.82492,-9.45324 0,-3.08033 0.0697,-3.41621 1.15404,-5.56336 l 1.15403,-2.2851 -5.22841,-5.24388 -5.22842,-5.24388 -7.31725,0.0885 -7.31724,0.0885 -0.0879,10.38629 -0.0879,10.38629 0.91938,0.22988 c 3.36781,0.84207 6.9438,3.50965 8.47402,6.32134 0.48268,0.88692 1.13865,2.65188 1.45771,3.92215 0.50043,1.99238 0.52549,2.63187 0.18251,4.65643 -1.09507,6.46401 -5.94994,10.97166 -12.18827,11.31657 -1.46345,0.0809 -3.30103,0.0112 -4.08352,-0.15485 z m 7.09791,-4.91241 c 8.58217,-4.39988 5.5372,-17.05756 -4.11796,-17.118 -1.77422,-0.0111 -2.65867,0.16589 -3.8821,0.7769 -4.015276,2.00533 -6.1254,6.98578 -4.678441,11.04238 0.955191,2.67791 3.351461,5.11769 5.817011,5.92264 1.49063,0.48665 5.38619,0.13243 6.86149,-0.62392 z m -38.23411,-16.03633 c 2.041175,-0.92924 3.098167,-1.98962 4.31611,-4.32994 0.874369,-1.68012 0.817616,-5.69328 -0.105836,-7.48354 -3.477715,-6.74217 -12.485615,-7.05234 -16.301335,-0.56132 -0.807437,1.37356 -0.916049,1.89561 -0.912532,4.38624 0.0045,3.19213 0.589351,4.6934 2.544529,6.53166 2.983201,2.80481 6.4404,3.28639 10.459064,1.4569 z m 76.754709,-0.0127 c 5.34561,-2.69901 6.47395,-10.0235 2.20219,-14.29526 -4.32059,-4.32059 -11.70758,-3.11958 -14.481499,2.35445 -0.63965,1.26229 -0.8182,2.12748 -0.8182,3.96461 0,3.93052 1.40645,6.3006 4.734939,7.97907 1.85991,0.9379 2.33317,1.03804 4.41162,0.93353 1.63533,-0.0822 2.81115,-0.3609 3.95095,-0.93639 z M 87.849231,245.08223 c 5.75951,-1.77893 9.21889,-6.90054 8.78232,-13.0022 -0.32201,-4.50044 -3.04557,-8.28023 -7.45232,-10.34239 -2.05879,-0.96343 -2.32273,-1.00497 -5.43274,-0.85522 -1.79785,0.0866 -3.48246,0.0378 -3.74358,-0.10828 -0.26113,-0.14613 -0.83669,-1.17908 -1.27905,-2.29542 -4.13412,-10.43314 -17.599993,-12.35938 -24.326463,-3.4798 -1.300027,1.71616 -2.408515,4.55576 -2.788385,7.14299 -0.328904,2.24012 -0.852718,2.66082 -3.312965,2.66082 -4.022807,0 -7.768516,2.33217 -9.504151,5.91752 -2.054587,4.2442 -0.633581,9.96795 3.200771,12.89255 2.75304,2.09985 2.696197,2.09486 24.167653,2.12054 18.69069,0.0224 19.59654,-0.005 21.68891,-0.65111 z m -70.180545,-7.42748 c 6.229954,-3.65099 5.933975,-12.77725 -0.520456,-16.04796 -2.302449,-1.16674 -5.857952,-1.20284 -8.1016918,-0.0823 -5.2342183,2.61409 -6.7016663,9.30697 -3.0663543,13.98532 1.879883,2.41925 3.9837593,3.28745 7.6197481,3.14438 2.03898,-0.0802 2.832994,-0.27527 4.068754,-0.99948 z m 107.830604,0.19873 c 6.58029,-3.37361 6.68732,-12.64131 0.18583,-16.09103 -2.44844,-1.29916 -5.91505,-1.35442 -8.32594,-0.13273 -3.03507,1.53798 -5.02032,4.84609 -5.01692,8.35989 0.003,3.34099 2.67361,7.1268 5.86459,8.3143 1.80231,0.67071 5.55811,0.43873 7.29244,-0.45043 z M 32.594919,199.77704 c 1.776542,-0.74579 4.036992,-3.01321 4.83053,-4.84543 0.873474,-2.01678 0.716812,-5.54089 -0.337251,-7.58644 -2.811796,-5.45664 -10.108401,-6.72351 -14.451089,-2.50908 -2.025806,1.96598 -2.586559,3.41877 -2.588562,6.70643 -0.0016,2.48204 0.109125,3.01568 0.90641,4.37193 1.460307,2.48409 3.703077,4.05506 6.575414,4.60581 1.544375,0.29612 3.150005,0.0605 5.064548,-0.74322 z m 75.485571,0.40193 c 6.22309,-1.72842 8.60387,-9.65658 4.38124,-14.58978 -1.82306,-2.12984 -4.10134,-3.17199 -6.93616,-3.1728 -5.15375,-0.001 -8.922959,3.78712 -8.913959,8.95983 0.005,2.75608 0.55198,4.21553 2.312744,6.1686 2.312435,2.565 5.796375,3.5673 9.156135,2.63415 z M 71.235411,183.73353 c 1.65165,-0.80183 3.31315,-2.46092 4.26285,-4.25667 0.57478,-1.08683 0.74464,-1.96922 0.75061,-3.89924 0.007,-2.17975 -0.12203,-2.72533 -1.02044,-4.32382 -0.71827,-1.27796 -1.60434,-2.22996 -2.93987,-3.1586 -1.76551,-1.22763 -2.10984,-1.33828 -4.50264,-1.44695 -4.16758,-0.18926 -6.807997,1.34033 -8.639051,5.0046 -1.401183,2.80401 -1.399963,5.04798 0.0043,7.85808 1.12703,2.25538 2.73781,3.78128 4.786791,4.53453 1.82091,0.66941 5.60966,0.50746 7.29749,-0.31193 z"
       id="path3841"
       inkscape:connector-curvature="0"
       inkscape:export-xdpi="96"
       inkscape:export-ydpi="96" />
  </g>
</svg>
