<svg id="fill" height="512" viewBox="0 0 64 64" width="512" xmlns="http://www.w3.org/2000/svg"><path d="m14.3 16.383a16.661 16.661 0 0 0 -.323 3.266v5.351l-5.793 10.763a1.517 1.517 0 0 0 1.336 2.237h4.459v11.722a2.278 2.278 0 0 0 2.278 2.278h10.722v9h17v-14l7.3-9.119a21.468 21.468 0 0 0 4.7-13.412 21.469 21.469 0 0 0 -21.469-21.469h-3.883a16.648 16.648 0 0 0 -16.327 13.383z" fill="#f8f8fe"/><path d="m26.82 52h.159v9h17v-14l7.3-9.119a21.468 21.468 0 0 0 4.7-13.412 21.457 21.457 0 0 0 -.636-5.1 42.046 42.046 0 0 1 -28.523 32.631z" fill="#e3e3ff"/><g fill="#f8cc5c"><path d="m48 18v1h-4.021v-2h4v-3h-8v3h2v2h-3a1 1 0 0 1 -1-1v-5a1 1 0 0 1 1-1h6v-2h-7v-3h-8v3h.021v3h3v-2h2v3a1 1 0 0 1 -1 1h-5a1 1 0 0 1 -1-1v-4h-3.021v3h-3v5h-3v8h.021v-1h6.979v-3h2v4a1 1 0 0 1 -1 1h-5v3h6v3h2v-7h2v4h1v9h2v-9h2.021l-.019-3h-2v-2h3a1 1 0 0 1 1 1l.019 4h-1.021v3h1v5h2v-5h3v-3h-3a1 1 0 0 1 -1-1v-6a1 1 0 0 1 1-1h4v2h-3v4h2.021v1h2.992l-.013 5.586-2.708 2.707 1.415 1.414 3-3a1 1 0 0 0 .293-.707l.021-9h1.979v-8zm-12.291 3.7a1 1 0 0 1 -.709.3h-3.02v2h-2v-5h-5v-2h6a1 1 0 0 1 1 1v2h2.014l-.014-1.993 2-.014.021 3a1 1 0 0 1 -.292.712z"/><path d="m27.979 35h2v2h-2z"/><path d="m32.979 41h2v2h-2z"/><path d="m38.979 40h2v2h-2z"/></g><path d="m9.52 39h3.459v10.722a3.281 3.281 0 0 0 3.278 3.278h9.722v8a1 1 0 0 0 1 1h17a1 1 0 0 0 1-1v-13.649l7.077-8.846a22.469 22.469 0 0 0 -17.546-36.505h-3.883a17.7 17.7 0 0 0 -17.306 14.187 17.719 17.719 0 0 0 -.342 3.46v5.1l-5.679 10.541a2.516 2.516 0 0 0 2.22 3.712zm-.456-2.763 5.8-10.763a1 1 0 0 0 .12-.474v-5.352a15.644 15.644 0 0 1 15.643-15.648h3.883a20.469 20.469 0 0 1 15.983 33.256l-7.3 9.119a1.006 1.006 0 0 0 -.218.625v13h-15v-8a1 1 0 0 0 -1-1h-10.718a1.279 1.279 0 0 1 -1.278-1.278v-11.722a1 1 0 0 0 -1-1h-4.459a.517.517 0 0 1 -.456-.763z"/><path d="m18.979 27h2v3a1 1 0 0 0 1 1h6v2h2v-2h3v8h2v-8h2v2a1 1 0 0 0 1 1h1v4h2v-4h3a1 1 0 0 0 1-1v-3h2v4.586l-2.708 2.707 1.415 1.414 3-3a1 1 0 0 0 .293-.707v-8h2a1 1 0 0 0 1-1v-8a1 1 0 0 0 -1-1h-2v-4a1 1 0 0 0 -1-1h-2v-2a1 1 0 0 0 -1-1h-6v-2a1 1 0 0 0 -1-1h-8a1 1 0 0 0 -1 1v2h-4a1 1 0 0 0 -1 1v2h-2a1 1 0 0 0 -1 1v4h-2a1 1 0 0 0 -1 1v8a1 1 0 0 0 1 1zm1-8h2a1 1 0 0 0 1-1v-4h2a1 1 0 0 0 1-1v-2h2.021v3a1 1 0 0 0 1 1h5a1 1 0 0 0 1-1v-3h-2v2h-3v-2a1 1 0 0 0 .979-1v-2h6v2a1 1 0 0 0 1 1h6v1h-5a1 1 0 0 0 -1 1v5a1 1 0 0 0 1 1h3v-2h-2v-3h7v3h-3v2h6v6h-2a1 1 0 0 0 -1 1v2h-5v-4h3v-2h-4a1 1 0 0 0 -1 1v6a1 1 0 0 0 1 1h2v2h-4v-6a1 1 0 0 0 -1-1h-3v2h2v2h-5v-3h-2v3h-7v-2h4a1 1 0 0 0 1-1v-4h-2v3h-6z"/><path d="m29.979 24h2v-2h3.021a1 1 0 0 0 1-1.007l-.021-3-2 .014.014 1.993h-2.014v-2a1 1 0 0 0 -1-1h-6v2h5z"/><path d="m27.979 35h2v2h-2z"/><path d="m32.979 41h2v2h-2z"/><path d="m38.979 40h2v2h-2z"/></svg>