<?xml version="1.0" encoding="UTF-8" standalone="no"?>
<svg
   xmlns:dc="http://purl.org/dc/elements/1.1/"
   xmlns:cc="http://creativecommons.org/ns#"
   xmlns:rdf="http://www.w3.org/1999/02/22-rdf-syntax-ns#"
   xmlns:svg="http://www.w3.org/2000/svg"
   xmlns="http://www.w3.org/2000/svg"
   xmlns:sodipodi="http://sodipodi.sourceforge.net/DTD/sodipodi-0.dtd"
   xmlns:inkscape="http://www.inkscape.org/namespaces/inkscape"
   height="511pt"
   viewBox="0 0 511 511.9998"
   width="511pt"
   version="1.1"
   id="svg16"
   sodipodi:docname="broadcast.svg"
   inkscape:version="0.92.4 (5da689c313, 2019-01-14)">
  <metadata
     id="metadata22">
    <rdf:RDF>
      <cc:Work
         rdf:about="">
        <dc:format>image/svg+xml</dc:format>
        <dc:type
           rdf:resource="http://purl.org/dc/dcmitype/StillImage" />
      </cc:Work>
    </rdf:RDF>
  </metadata>
  <defs
     id="defs20" />
  <sodipodi:namedview
     pagecolor="#ffffff"
     bordercolor="#666666"
     borderopacity="1"
     objecttolerance="10"
     gridtolerance="10"
     guidetolerance="10"
     inkscape:pageopacity="0"
     inkscape:pageshadow="2"
     inkscape:window-width="640"
     inkscape:window-height="480"
     id="namedview18"
     showgrid="false"
     inkscape:zoom="0.34637965"
     inkscape:cx="340.66667"
     inkscape:cy="340.66667"
     inkscape:window-x="0"
     inkscape:window-y="0"
     inkscape:window-maximized="0"
     inkscape:current-layer="svg16" />
  <path
     d="m 390.22821,482 h -16.29407 c -2.84967,-12.41797 -73.29766,-319.52344 -74.00923,-322.62109 26.61514,-39.36329 1.76522,-96.515629 -41.85555,-96.515629 -43.70287,0 -68.40226,57.246089 -41.85555,96.515629 C 215.49542,162.51172 145.05768,469.58594 142.20802,482 h -16.29408 c -7.25245,0 -13.13309,6.71484 -13.13309,15 0,8.28516 5.87722,15 13.13309,15 h 264.31427 c 7.25245,0 13.1331,-6.71484 13.1331,-15 0,-8.28516 -5.88065,-15 -13.1331,-15 z m -70.11275,-116.23828 12.91416,56.30078 -48.87538,-32.42188 z m -15.23357,-66.40625 -26.92302,-27.09375 16.8209,-16.94922 z M 258.06936,92.863281 c 14.62122,0 26.51593,13.464839 26.51593,30.015629 0,16.55078 -11.89471,30.01562 -26.51593,30.01562 -14.61779,0 -26.5125,-13.46484 -26.5125,-30.01562 0,-16.55079 11.89471,-30.015629 26.5125,-30.015629 z m -19.15057,85.921879 c 12.16838,5.41015 25.82488,5.54687 38.30457,0 l 10.10212,44.03515 -29.23218,29.45313 -29.27321,-29.45703 z m -17.553,76.51562 16.87222,16.97656 -27.00854,27.21094 z m 36.73779,36.96484 47.87643,48.17969 -47.97222,31.85547 -47.84567,-31.73437 z m -62.10085,73.59766 35.87228,23.79297 -48.75905,32.37891 z M 169.36366,482 173.72882,462.97266 258.01804,407 342.41676,462.98047 346.77849,482 Z m 0,0"
     id="path2"
     style="fill:#000000;stroke-width:0.93582469"
     inkscape:connector-curvature="0" />
  <path
     d="m 91.379478,191.98828 c -13.68498,-43.68359 -13.700785,-94.480468 0,-138.218749 2.355028,-7.511719 0.158056,-16.429687 -4.907626,-19.921875 -5.065682,-3.492187 -11.079696,-0.230468 -13.432091,7.28125 -16.198063,51.695313 -16.221771,111.730464 0,163.500004 1.712269,5.46875 5.363353,8.68359 9.175127,8.68359 7.34695,0 12.288822,-11.35938 9.16459,-21.32422 z m 0,0"
     id="path4"
     inkscape:connector-curvature="0"
     style="stroke-width:0.82120067" />
  <path
     d="m 35.061887,1.621094 c -5.37383,-3.742188 -11.938373,-0.789063 -14.663652,6.601562 -26.5224551,71.945313 -26.5395055,157.316404 0,229.316404 2.725279,7.39063 9.292663,10.33985 14.663652,6.59766 5.376673,-3.7461 7.525068,-12.76953 4.799789,-20.16016 -23.37659,-63.41015 -23.393641,-138.734372 0,-202.191404 C 42.586955,14.394531 40.43856,5.367188 35.061887,1.621094 Z m 0,0"
     id="path6"
     inkscape:connector-curvature="0"
     style="stroke-width:0.85293555" />
  <path
     d="m 141.42567,179.64062 c 5.5199,-2.96875 8.27706,-11.64453 6.1611,-19.3789 -6.3674,-23.25781 -6.74934,-50.10547 0,-74.765626 2.11596,-7.734375 -0.6412,-16.410156 -6.1611,-19.378906 -5.52269,-2.964844 -11.70889,0.898437 -13.82485,8.632812 -8.44433,30.85156 -8.46385,65.33203 0,96.25391 2.11596,7.74218 8.31052,11.60156 13.82485,8.63671 z m 0,0"
     id="path8"
     inkscape:connector-curvature="0"
     style="stroke-width:0.84479833" />
  <path
     d="m 425.73808,33.847656 c -5.41463,3.492188 -7.76294,12.410156 -5.2485,19.925782 14.63048,43.679687 14.64737,94.480472 0,138.210932 -2.51444,7.51563 -0.16613,16.4336 5.2485,19.92579 5.41463,3.49609 11.84292,0.22656 14.35736,-7.28125 17.31385,-51.69141 17.3392,-111.734379 0,-163.500004 -2.51726,-7.511718 -8.94273,-10.773437 -14.35736,-7.28125 z m 0,0"
     id="path10"
     inkscape:connector-curvature="0"
     style="stroke-width:0.84901369" />
  <path
     d="m 492.57464,8.222656 c -2.72289,-7.390625 -9.29138,-10.34375 -14.66611,-6.601562 -5.37473,3.746094 -7.52349,12.773437 -4.8006,20.164062 24.49469,66.433594 22.05602,144.347654 0.73047,202.187504 -2.72574,7.39062 -0.57698,16.41796 4.80059,20.16406 5.37189,3.74219 11.94038,0.79297 14.66611,-6.60156 24.17351,-65.57032 27.22042,-153.507816 -0.73046,-229.312504 z m 0,0"
     id="path12"
     inkscape:connector-curvature="0"
     style="stroke-width:0.85300708" />
  <path
     d="m 374.16502,179.64062 c 5.0796,2.96485 10.76948,-0.90234 12.71567,-8.63671 7.54633,-29.97657 8.00275,-64.46485 0,-96.25391 -1.94619,-7.734375 -7.6412,-11.597656 -12.71567,-8.632812 -5.07704,2.96875 -7.61299,11.644531 -5.66679,19.378906 6.02834,23.945316 6.04116,50.769526 0,74.765626 -1.9462,7.73437 0.58975,16.41015 5.66679,19.3789 z m 0,0"
     id="path14"
     inkscape:connector-curvature="0"
     style="stroke-width:0.81020069" />
</svg>
