<?xml version="1.0" encoding="UTF-8" standalone="no"?>
<!-- Generator: Adobe Illustrator 19.0.0, SVG Export Plug-In . SVG Version: 6.00 Build 0)  -->

<svg
   xmlns:dc="http://purl.org/dc/elements/1.1/"
   xmlns:cc="http://creativecommons.org/ns#"
   xmlns:rdf="http://www.w3.org/1999/02/22-rdf-syntax-ns#"
   xmlns:svg="http://www.w3.org/2000/svg"
   xmlns="http://www.w3.org/2000/svg"
   xmlns:sodipodi="http://sodipodi.sourceforge.net/DTD/sodipodi-0.dtd"
   xmlns:inkscape="http://www.inkscape.org/namespaces/inkscape"
   version="1.1"
   id="Capa_1"
   x="0px"
   y="0px"
   viewBox="0 0 508 508"
   style="enable-background:new 0 0 508 508;"
   xml:space="preserve"
   sodipodi:docname="browser.svg"
   inkscape:version="0.92.4 (5da689c313, 2019-01-14)"><metadata
   id="metadata57"><rdf:RDF><cc:Work
       rdf:about=""><dc:format>image/svg+xml</dc:format><dc:type
         rdf:resource="http://purl.org/dc/dcmitype/StillImage" /></cc:Work></rdf:RDF></metadata><defs
   id="defs55" /><sodipodi:namedview
   pagecolor="#ffffff"
   bordercolor="#666666"
   borderopacity="1"
   objecttolerance="10"
   gridtolerance="10"
   guidetolerance="10"
   inkscape:pageopacity="0"
   inkscape:pageshadow="2"
   inkscape:window-width="640"
   inkscape:window-height="480"
   id="namedview53"
   showgrid="false"
   inkscape:zoom="0.46456693"
   inkscape:cx="252.09494"
   inkscape:cy="254"
   inkscape:window-x="0"
   inkscape:window-y="0"
   inkscape:window-maximized="0"
   inkscape:current-layer="Capa_1" />
<path
   style="fill:#000000"
   d="M486.8,0.75H21.2C9.5,0.75,0,10.35,0,22.05v139.2h508V22.05C508,10.35,498.5,0.75,486.8,0.75z"
   id="path2" />
<path
   style="fill:#ffffff"
   d="M0,161.25v324.8c0,11.7,9.5,21.2,21.2,21.2h465.5c11.7,0,21.2-9.5,21.2-21.2v-324.8H0z"
   id="path4" />
<circle
   style="fill:#999999"
   cx="62.1"
   cy="81.05"
   r="30"
   id="circle6" />
<circle
   style="fill:#cccccc"
   cx="155.7"
   cy="81.05"
   r="30"
   id="circle8" />
<circle
   style="fill:#f9f9f9"
   cx="249.2"
   cy="81.05"
   r="30"
   id="circle10" />
<g
   id="g16"
   style="fill:#000000">
	<polygon
   style="fill:#000000"
   points="142.9,430.55 46.6,334.25 142.9,238.05 174.8,269.95 110.5,334.25 174.8,398.65  "
   id="polygon12" />
	<polygon
   style="fill:#000000"
   points="365.1,430.55 333.2,398.65 397.5,334.25 333.2,269.95 365.1,238.05 461.4,334.25  "
   id="polygon14" />
</g>
<polygon
   style="fill:#000000"
   points="237,447.05 191.8,447.05 271,221.55 316.2,221.55 "
   id="polygon18" />
<rect
   y="161.25"
   style="fill:#CDD5DF;"
   width="508"
   height="11.5"
   id="rect20" />
<g
   id="g22">
</g>
<g
   id="g24">
</g>
<g
   id="g26">
</g>
<g
   id="g28">
</g>
<g
   id="g30">
</g>
<g
   id="g32">
</g>
<g
   id="g34">
</g>
<g
   id="g36">
</g>
<g
   id="g38">
</g>
<g
   id="g40">
</g>
<g
   id="g42">
</g>
<g
   id="g44">
</g>
<g
   id="g46">
</g>
<g
   id="g48">
</g>
<g
   id="g50">
</g>
</svg>