<?xml version="1.0"?>
<svg xmlns="http://www.w3.org/2000/svg" id="Layer_1" data-name="Layer 1" viewBox="0 0 512 512" width="512" height="512"><title>Mobile P</title><path d="M336,35H176a46.053,46.053,0,0,0-46,46V431a46.053,46.053,0,0,0,46,46H336a46.053,46.053,0,0,0,46-46V81A46.053,46.053,0,0,0,336,35Zm0,430H176a34.038,34.038,0,0,1-34-34V405H370v26A34.038,34.038,0,0,1,336,465ZM370,95H356a6,6,0,0,0,0,12h14V393H142V107H305a6,6,0,0,0,0-12H142V81a34.038,34.038,0,0,1,34-34H336a34.038,34.038,0,0,1,34,34Z"/><path d="M324.694,107h11.117a6,6,0,0,0,0-12H324.694a6,6,0,0,0,0,12Z"/><path d="M256,414a21,21,0,1,0,21,21A21.024,21.024,0,0,0,256,414Zm0,30a9,9,0,1,1,9-9A9.01,9.01,0,0,1,256,444Z"/><path d="M247.6,228a6,6,0,0,0,6,6h33.6a6,6,0,1,0,0-12H253.6A6,6,0,0,0,247.6,228Z"/><path d="M343.6,222H322a6,6,0,0,0,0,12h21.6a6,6,0,0,0,0-12Z"/><path d="M182.8,278H168.4a6,6,0,1,0,0,12h14.4a6,6,0,0,0,0-12Z"/><path d="M244,278H210.4a6,6,0,1,0,0,12H244a6,6,0,0,0,0-12Z"/><path d="M343.6,278H278.8a6,6,0,1,0,0,12h64.8a6,6,0,0,0,0-12Z"/><path d="M182.8,334H168.4a6,6,0,1,0,0,12h14.4a6,6,0,0,0,0-12Z"/><path d="M292,334H210.4a6,6,0,1,0,0,12H292a6,6,0,0,0,0-12Z"/><path d="M343.6,334H326.8a6,6,0,1,0,0,12h16.8a6,6,0,0,0,0-12Z"/><path d="M235.093,142.467a6,6,0,0,0-11.385-3.8l-30,90a6,6,0,1,0,11.385,3.8Z"/><path d="M179.4,206.57a6,6,0,0,0,4.243-10.243L167.886,180.57l15.757-15.758a6,6,0,0,0-8.485-8.485l-20,20a6,6,0,0,0,0,8.485l20,20A5.979,5.979,0,0,0,179.4,206.57Z"/><path d="M245.158,204.812a6,6,0,0,0,8.485,0l20-20a6,6,0,0,0,0-8.485l-20-20a6,6,0,0,0-8.485,8.485l15.757,15.758-15.757,15.757A6,6,0,0,0,245.158,204.812Z"/></svg>
