<?xml version="1.0" encoding="UTF-8" standalone="no"?>
<!-- Generator: Adobe Illustrator 19.0.0, SVG Export Plug-In . SVG Version: 6.00 Build 0)  -->

<svg
   xmlns:dc="http://purl.org/dc/elements/1.1/"
   xmlns:cc="http://creativecommons.org/ns#"
   xmlns:rdf="http://www.w3.org/1999/02/22-rdf-syntax-ns#"
   xmlns:svg="http://www.w3.org/2000/svg"
   xmlns="http://www.w3.org/2000/svg"
   xmlns:sodipodi="http://sodipodi.sourceforge.net/DTD/sodipodi-0.dtd"
   xmlns:inkscape="http://www.inkscape.org/namespaces/inkscape"
   version="1.1"
   id="Layer_1"
   x="0px"
   y="0px"
   viewBox="0 0 508 508"
   style="enable-background:new 0 0 508 508;"
   xml:space="preserve"
   sodipodi:docname="conference.svg"
   inkscape:version="0.92.4 (5da689c313, 2019-01-14)"><metadata
   id="metadata89"><rdf:RDF><cc:Work
       rdf:about=""><dc:format>image/svg+xml</dc:format><dc:type
         rdf:resource="http://purl.org/dc/dcmitype/StillImage" /></cc:Work></rdf:RDF></metadata><defs
   id="defs87" /><sodipodi:namedview
   pagecolor="#ffffff"
   bordercolor="#666666"
   borderopacity="1"
   objecttolerance="10"
   gridtolerance="10"
   guidetolerance="10"
   inkscape:pageopacity="0"
   inkscape:pageshadow="2"
   inkscape:window-width="640"
   inkscape:window-height="480"
   id="namedview85"
   showgrid="false"
   inkscape:zoom="0.46456693"
   inkscape:cx="183.94141"
   inkscape:cy="231.07595"
   inkscape:window-x="0"
   inkscape:window-y="0"
   inkscape:window-maximized="0"
   inkscape:current-layer="Layer_1" />
<g
   id="g6"
   style="fill:#e6e6e6">
	<circle
   style="fill:#e6e6e6"
   cx="254"
   cy="254"
   r="254"
   id="circle2" />
	<path
   style="fill:#e6e6e6"
   d="M254,216.8l67.6,17.6l4,76l-53.2,98.8L254,422c0,0-70.4-54.4-69.2-62.4c0.8-8-22.8-84.4-17.6-90.8   c5.6-6.4,26-34.4,26-34.4L254,216.8z"
   id="path4" />
</g>
<polygon
   style="fill:#000000"
   points="280.4,402.4 256.4,268.4 280.4,238 227.6,238 251.6,268.4 227.6,402.4 "
   id="polygon8" />
<path
   style="fill:#000000"
   d="M287.6,209.6c0,24.8-15.2,28.4-33.6,28.4s-33.6-3.6-33.6-28.4s15.2-64.4,33.6-64.4  C272.4,145.2,287.6,184.8,287.6,209.6z"
   id="path10" />
<path
   style="fill:#000000"
   d="M109.6,441.6H150c-0.4-40.4,2-74.8,9.2-84.8c20-27.2-1.2-93.6-10.8-93.6s-30.8-13.6-30.8-13.6  s-15.2,140.4-8.8,182.8C108.8,435.2,109.2,438,109.6,441.6z"
   id="path12" />
<path
   style="fill:#333333"
   d="M262,441.6c0-8-0.4-16.4-1.2-25.2c0,0-35.6-82-42.4-214c0,0-11.2,23.2-101.2,47.2  c0,0,38.8,106,40.4,192L262,441.6L262,441.6z"
   id="path14" />
<g
   id="g20"
   style="fill:#000000">
	<path
   style="fill:#000000"
   d="M222.4,196.4c0,0-15.2,15.2-22.4,34.4l9.2,9.6l-16,8.4c0,0,50.8,149.2,68.4,170   C261.6,418.4,210.4,229.2,222.4,196.4z"
   id="path16" />
	<path
   style="fill:#000000"
   d="M358,441.6h40.4c0.4-3.2,0.4-6.4,0.8-9.2c6.4-42-8.8-182.8-8.8-182.8s-21.2,13.6-30.8,13.6   c-9.6,0-30.8,66.8-10.8,93.6C356.4,366.4,358.4,401.2,358,441.6z"
   id="path18" />
</g>
<path
   style="fill:#4d4d4d"
   d="M350,441.6c2-86,40.4-192,40.4-192c-90-24-101.2-47.2-101.2-47.2c-6.8,132-42.4,214-42.4,214  c-0.4,8.4-0.8,16.8-1.2,25.2L350,441.6L350,441.6z"
   id="path22" />
<path
   style="fill:#000000"
   d="M285.6,196.4c0,0,15.2,15.2,22.4,34.4l-9.2,9.6l16,8.4c0,0-50.8,149.2-68.4,170  C246.4,418.4,297.6,229.2,285.6,196.4z"
   id="path24" />
<g
   id="g32"
   style="fill:#000000">
	<ellipse
   style="fill:#000000"
   cx="254"
   cy="138"
   rx="57.6"
   ry="72.4"
   id="ellipse26" />
	
		<ellipse
   transform="matrix(0.3227 -0.9465 0.9465 0.3227 85.0203 385.1597)"
   style="fill:#000000"
   cx="311.633"
   cy="133.174"
   rx="20"
   ry="10.4"
   id="ellipse28" />
	
		<ellipse
   transform="matrix(0.3227 0.9465 -0.9465 0.3227 259.194 -95.3562)"
   style="fill:#000000"
   cx="196.225"
   cy="133.429"
   rx="20"
   ry="10.4"
   id="ellipse30" />
</g>
<path
   style="fill:#000000"
   d="M201.6,148.8C172,86.4,213.2,66,213.2,66L194,77.2C253.2,6,295.6,64.4,295.6,64.4  C336.8,96.4,310,144,310,144s-4.8-34.8-22.4-50.8c0,0-20.8,24-69.6,2c0,0-11.6,17.2-7.2,40.4c0,0-4.8-3.2-6.4-15.2  C204.4,120.4,198.4,136,201.6,148.8L201.6,148.8z"
   id="path34" />
<g
   id="g40">
	<path
   style="fill:#FFFFFF;"
   d="M222.8,196.4c0,0,4.8,28.4,31.2,41.6c0,0-17.6,13.6-21.2,24.8C232.8,262.8,204.4,221.6,222.8,196.4z   "
   id="path36" />
	<path
   style="fill:#FFFFFF;"
   d="M285.2,196.4c0,0-4.8,28.4-31.2,41.6c0,0,17.6,13.6,21.2,24.8C275.2,262.8,303.6,221.6,285.2,196.4z   "
   id="path38" />
</g>
<rect
   x="294"
   y="334"
   style="fill:#ACB3BA;"
   width="55.2"
   height="14"
   id="rect42" />
<polygon
   style="fill:#FF7058;"
   points="325.6,334 314.8,323.2 304,334 "
   id="polygon44" />
<path
   style="fill:#ACB3BA;"
   d="M276.4,441.6c0.8-1.2,1.2-2.8,1.2-4.8c0-5.2-4.4-9.6-9.6-9.6s-9.6,4.4-9.6,9.6c0,1.6,0.4,3.2,1.2,4.8  H276.4z"
   id="path46" />
<path
   style="fill:#e6e6e6"
   d="M81.6,440.4c45.2,42,106,67.6,172.4,67.6s127.2-25.6,172.4-67.6H81.6z"
   id="path48" />
<path
   style="fill:#cccccc"
   d="M358.8,440.8H149.2c-6.4,0-12-4.4-12.8-10.4L117.6,316c-1.2-7.6,3.6-14,11.2-14h250.8  c7.6,0,12.4,6.4,11.2,14L372,430.4C370.8,436,365.2,440.8,358.8,440.8z"
   id="path50" />
<ellipse
   style="fill:#ffffff"
   cx="254"
   cy="371.2"
   rx="34.8"
   ry="15.6"
   id="ellipse52" />
<g
   id="g54">
</g>
<g
   id="g56">
</g>
<g
   id="g58">
</g>
<g
   id="g60">
</g>
<g
   id="g62">
</g>
<g
   id="g64">
</g>
<g
   id="g66">
</g>
<g
   id="g68">
</g>
<g
   id="g70">
</g>
<g
   id="g72">
</g>
<g
   id="g74">
</g>
<g
   id="g76">
</g>
<g
   id="g78">
</g>
<g
   id="g80">
</g>
<g
   id="g82">
</g>
</svg>