<?xml version="1.0" encoding="UTF-8" standalone="no"?>
<svg
   xmlns:dc="http://purl.org/dc/elements/1.1/"
   xmlns:cc="http://creativecommons.org/ns#"
   xmlns:rdf="http://www.w3.org/1999/02/22-rdf-syntax-ns#"
   xmlns:svg="http://www.w3.org/2000/svg"
   xmlns="http://www.w3.org/2000/svg"
   xmlns:sodipodi="http://sodipodi.sourceforge.net/DTD/sodipodi-0.dtd"
   xmlns:inkscape="http://www.inkscape.org/namespaces/inkscape"
   height="496pt"
   viewBox="0 0 496 496"
   width="496pt"
   version="1.1"
   id="svg40"
   sodipodi:docname="consultation.svg"
   inkscape:version="0.92.4 (5da689c313, 2019-01-14)">
  <metadata
     id="metadata46">
    <rdf:RDF>
      <cc:Work
         rdf:about="">
        <dc:format>image/svg+xml</dc:format>
        <dc:type
           rdf:resource="http://purl.org/dc/dcmitype/StillImage" />
      </cc:Work>
    </rdf:RDF>
  </metadata>
  <defs
     id="defs44" />
  <sodipodi:namedview
     pagecolor="#ffffff"
     bordercolor="#666666"
     borderopacity="1"
     objecttolerance="10"
     gridtolerance="10"
     guidetolerance="10"
     inkscape:pageopacity="0"
     inkscape:pageshadow="2"
     inkscape:window-width="1366"
     inkscape:window-height="745"
     id="namedview42"
     showgrid="false"
     inkscape:zoom="1.0093379"
     inkscape:cx="469.01561"
     inkscape:cy="196.52232"
     inkscape:window-x="-8"
     inkscape:window-y="-8"
     inkscape:window-maximized="1"
     inkscape:current-layer="svg40" />
  <path
     d="m200 72v-64h176v64h-72l-48 40v-40zm0 0"
     fill="#e6e9ed"
     id="path2" />
  <path
     d="m304 408v80h-32l-16-32h-128l-16 32h-32v-112h224zm0 0"
     fill="#e6e9ed"
     id="path4" />
  <path
     d="m304 344v32h-224v-32zm0 0"
     fill="#e6e9ed"
     id="path6" />
  <path
     d="m328 312v32h-264v-32zm0 0"
     fill="#aab2bd"
     id="path8"
     style="fill:#333333" />
  <path
     d="m256 456 16 32h-160l16-32zm0 0"
     fill="#838f9b"
     id="path10" />
  <path
     d="m392 408 8 80h-32l-8-80zm0 0"
     fill="#838f9b"
     id="path12" />
  <path
     d="m440 264v96c0 26.480469-21.519531 48-48 48h-88v-32h72c17.679688 0 32-14.320312 32-32v-80zm0 0"
     id="path14"
     fill="#cf9e76"
     style="fill:#333333" />
  <path
     d="m248 129.078125 58.894531-49.078125h77.105469v-80h-192v80h56zm-40-65.078125v-48h160v48h-66.894531l-37.105469 30.921875v-30.921875zm0 0"
     id="path30" />
  <path
     d="m224 32h16v16h-16zm0 0"
     id="path32" />
  <path
     d="m256 32h64v16h-64zm0 0"
     id="path34" />
  <path
     d="m336 32h16v16h-16zm0 0"
     id="path36" />
  <path
     style="stroke-width:1.33333325"
     d="M 234.66602 160 C 199.36914 160 170.66602 188.70313 170.66602 224 L 170.66602 245.33398 C 170.66602 264.22461 178.94271 281.17187 192 292.90625 L 192 311.96875 L 148.27539 324.44727 C 130.05664 329.63997 117.33398 346.51628 117.33398 365.47461 L 117.33398 405.33398 L 74.666016 405.33398 L 74.666016 469.33398 L 96 469.33398 L 96 640 L 0 640 L 0 661.33398 L 661.33398 661.33398 L 661.33398 640 L 542.98438 640 L 534.35938 553.65039 C 569.97394 548.02018 597.33398 517.18229 597.33398 480 L 597.33398 341.33398 L 554.66602 341.33398 L 554.66602 326.59375 C 554.66602 312.09375 546.69727 299.07357 533.88477 292.39648 C 546.62435 280.69336 554.66602 263.95898 554.66602 245.33398 L 554.66602 224 C 554.66602 188.70313 525.96289 160 490.66602 160 C 455.36914 160 426.66602 188.70313 426.66602 224 L 426.66602 245.33398 C 426.66602 272.94857 444.27669 296.45768 468.83398 305.41602 L 411.58398 362.66602 L 351.76562 362.66602 C 350.57294 344.88477 338.35872 329.38542 321.05664 324.4375 L 277.33398 311.95898 L 277.33398 292.90625 C 290.39128 281.18229 298.66602 264.23503 298.66602 245.33398 L 298.66602 224 C 298.66602 188.70313 269.96289 160 234.66602 160 z M 234.66602 181.33398 C 258.19727 181.33398 277.33398 200.46875 277.33398 224 L 277.33398 245.33398 C 277.33398 268.86523 258.19727 288 234.66602 288 C 211.13477 288 192 268.86523 192 245.33398 L 192 224 C 192 200.46875 211.13477 181.33398 234.66602 181.33398 z M 490.66602 181.33398 C 514.19727 181.33398 533.33398 200.46875 533.33398 224 L 533.33398 245.33398 C 533.33398 268.86523 514.19727 288 490.66602 288 C 467.13477 288 448 268.86523 448 245.33398 L 448 224 C 448 200.46875 467.13477 181.33398 490.66602 181.33398 z M 213.33398 305.59961 C 220.02148 307.9694 227.17643 309.33398 234.66602 309.33398 C 242.1556 309.33398 249.3125 307.9694 256 305.59961 L 256 317.05664 C 253.35417 321.13997 246.00456 330.66602 234.66602 330.66602 C 223.32747 330.66602 215.97982 321.13997 213.33398 317.05664 L 213.33398 305.59961 z M 500.04102 309.33398 C 506.63476 309.33398 512 314.69727 512 321.29102 C 512 324.43685 510.72917 327.52083 508.5 329.75 L 432.91602 405.33398 L 320 405.33398 C 314.11458 405.33398 309.33398 400.55143 309.33398 394.66602 C 309.33398 388.7806 314.11458 384 320 384 L 420.41602 384 L 491.58398 312.83398 C 493.81315 310.60482 496.89518 309.33398 500.04102 309.33398 z M 533.02539 324.375 C 533.11914 325.11979 533.33398 325.82292 533.33398 326.59375 L 533.33398 458.66602 C 533.33398 476.30664 518.97461 490.66602 501.33398 490.66602 L 416 490.66602 L 416 469.33398 L 448 469.33398 L 448 420.41602 L 523.58398 344.83398 C 529.04753 339.37044 532.29622 332.03125 533.02539 324.375 z M 271.25586 332.39648 L 315.19727 344.94727 C 323.36914 347.28581 329.06836 354.39062 330.20898 362.65625 L 320 362.65625 C 302.35938 362.65625 288 377.01563 288 394.65625 C 288 398.41146 288.76497 401.97331 289.96289 405.32227 L 138.66602 405.32227 L 138.66602 365.47461 C 138.66602 355.99024 145.03581 347.56315 154.13477 344.95898 L 198.07812 332.40625 C 204.26562 340.46875 216.30664 352 234.66602 352 C 253.02539 352 265.06836 340.4694 271.25586 332.39648 z M 554.66602 362.66602 L 576 362.66602 L 576 480 C 576 509.40625 552.07227 533.33398 522.66602 533.33398 L 416 533.33398 L 416 512 L 501.33398 512 C 530.74023 512 554.66602 488.07227 554.66602 458.66602 L 554.66602 362.66602 z M 96 426.66602 L 426.66602 426.66602 L 426.66602 448 L 96 448 L 96 426.66602 z M 117.33398 469.33398 L 394.66602 469.33398 L 394.66602 490.66602 L 170.66602 490.66602 L 170.66602 512 L 394.66602 512 L 394.66602 640 L 369.25977 640 L 347.92773 597.33398 L 164.07227 597.33398 L 142.74023 640 L 117.33398 640 L 117.33398 512 L 149.33398 512 L 149.33398 490.66602 L 117.33398 490.66602 L 117.33398 469.33398 z M 416 554.66602 L 470.34961 554.66602 L 478.88086 640 L 416 640 L 416 554.66602 z M 491.78711 554.66602 L 513.01562 554.66602 L 521.54688 640 L 500.31836 640 L 491.78711 554.66602 z M 177.25977 618.66602 L 334.74023 618.66602 L 345.40625 640 L 166.59375 640 L 177.25977 618.66602 z "
     id="path38"
     transform="scale(0.75000002)" />
</svg>
