<?xml version="1.0" encoding="UTF-8" standalone="no"?>
<!-- Generator: Adobe Illustrator 19.0.0, SVG Export Plug-In . SVG Version: 6.00 Build 0)  -->

<svg
   xmlns:dc="http://purl.org/dc/elements/1.1/"
   xmlns:cc="http://creativecommons.org/ns#"
   xmlns:rdf="http://www.w3.org/1999/02/22-rdf-syntax-ns#"
   xmlns:svg="http://www.w3.org/2000/svg"
   xmlns="http://www.w3.org/2000/svg"
   xmlns:sodipodi="http://sodipodi.sourceforge.net/DTD/sodipodi-0.dtd"
   xmlns:inkscape="http://www.inkscape.org/namespaces/inkscape"
   version="1.1"
   id="Capa_1"
   x="0px"
   y="0px"
   viewBox="0 0 512 512"
   style="enable-background:new 0 0 512 512;"
   xml:space="preserve"
   sodipodi:docname="design.svg"
   inkscape:version="0.92.4 (5da689c313, 2019-01-14)"><metadata
   id="metadata95"><rdf:RDF><cc:Work
       rdf:about=""><dc:format>image/svg+xml</dc:format><dc:type
         rdf:resource="http://purl.org/dc/dcmitype/StillImage" /></cc:Work></rdf:RDF></metadata><defs
   id="defs93" /><sodipodi:namedview
   pagecolor="#ffffff"
   bordercolor="#666666"
   borderopacity="1"
   objecttolerance="10"
   gridtolerance="10"
   guidetolerance="10"
   inkscape:pageopacity="0"
   inkscape:pageshadow="2"
   inkscape:window-width="1366"
   inkscape:window-height="745"
   id="namedview91"
   showgrid="false"
   inkscape:zoom="0.921875"
   inkscape:cx="351.75957"
   inkscape:cy="247.08377"
   inkscape:window-x="-8"
   inkscape:window-y="-8"
   inkscape:window-maximized="1"
   inkscape:current-layer="Capa_1" />
<rect
   x="8"
   y="56"
   style="fill:#e6e6e6;opacity:0"
   width="496"
   height="400"
   id="rect2" />
<rect
   x="8"
   y="56"
   style="fill:#cccccc"
   width="496"
   height="64"
   id="rect4" />
<path
   style="fill:#808080"
   d="M376,16c0-4.416-3.584-8-8-8H144c-4.416,0-8,3.584-8,8v480c0,4.416,3.584,8,8,8h224  c4.416,0,8-3.584,8-8V16z"
   id="path6" />
<path
   d="M368,512H144c-8.824,0-16-7.176-16-16V16c0-8.824,7.176-16,16-16h224c8.824,0,16,7.176,16,16v480  C384,504.824,376.824,512,368,512z M368,15.992L144,16v480h224V15.992z"
   id="path8" />
<rect
   x="168"
   y="72"
   style="fill:#e6e6e6"
   width="176"
   height="320"
   id="rect10" />
<path
   d="M200,400h-32c-4.416,0-8-3.576-8-8V72c0-4.424,3.584-8,8-8h32v16h-24v304h24V400z"
   id="path12" />
<path
   d="M344,400h-32v-16h24V80h-24V64h32c4.416,0,8,3.576,8,8v320C352,396.424,348.416,400,344,400z"
   id="path14" />
<rect
   x="216"
   y="64"
   width="80"
   height="16"
   id="rect16" />
<circle
   style="fill:#F1D9D0;"
   cx="256"
   cy="448"
   r="24"
   id="circle18" />
<path
   d="M256,480c-17.648,0-32-14.352-32-32s14.352-32,32-32s32,14.352,32,32S273.648,480,256,480z M256,432  c-8.824,0-16,7.176-16,16s7.176,16,16,16s16-7.176,16-16S264.824,432,256,432z"
   id="path20" />
<rect
   x="224"
   y="32"
   width="64"
   height="16"
   id="rect22" />
<rect
   x="216"
   y="384"
   width="80"
   height="16"
   id="rect24" />
<path
   d="M112,64V48H8c-4.416,0-8,3.576-8,8v64v336c0,4.424,3.584,8,8,8h104v-16H16V128h96v-16H16V64H112z"
   id="path26" />
<rect
   x="32"
   y="80"
   width="16"
   height="16"
   id="rect28" />
<rect
   x="64"
   y="80"
   width="16"
   height="16"
   id="rect30" />
<rect
   x="96"
   y="80"
   width="16"
   height="16"
   id="rect32" />
<path
   d="M504,48H400v16h96v48h-96v16h96v320h-96v16h104c4.416,0,8-3.576,8-8V120V56C512,51.576,508.416,48,504,48z"
   id="path34" />
<rect
   x="432"
   y="80"
   width="48"
   height="16"
   id="rect36" />
<rect
   x="200"
   y="224"
   width="32"
   height="16"
   id="rect38" />
<rect
   x="248"
   y="224"
   width="64"
   height="16"
   id="rect40" />
<rect
   x="280"
   y="256"
   width="32"
   height="16"
   id="rect42" />
<rect
   x="200"
   y="256"
   width="64"
   height="16"
   id="rect44" />
<rect
   x="200"
   y="288"
   width="32"
   height="16"
   id="rect46" />
<rect
   x="248"
   y="288"
   width="64"
   height="16"
   id="rect48" />
<rect
   x="280"
   y="320"
   width="32"
   height="16"
   id="rect50" />
<rect
   x="200"
   y="320"
   width="64"
   height="16"
   id="rect52" />
<path
   d="M218.344,189.656l-24-24c-3.128-3.128-3.128-8.184,0-11.312l24-24l11.312,11.312L211.312,160l18.344,18.344L218.344,189.656  z"
   id="path54" />
<path
   d="M293.656,189.656l-11.312-11.312L300.688,160l-18.344-18.344l11.312-11.312l24,24c3.128,3.128,3.128,8.184,0,11.312  L293.656,189.656z"
   id="path56" />
<rect
   x="230.7"
   y="152.019"
   transform="matrix(-0.3164 0.9486 -0.9486 -0.3164 488.7973 -32.1975)"
   width="50.599"
   height="16"
   id="rect58" />
<g
   id="g60">
</g>
<g
   id="g62">
</g>
<g
   id="g64">
</g>
<g
   id="g66">
</g>
<g
   id="g68">
</g>
<g
   id="g70">
</g>
<g
   id="g72">
</g>
<g
   id="g74">
</g>
<g
   id="g76">
</g>
<g
   id="g78">
</g>
<g
   id="g80">
</g>
<g
   id="g82">
</g>
<g
   id="g84">
</g>
<g
   id="g86">
</g>
<g
   id="g88">
</g>
</svg>