<svg height="512" viewBox="0 0 512 512" width="512" xmlns="http://www.w3.org/2000/svg"><g id="Dollar"><path d="m128 8a120 120 0 1 0 120 120 120.136 120.136 0 0 0 -120-120zm0 224a104 104 0 1 1 104-104 104.118 104.118 0 0 1 -104 104z"/><path d="m168 88a8 8 0 0 0 0-16h-32v-8a8 8 0 0 0 -16 0v8h-32a8 8 0 0 0 -8 8v48a8 8 0 0 0 8 8h72v32h-72a8 8 0 0 0 0 16h32v8a8 8 0 0 0 16 0v-8h32a8 8 0 0 0 8-8v-48a8 8 0 0 0 -8-8h-72v-32z"/><path d="m384 264a120 120 0 1 0 120 120 120.136 120.136 0 0 0 -120-120zm0 224a104 104 0 1 1 104-104 104.118 104.118 0 0 1 -104 104z"/><path d="m424 344a8 8 0 0 0 0-16h-32v-8a8 8 0 0 0 -16 0v8h-32a8 8 0 0 0 -8 8v48a8 8 0 0 0 8 8h72v32h-72a8 8 0 0 0 0 16h32v8a8 8 0 0 0 16 0v-8h32a8 8 0 0 0 8-8v-48a8 8 0 0 0 -8-8h-72v-32z"/><path d="m329.775 238.48a8 8 0 0 0 11.313 0l73.26-73.26 43.729 48.158a8 8 0 0 0 13.923-5.419l-.8-159.195a8 8 0 0 0 -7.963-7.96l-153.107-.716h-.038a8 8 0 0 0 -5.714 13.6l42.743 43.628-73.6 73.6a8 8 0 0 0 0 11.313zm34.254-135.451a8 8 0 0 0 .058-11.255l-34.874-35.6 126.023.589.659 130.406-35.345-38.919a8 8 0 0 0 -11.579-.279l-73.539 73.539-44.941-44.942z"/><path d="m181.421 273.608a8 8 0 0 0 -11.313 0l-73.26 73.26-43.729-48.158a8 8 0 0 0 -13.919 5.419l.8 159.2a8 8 0 0 0 7.962 7.959l153.108.712h.038a8 8 0 0 0 5.714-13.6l-42.743-43.628 73.6-73.6a8 8 0 0 0 0-11.313zm-34.254 135.451a8 8 0 0 0 -.058 11.255l34.873 35.6-126.022-.59-.66-130.409 35.345 38.924a8 8 0 0 0 11.579.279l73.54-73.539 44.941 44.941z"/></g></svg>