<?xml version="1.0" encoding="UTF-8" standalone="no"?>
<!-- Generator: Adobe Illustrator 19.0.0, SVG Export Plug-In . SVG Version: 6.00 Build 0)  -->

<svg
   xmlns:dc="http://purl.org/dc/elements/1.1/"
   xmlns:cc="http://creativecommons.org/ns#"
   xmlns:rdf="http://www.w3.org/1999/02/22-rdf-syntax-ns#"
   xmlns:svg="http://www.w3.org/2000/svg"
   xmlns="http://www.w3.org/2000/svg"
   xmlns:sodipodi="http://sodipodi.sourceforge.net/DTD/sodipodi-0.dtd"
   xmlns:inkscape="http://www.inkscape.org/namespaces/inkscape"
   version="1.1"
   id="Capa_1"
   x="0px"
   y="0px"
   viewBox="0 0 512 512"
   style="enable-background:new 0 0 512 512;"
   xml:space="preserve"
   sodipodi:docname="drone.svg"
   inkscape:version="0.92.4 (5da689c313, 2019-01-14)"><metadata
   id="metadata85"><rdf:RDF><cc:Work
       rdf:about=""><dc:format>image/svg+xml</dc:format><dc:type
         rdf:resource="http://purl.org/dc/dcmitype/StillImage" /></cc:Work></rdf:RDF></metadata><defs
   id="defs83" /><sodipodi:namedview
   pagecolor="#ffffff"
   bordercolor="#666666"
   borderopacity="1"
   objecttolerance="10"
   gridtolerance="10"
   guidetolerance="10"
   inkscape:pageopacity="0"
   inkscape:pageshadow="2"
   inkscape:window-width="1366"
   inkscape:window-height="745"
   id="namedview81"
   showgrid="false"
   inkscape:zoom="1.3037281"
   inkscape:cx="237.68935"
   inkscape:cy="242.53051"
   inkscape:window-x="-8"
   inkscape:window-y="-8"
   inkscape:window-maximized="1"
   inkscape:current-layer="Capa_1" />
<g
   id="g6"
   transform="translate(-8.0538264,-40.652648)">
	<g
   id="g4">
		<path
   d="m 343.028,190.794 -9.068,-12.306 c -2.387,-3.239 -6.95,-3.929 -10.189,-1.544 -3.24,2.388 -3.931,6.95 -1.544,10.189 l 9.068,12.306 c 1.429,1.938 3.636,2.965 5.872,2.965 1.501,0 3.016,-0.463 4.317,-1.421 3.24,-2.388 3.931,-6.949 1.544,-10.189 z"
   id="path2"
   inkscape:connector-curvature="0" />
	</g>
</g>
<g
   id="g12"
   transform="translate(-5.3692176,-40.46089)">
	<g
   id="g10">
		<path
   d="m 367.555,190.794 -9.067,-12.306 c -2.387,-3.239 -6.947,-3.929 -10.189,-1.544 -3.239,2.387 -3.931,6.949 -1.544,10.189 l 9.067,12.306 c 1.429,1.938 3.636,2.965 5.872,2.965 1.501,0 3.015,-0.463 4.317,-1.421 3.239,-2.387 3.931,-6.949 1.544,-10.189 z"
   id="path8"
   inkscape:connector-curvature="0" />
	</g>
</g>
<g
   id="g18"
   transform="translate(5.3692176,0.76703109)">
	<g
   id="g16">
		<path
   d="m 302.70831,150.65841 -9.068,-12.306 c -2.388,-3.239 -6.95,-3.929 -10.189,-1.544 -3.24,2.388 -3.931,6.95 -1.544,10.189 l 9.068,12.306 c 1.429,1.938 3.636,2.965 5.872,2.965 1.501,0 3.016,-0.463 4.317,-1.421 3.24,-2.388 3.931,-6.949 1.544,-10.189 z"
   id="path14"
   inkscape:connector-curvature="0" />
	</g>
</g>
<g
   id="g24"
   transform="translate(1.6271186,-38.508475)">
	<g
   id="g22">
		<path
   d="m 188.229,176.945 c -3.238,-2.385 -7.8,-1.695 -10.189,1.544 l -9.068,12.305 c -2.387,3.239 -1.696,7.801 1.544,10.189 1.301,0.958 2.816,1.421 4.317,1.421 2.236,0 4.443,-1.027 5.872,-2.965 l 9.068,-12.306 c 2.386,-3.238 1.696,-7.8 -1.544,-10.188 z"
   id="path20"
   inkscape:connector-curvature="0" />
	</g>
</g>
<g
   id="g30"
   transform="translate(-1.9175778,-36.625735)">
	<g
   id="g28">
		<path
   d="m 163.701,176.945 c -3.24,-2.385 -7.801,-1.695 -10.189,1.544 l -9.067,12.305 c -2.387,3.24 -1.695,7.802 1.544,10.189 1.302,0.958 2.816,1.421 4.317,1.421 2.236,0 4.443,-1.027 5.872,-2.965 l 9.067,-12.306 c 2.387,-3.24 1.695,-7.802 -1.544,-10.188 z"
   id="path26"
   inkscape:connector-curvature="0" />
	</g>
</g>
<g
   id="g36"
   transform="translate(3.2542373,-37.966102)">
	<g
   id="g34">
		<path
   d="m 214.447,176.945 c -3.238,-2.385 -7.801,-1.695 -10.189,1.544 l -9.068,12.305 c -2.387,3.239 -1.696,7.801 1.544,10.189 1.301,0.958 2.816,1.421 4.317,1.421 2.236,0 4.443,-1.027 5.872,-2.965 l 9.068,-12.306 c 2.387,-3.238 1.696,-7.8 -1.544,-10.188 z"
   id="path32"
   inkscape:connector-curvature="0" />
	</g>
</g>
<g
   id="g42"
   transform="matrix(1.1503835,0,0,1.1315856,-41.566303,9.9289397)">
	<g
   id="g40">
		<path
   d="m 256,297.609 c -11.25,0 -20.402,9.153 -20.402,20.402 0,11.249 9.152,20.402 20.402,20.402 11.25,0 20.402,-9.153 20.402,-20.402 0,-11.25 -9.153,-20.402 -20.402,-20.402 z m 0,26.231 c -3.214,0 -5.829,-2.615 -5.829,-5.829 0,-3.214 2.615,-5.829 5.829,-5.829 3.214,0 5.829,2.615 5.829,5.829 0,3.214 -2.615,5.829 -5.829,5.829 z"
   id="path38"
   inkscape:connector-curvature="0" />
	</g>
</g>
<g
   id="g48"
   transform="matrix(1.0059924,0,0,1.5565805,-1.4081053,-125.02805)">
	<g
   id="g46">
		<path
   d="m 494.512,164.294 c 9.642,0 17.488,-7.845 17.488,-17.488 0,-9.643 -7.845,-17.488 -17.488,-17.488 h -54.801 c -9.642,0 -17.488,7.845 -17.488,17.488 0,9.643 7.845,17.488 17.488,17.488 h 20.114 v 4.898 H 426.541 L 309.292,130.311 c -5.139,-1.706 -10.493,-2.57 -15.913,-2.57 H 218.62 c -5.418,0 -10.771,0.864 -15.911,2.569 L 85.459,169.192 H 52.175 v -4.898 h 20.114 c 9.642,0 17.488,-7.845 17.488,-17.488 0,-9.643 -7.845,-17.488 -17.488,-17.488 H 17.488 C 7.845,129.32 0,137.164 0,146.807 c 0,9.643 7.845,17.488 17.488,17.488 h 20.114 v 4.898 h -5.15 c -11.75,0 -21.308,9.559 -21.308,21.308 v 10.907 c 0,13.666 11.118,24.784 24.784,24.784 h 75.754 v 45.717 c 0,4.025 3.262,7.287 7.287,7.287 4.025,0 7.287,-3.262 7.287,-7.287 v -45.717 h 12.915 l -8.547,143.494 h -2.394 c -1.088,0 -1.973,-0.885 -1.973,-1.973 v -58.64 c 0,-4.025 -3.262,-7.287 -7.287,-7.287 -4.025,0 -7.287,3.262 -7.287,7.287 v 58.64 c 0,9.123 7.423,16.546 16.546,16.546 h 9.259 c 3.856,0 7.045,-3.004 7.273,-6.853 l 9.007,-151.214 h 4.861 c 3.646,0 6.866,2.193 8.203,5.584 3.545,9.002 12.087,14.818 21.763,14.818 h 12.514 v 2.365 c 0,11.742 9.552,21.294 21.294,21.294 h 4.128 v 10.677 h -5.663 c -7.503,0 -13.606,6.103 -13.606,13.606 v 46.949 c 0,7.503 6.103,13.606 13.606,13.606 h 70.266 c 7.503,0 13.606,-6.103 13.606,-13.606 v -46.949 c 0,-7.503 -6.103,-13.606 -13.606,-13.606 h -5.663 v -10.677 h 4.128 c 11.742,0 21.294,-9.552 21.294,-21.294 v -2.365 h 12.514 c 9.676,0 18.218,-5.816 21.762,-14.817 1.338,-3.393 4.558,-5.585 8.204,-5.585 h 4.861 l 9.007,151.214 c 0.229,3.849 3.417,6.853 7.273,6.853 h 9.259 c 9.123,0 16.546,-7.423 16.546,-16.546 v -58.44 c 0,-4.025 -3.262,-7.287 -7.287,-7.287 -4.025,0 -7.287,3.262 -7.287,7.287 v 58.44 c 0,1.088 -0.885,1.973 -1.973,1.973 h -2.394 l -8.547,-143.494 h 12.915 v 45.717 c 0,4.025 3.262,7.287 7.287,7.287 4.025,0 7.287,-3.262 7.287,-7.287 v -45.717 h 75.754 c 13.666,0 24.784,-11.118 24.784,-24.784 V 190.5 c 0,-11.75 -9.559,-21.308 -21.308,-21.308 h -5.15 v -4.898 z M 17.488,149.721 c -1.607,0 -2.915,-1.307 -2.915,-2.915 0,-1.608 1.307,-2.915 2.915,-2.915 h 54.801 c 1.607,0 2.915,1.307 2.915,2.915 0,1.608 -1.307,2.915 -2.915,2.915 z m 272.678,145.782 v 45.015 H 221.834 V 295.503 Z M 241.103,280.93 v -10.677 h 29.793 v 10.677 z m 55.217,-31.972 v 0 c -10e-4,3.706 -3.016,6.721 -6.722,6.721 h -67.195 c -3.706,0 -6.721,-3.015 -6.721,-6.721 v -2.365 h 80.638 z m 183.228,-65.192 c 3.713,0 6.735,3.022 6.735,6.735 v 10.907 c 0,5.63 -4.581,10.211 -10.211,10.211 h -122.7 c -9.674,0 -18.215,5.816 -21.763,14.818 -1.336,3.393 -4.556,5.584 -8.203,5.584 H 188.594 c -3.647,0 -6.867,-2.192 -8.204,-5.585 -3.546,-9.001 -12.088,-14.817 -21.762,-14.817 H 35.927 c -5.63,0 -10.211,-4.581 -10.211,-10.211 V 190.5 c 0,-3.713 3.022,-6.735 6.735,-6.735 h 54.183 c 0.779,0 1.554,-0.125 2.293,-0.37 l 118.368,-39.253 c 3.657,-1.213 7.468,-1.828 11.324,-1.828 h 74.761 c 3.857,0 7.666,0.615 11.324,1.829 l 118.367,39.252 c 0.739,0.245 1.514,0.37 2.293,0.37 h 54.184 z m -39.836,-34.045 c -1.607,0 -2.915,-1.307 -2.915,-2.915 0,-1.608 1.307,-2.915 2.915,-2.915 h 54.801 c 1.607,0 2.915,1.307 2.915,2.915 0,1.608 -1.307,2.915 -2.915,2.915 z"
   id="path44"
   inkscape:connector-curvature="0" />
	</g>
</g>
<g
   id="g50">
</g>
<g
   id="g52">
</g>
<g
   id="g54">
</g>
<g
   id="g56">
</g>
<g
   id="g58">
</g>
<g
   id="g60">
</g>
<g
   id="g62">
</g>
<g
   id="g64">
</g>
<g
   id="g66">
</g>
<g
   id="g68">
</g>
<g
   id="g70">
</g>
<g
   id="g72">
</g>
<g
   id="g74">
</g>
<g
   id="g76">
</g>
<g
   id="g78">
</g>
</svg>