<?xml version="1.0" encoding="UTF-8" standalone="no"?>
<svg
   xmlns:dc="http://purl.org/dc/elements/1.1/"
   xmlns:cc="http://creativecommons.org/ns#"
   xmlns:rdf="http://www.w3.org/1999/02/22-rdf-syntax-ns#"
   xmlns:svg="http://www.w3.org/2000/svg"
   xmlns="http://www.w3.org/2000/svg"
   xmlns:sodipodi="http://sodipodi.sourceforge.net/DTD/sodipodi-0.dtd"
   xmlns:inkscape="http://www.inkscape.org/namespaces/inkscape"
   height="512pt"
   viewBox="0 0 512 512"
   width="512pt"
   version="1.1"
   id="svg24"
   sodipodi:docname="for-sale2.svg"
   inkscape:version="0.92.4 (5da689c313, 2019-01-14)">
  <metadata
     id="metadata30">
    <rdf:RDF>
      <cc:Work
         rdf:about="">
        <dc:format>image/svg+xml</dc:format>
        <dc:type
           rdf:resource="http://purl.org/dc/dcmitype/StillImage" />
      </cc:Work>
    </rdf:RDF>
  </metadata>
  <defs
     id="defs28" />
  <sodipodi:namedview
     pagecolor="#ffffff"
     bordercolor="#666666"
     borderopacity="1"
     objecttolerance="10"
     gridtolerance="10"
     guidetolerance="10"
     inkscape:pageopacity="0"
     inkscape:pageshadow="2"
     inkscape:window-width="1366"
     inkscape:window-height="745"
     id="namedview26"
     showgrid="false"
     inkscape:zoom="0.34570313"
     inkscape:cx="341.33333"
     inkscape:cy="341.33333"
     inkscape:window-x="-8"
     inkscape:window-y="-8"
     inkscape:window-maximized="1"
     inkscape:current-layer="svg24" />
  <g
     id="g24"
     transform="matrix(0.85169491,0,0,0.9279661,39.050847,36.881355)">
    <path
       id="path6"
       d="M 480,298.66797 H 32 c -17.644531,0 -32,-14.35938 -32,-32 V 96 C 0,78.355469 14.355469,64 32,64 h 448 c 17.64453,0 32,14.355469 32,32 v 170.66797 c 0,17.64062 -14.35547,32 -32,32 z M 32,85.332031 c -5.867188,0 -10.667969,4.800781 -10.667969,10.667969 v 170.66797 c 0,5.86719 4.800781,10.66406 10.667969,10.66406 h 448 c 5.86719,0 10.66797,-4.79687 10.66797,-10.66406 V 96 c 0,-5.867188 -4.80078,-10.667969 -10.66797,-10.667969 z m 0,0"
       inkscape:connector-curvature="0" />
    <path
       id="path8"
       d="M 309.33203,512 H 202.66797 C 196.77734,512 192,507.22266 192,501.33203 V 288 c 0,-5.88672 4.77734,-10.66797 10.66797,-10.66797 5.88672,0 10.66406,4.78125 10.66406,10.66797 v 202.66797 h 85.33594 V 288 c 0,-5.88672 4.77734,-10.66797 10.66406,-10.66797 C 315.22266,277.33203 320,282.11328 320,288 V 501.33203 C 320,507.22266 315.22266,512 309.33203,512 Z m 0,0"
       inkscape:connector-curvature="0" />
    <path
       id="path10"
       d="m 309.33203,85.332031 c -5.88672,0 -10.66406,-4.777343 -10.66406,-10.664062 V 21.332031 h -85.33594 v 53.335938 c 0,5.886719 -4.77734,10.664062 -10.66406,10.664062 C 196.77734,85.332031 192,80.554688 192,74.667969 v -64 C 192,4.777344 196.77734,0 202.66797,0 H 309.33203 C 315.22266,0 320,4.777344 320,10.667969 v 64 c 0,5.886719 -4.77734,10.664062 -10.66797,10.664062 z m 0,0"
       inkscape:connector-curvature="0" />
    <path
       id="path12"
       d="m 458.66797,256 h -64 C 388.77734,256 384,251.22266 384,245.33203 v -128 c 0,-5.88672 4.77734,-10.66406 10.66797,-10.66406 h 64 c 5.88672,0 10.66406,4.77734 10.66406,10.66406 0,5.89063 -4.77734,10.66797 -10.66406,10.66797 h -53.33594 v 106.66797 h 53.33594 c 5.88672,0 10.66406,4.77734 10.66406,10.66406 0,5.89063 -4.77734,10.66797 -10.66406,10.66797 z m 0,0"
       inkscape:connector-curvature="0" />
    <path
       id="path14"
       d="M 437.33203,192 H 394.66797 C 388.77734,192 384,187.22266 384,181.33203 c 0,-5.88672 4.77734,-10.66406 10.66797,-10.66406 h 42.66406 c 5.89063,0 10.66797,4.77734 10.66797,10.66406 C 448,187.22266 443.22266,192 437.33203,192 Z m 0,0"
       inkscape:connector-curvature="0" />
    <path
       id="path16"
       d="m 352,256 h -64 c -5.88672,0 -10.66797,-4.77734 -10.66797,-10.66797 v -128 c 0,-5.88672 4.78125,-10.66406 10.66797,-10.66406 5.88672,0 10.66797,4.77734 10.66797,10.66406 V 234.66797 H 352 c 5.88672,0 10.66797,4.77734 10.66797,10.66406 C 362.66797,251.22266 357.88672,256 352,256 Z m 0,0"
       inkscape:connector-curvature="0" />
    <path
       id="path18"
       d="m 85.3125,256 c -22.484375,0 -41.214844,-17.55859 -42.625,-39.95703 -0.382812,-5.86719 4.074219,-10.94531 9.984375,-11.3086 6.527344,-0.125 10.945313,4.11719 11.308594,9.96485 0.703125,11.19922 10.089843,19.96875 21.332031,19.96875 11.777344,0 21.35547,-9.5586 21.35547,-21.33594 0,-11.19922 -6.46484,-17.36328 -22.273439,-21.24609 -0.01953,0 -3.15625,-0.8125 -3.15625,-0.8125 -31.894531,-7.8086 -38.570312,-27.11328 -38.570312,-41.94141 0,-23.53125 19.132812,-42.66406 42.6875,-42.66406 22.484371,0 41.214841,17.53516 42.625001,39.93359 0.38281,5.86719 -4.07813,10.94531 -9.98438,11.32813 -5.78125,0.23437 -10.94531,-4.07422 -11.30859,-9.96094 C 105.98438,136.76953 96.597656,128 85.355469,128 73.578125,128 64,137.57812 64,149.33203 c 0,11.20313 6.464844,17.34375 22.316406,21.25 l 3.132813,0.80859 C 121.32422,179.17969 128,198.50781 128,213.33203 128,236.86328 108.86328,256 85.3125,256 Z m 0,0"
       inkscape:connector-curvature="0" />
    <path
       id="path20"
       d="m 245.33203,256 c -4.45703,0 -8.61719,-2.81641 -10.13281,-7.29688 l -32.53125,-97.64062 -32.53516,97.64062 c -1.875,5.61329 -7.89453,8.6211 -13.5039,6.74219 -5.58985,-1.85547 -8.59766,-7.89453 -6.74219,-13.48437 l 42.66797,-128 c 2.92187,-8.70313 17.32422,-8.70313 20.24609,0 l 42.66406,128 c 1.85938,5.58984 -1.17187,11.6289 -6.73828,13.48437 C 247.57422,255.82812 246.46484,256 245.33203,256 Z m 0,0"
       inkscape:connector-curvature="0" />
    <path
       id="path22"
       d="m 224,213.33203 h -42.66797 c -5.88672,0 -10.66406,-4.77734 -10.66406,-10.66406 0,-5.89063 4.77734,-10.66797 10.66406,-10.66797 H 224 c 5.88672,0 10.66797,4.77734 10.66797,10.66797 0,5.88672 -4.78125,10.66406 -10.66797,10.66406 z m 0,0"
       inkscape:connector-curvature="0" />
  </g>
</svg>
