<?xml version="1.0" encoding="UTF-8" standalone="no"?>
<!-- Generator: Adobe Illustrator 19.0.0, SVG Export Plug-In . SVG Version: 6.00 Build 0)  -->

<svg
   xmlns:dc="http://purl.org/dc/elements/1.1/"
   xmlns:cc="http://creativecommons.org/ns#"
   xmlns:rdf="http://www.w3.org/1999/02/22-rdf-syntax-ns#"
   xmlns:svg="http://www.w3.org/2000/svg"
   xmlns="http://www.w3.org/2000/svg"
   xmlns:sodipodi="http://sodipodi.sourceforge.net/DTD/sodipodi-0.dtd"
   xmlns:inkscape="http://www.inkscape.org/namespaces/inkscape"
   version="1.1"
   id="Capa_1"
   x="0px"
   y="0px"
   viewBox="0 0 512.081 512.081"
   style="enable-background:new 0 0 512.081 512.081;"
   xml:space="preserve"
   sodipodi:docname="gear.svg"
   inkscape:version="0.92.4 (5da689c313, 2019-01-14)"><metadata
   id="metadata55"><rdf:RDF><cc:Work
       rdf:about=""><dc:format>image/svg+xml</dc:format><dc:type
         rdf:resource="http://purl.org/dc/dcmitype/StillImage" /></cc:Work></rdf:RDF></metadata><defs
   id="defs53" /><sodipodi:namedview
   pagecolor="#ffffff"
   bordercolor="#666666"
   borderopacity="1"
   objecttolerance="10"
   gridtolerance="10"
   guidetolerance="10"
   inkscape:pageopacity="0"
   inkscape:pageshadow="2"
   inkscape:window-width="640"
   inkscape:window-height="480"
   id="namedview51"
   showgrid="false"
   inkscape:zoom="0.4608646"
   inkscape:cx="256.0405"
   inkscape:cy="256.0405"
   inkscape:window-x="0"
   inkscape:window-y="0"
   inkscape:window-maximized="0"
   inkscape:current-layer="Capa_1" />

<circle
   style="fill:#FAFAFA;"
   cx="320.081"
   cy="240.041"
   r="64"
   id="circle8" />

<path
   d="M96.081,128.041c-35.346,0-64-28.654-64-64s28.654-64,64-64s64,28.654,64,64S131.428,128.041,96.081,128.041z   M96.081,32.041c-17.673,0-32,14.327-32,32s14.327,32,32,32s32-14.327,32-32S113.755,32.041,96.081,32.041z"
   id="path12" />
<path
   d="M113.617,512.041h-35.2c-16.422-0.016-30.166-12.46-31.808-28.8l-12.992-131.2H16.081  c-8.836,0.044-16.036-7.083-16.08-15.92c-0.003-0.561,0.024-1.122,0.08-1.68l14.656-145.6c1.642-16.34,15.386-28.784,31.808-28.8  h17.536c4.246-0.008,8.322,1.673,11.328,4.672l20.672,20.704l20.672-20.672c3.001-3.011,7.077-4.703,11.328-4.704h17.536  c16.422,0.016,30.166,12.46,31.808,28.8l14.656,145.6c0.884,8.792-5.527,16.636-14.32,17.52c-0.558,0.056-1.119,0.083-1.68,0.08  h-17.536l-13.12,131.2C143.783,499.58,130.039,512.024,113.617,512.041z M33.617,320.04h14.464c8.248-0.041,15.175,6.194,16,14.4  l14.464,145.6h35.2l14.336-145.6c0.825-8.206,7.752-14.441,16-14.4h14.304l-12.8-128h-10.88l-27.328,27.328  c-6.248,6.246-16.376,6.246-22.624,0l-27.296-27.328H46.545L33.617,320.04z"
   id="path14" />
<path
   d="M259.921,424.361c-2.785,0.007-5.523-0.721-7.936-2.112l-41.952-24c-7.67-4.418-10.306-14.218-5.888-21.888  s14.218-10.306,21.888-5.888l28.096,16l17.952-31.232c3.693-6.414,11.303-9.457,18.4-7.36c19.427,5.497,39.997,5.497,59.424,0  c7.097-2.097,14.707,0.946,18.4,7.36l17.952,31.232l27.936-16l-17.984-31.232c-3.625-6.322-2.52-14.294,2.688-19.392  c14.437-14.178,24.689-32.059,29.632-51.68c1.765-7.079,8.096-12.068,15.392-12.128h36.16v-32h-36.16  c-7.313-0.009-13.689-4.976-15.488-12.064c-4.943-19.621-15.195-37.502-29.632-51.68c-5.208-5.098-6.313-13.07-2.688-19.392  l17.984-31.232l-27.936-16l-18.08,31.168c-3.693,6.414-11.303,9.457-18.4,7.36c-19.427-5.497-39.997-5.497-59.424,0  c-7.028,1.982-14.507-1.046-18.176-7.36l-17.952-31.232l-27.936,16l17.984,31.232c3.558,6.248,2.51,14.102-2.56,19.2  c-3.52,3.552-6.784,7.36-10.016,11.2c-5.533,6.89-15.604,7.99-22.494,2.456c-6.89-5.533-7.99-15.604-2.456-22.494  c0.183-0.227,0.371-0.45,0.566-0.667l3.36-3.968l-20.224-34.88c-4.403-7.662-1.761-17.442,5.9-21.845  c0.007-0.004,0.013-0.008,0.02-0.011l55.68-32c3.699-2.074,8.056-2.635,12.16-1.568c4.062,1.133,7.512,3.824,9.6,7.488l19.936,34.72  c17.407-3.248,35.265-3.248,52.672,0l19.936-34.72c2.088-3.664,5.538-6.355,9.6-7.488c4.103-1.085,8.467-0.522,12.16,1.568l55.68,32  c7.668,4.392,10.323,14.168,5.931,21.836c-0.004,0.007-0.008,0.013-0.011,0.02l-20.064,34.88  c11.499,13.393,20.398,28.814,26.24,45.472h40.288c8.837,0,16,7.163,16,16v64c0,8.837-7.163,16-16,16h-40.288  c-5.784,16.643-14.617,32.063-26.048,45.472l20.064,34.88c4.403,7.662,1.761,17.442-5.9,21.845c-0.007,0.004-0.013,0.008-0.02,0.011  l-55.68,32c-7.662,4.403-17.442,1.761-21.845-5.9c-0.004-0.007-0.008-0.013-0.011-0.02l-19.936-34.72  c-17.407,3.248-35.265,3.248-52.672,0l-19.936,34.72C270.954,421.301,265.656,424.365,259.921,424.361z"
   id="path16" />
<path
   d="M320.081,304.04c-35.346,0-64-28.654-64-64s28.654-64,64-64s64,28.654,64,64S355.428,304.04,320.081,304.04z   M320.081,208.041c-17.673,0-32,14.327-32,32s14.327,32,32,32s32-14.327,32-32S337.755,208.041,320.081,208.041z"
   id="path18" />
<g
   id="g20">
</g>
<g
   id="g22">
</g>
<g
   id="g24">
</g>
<g
   id="g26">
</g>
<g
   id="g28">
</g>
<g
   id="g30">
</g>
<g
   id="g32">
</g>
<g
   id="g34">
</g>
<g
   id="g36">
</g>
<g
   id="g38">
</g>
<g
   id="g40">
</g>
<g
   id="g42">
</g>
<g
   id="g44">
</g>
<g
   id="g46">
</g>
<g
   id="g48">
</g>
</svg>