<?xml version="1.0" encoding="UTF-8" standalone="no"?>
<!-- Generator: Adobe Illustrator 22.1.0, SVG Export Plug-In . SVG Version: 6.00 Build 0)  -->

<svg
   xmlns:dc="http://purl.org/dc/elements/1.1/"
   xmlns:cc="http://creativecommons.org/ns#"
   xmlns:rdf="http://www.w3.org/1999/02/22-rdf-syntax-ns#"
   xmlns:svg="http://www.w3.org/2000/svg"
   xmlns="http://www.w3.org/2000/svg"
   xmlns:sodipodi="http://sodipodi.sourceforge.net/DTD/sodipodi-0.dtd"
   xmlns:inkscape="http://www.inkscape.org/namespaces/inkscape"
   version="1.1"
   id="Layer_3"
   x="0px"
   y="0px"
   viewBox="0 0 64 64"
   style="enable-background:new 0 0 64 64;"
   xml:space="preserve"
   width="512"
   height="512"
   sodipodi:docname="id-card.svg"
   inkscape:version="0.92.4 (5da689c313, 2019-01-14)"><metadata
   id="metadata27"><rdf:RDF><cc:Work
       rdf:about=""><dc:format>image/svg+xml</dc:format><dc:type
         rdf:resource="http://purl.org/dc/dcmitype/StillImage" /></cc:Work></rdf:RDF></metadata><defs
   id="defs25" /><sodipodi:namedview
   pagecolor="#ffffff"
   bordercolor="#666666"
   borderopacity="1"
   objecttolerance="10"
   gridtolerance="10"
   guidetolerance="10"
   inkscape:pageopacity="0"
   inkscape:pageshadow="2"
   inkscape:window-width="640"
   inkscape:window-height="480"
   id="namedview23"
   showgrid="false"
   inkscape:zoom="0.4609375"
   inkscape:cx="256"
   inkscape:cy="256"
   inkscape:window-x="0"
   inkscape:window-y="0"
   inkscape:window-maximized="0"
   inkscape:current-layer="Layer_3" />
<g
   id="g20"
   style="fill:#000000">
	<path
   d="M62,21h-5v-4c0.498,0,0.919-0.366,0.99-0.858l2-14c0.041-0.287-0.044-0.578-0.234-0.797S59.29,1,59,1H49   c-0.29,0-0.565,0.126-0.755,0.345s-0.275,0.51-0.234,0.797l2,14C50.081,16.634,50.502,17,51,17v4H2c-0.552,0-1,0.447-1,1v40   c0,0.553,0.448,1,1,1h60c0.552,0,1-0.447,1-1V22C63,21.447,62.552,21,62,21z M57.561,5H55V3h2.847L57.561,5z M53,3v2h-2.561   l-0.286-2H53z M50.724,7h6.551l-1.143,8H56h-1v-2h-2v2h-1h-0.133L50.724,7z M55,17v5c0,0.552-0.449,1-1,1s-1-0.448-1-1v-5H55z    M51.184,23c0.414,1.161,1.514,2,2.816,2s2.402-0.839,2.816-2H61v4H3v-4H51.184z M3,61V29h58v32H3z"
   id="path2"
   style="fill:#000000" />
	<path
   d="M30,31H6c-0.552,0-1,0.447-1,1v26c0,0.553,0.448,1,1,1h4h16h4c0.552,0,1-0.447,1-1V32C31,31.447,30.552,31,30,31z M11,57   v-3c0-3.859,3.14-7,7-7s7,3.141,7,7v3H11z M14,41c0-2.206,1.794-4,4-4s4,1.794,4,4s-1.794,4-4,4S14,43.206,14,41z M29,57h-2v-3   c0-3.672-2.214-6.833-5.374-8.231C23.065,44.672,24,42.945,24,41c0-3.309-2.691-6-6-6s-6,2.691-6,6   c0,1.945,0.935,3.672,2.374,4.769C11.214,47.167,9,50.328,9,54v3H7V33h22V57z"
   id="path4"
   style="fill:#000000" />
	<path
   d="M56,45h-2v2c-1.654,0-3,1.346-3,3s1.346,3,3,3h2c0.551,0,1,0.448,1,1s-0.449,1-1,1h-5v2h3v2h2v-2c1.654,0,3-1.346,3-3   s-1.346-3-3-3h-2c-0.551,0-1-0.448-1-1s0.449-1,1-1h5v-2h-3V45z"
   id="path6"
   style="fill:#000000" />
	<path
   d="M55,31c-0.705,0-1.393,0.19-2,0.546C52.393,31.19,51.705,31,51,31c-2.206,0-4,1.794-4,4s1.794,4,4,4   c0.705,0,1.393-0.19,2-0.546C53.607,38.81,54.295,39,55,39c2.206,0,4-1.794,4-4S57.206,31,55,31z M55,37   c-0.621,0-1.066-0.283-1.331-0.521c-0.19-0.171-0.43-0.257-0.669-0.257s-0.479,0.086-0.669,0.257C52.066,36.717,51.621,37,51,37   c-1.103,0-2-0.897-2-2s0.897-2,2-2c0.621,0,1.066,0.283,1.331,0.521c0.38,0.342,0.958,0.342,1.338,0C53.934,33.283,54.379,33,55,33   c1.103,0,2,0.897,2,2S56.103,37,55,37z"
   id="path8"
   style="fill:#000000" />
	<rect
   x="47"
   y="41"
   width="12"
   height="2"
   id="rect10"
   style="fill:#000000" />
	<rect
   x="33"
   y="31"
   width="12"
   height="2"
   id="rect12"
   style="fill:#000000" />
	<rect
   x="33"
   y="35"
   width="12"
   height="2"
   id="rect14"
   style="fill:#000000" />
	<rect
   x="33"
   y="39"
   width="12"
   height="2"
   id="rect16"
   style="fill:#000000" />
	<rect
   x="33"
   y="57"
   width="16"
   height="2"
   id="rect18"
   style="fill:#000000" />
</g>
</svg>