<?xml version="1.0" encoding="UTF-8" standalone="no"?>
<!-- Generator: Adobe Illustrator 19.0.0, SVG Export Plug-In . SVG Version: 6.00 Build 0)  -->

<svg
   xmlns:dc="http://purl.org/dc/elements/1.1/"
   xmlns:cc="http://creativecommons.org/ns#"
   xmlns:rdf="http://www.w3.org/1999/02/22-rdf-syntax-ns#"
   xmlns:svg="http://www.w3.org/2000/svg"
   xmlns="http://www.w3.org/2000/svg"
   xmlns:sodipodi="http://sodipodi.sourceforge.net/DTD/sodipodi-0.dtd"
   xmlns:inkscape="http://www.inkscape.org/namespaces/inkscape"
   version="1.1"
   id="Capa_1"
   x="0px"
   y="0px"
   viewBox="0 0 512.001 512.001"
   style="enable-background:new 0 0 512.001 512.001;"
   xml:space="preserve"
   sodipodi:docname="in-love2.svg"
   inkscape:version="0.92.4 (5da689c313, 2019-01-14)"><metadata
   id="metadata65"><rdf:RDF><cc:Work
       rdf:about=""><dc:format>image/svg+xml</dc:format><dc:type
         rdf:resource="http://purl.org/dc/dcmitype/StillImage" /></cc:Work></rdf:RDF></metadata><defs
   id="defs63" /><sodipodi:namedview
   pagecolor="#ffffff"
   bordercolor="#666666"
   borderopacity="1"
   objecttolerance="10"
   gridtolerance="10"
   guidetolerance="10"
   inkscape:pageopacity="0"
   inkscape:pageshadow="2"
   inkscape:window-width="1366"
   inkscape:window-height="745"
   id="namedview61"
   showgrid="false"
   inkscape:zoom="0.46093662"
   inkscape:cx="42.537995"
   inkscape:cy="46.671778"
   inkscape:window-x="-8"
   inkscape:window-y="-8"
   inkscape:window-maximized="1"
   inkscape:current-layer="Capa_1" />
<ellipse
   style="fill:#999999;stroke-width:0.87311858"
   cx="254.37289"
   cy="276.75247"
   id="circle2"
   rx="210.84171"
   ry="218.97731" />
<path
   style="fill:#999999;stroke-width:0.84267467"
   d="m 466.29932,259.98862 c 0,108.67133 -97.91626,196.69024 -218.64835,196.69024 -68.73186,0 -130.10012,-28.51695 -170.201996,-73.21056 37.514656,27.28932 85.278696,43.58106 137.264716,43.58106 120.7321,0 218.64835,-88.01891 218.64835,-196.69024 0,-46.77803 -18.11051,-89.73249 -48.44637,-123.47969 49.61204,36.08738 81.38365,91.27983 81.38365,153.10919 z"
   id="path4"
   inkscape:connector-curvature="0" />
<g
   id="g10"
   style="fill:#666666"
   transform="matrix(0.91523764,0,0,0.94411422,20.863405,19.525483)">
	<path
   style="fill:#666666"
   d="m 182.704,19.857 c 11.632,29.696 -27.36,97.376 -27.36,97.376 0,0 -74.592,-23.216 -86.224,-52.896 -6.272,-16.032 1.68,-34.224 17.712,-40.496 12.96,-5.072 27.328,-0.864 35.648,9.408 -0.88,-13.2 6.768,-26.016 19.728,-31.088 16.08,-6.304 34.224,1.664 40.496,17.696 z"
   id="path6"
   inkscape:connector-curvature="0" />
	<path
   style="fill:#666666"
   d="m 498.288,97.201 c -17.12,35.888 -112,58.08 -112,58.08 0,0 -42.448,-87.712 -25.312,-123.6 9.248,-19.376 32.576,-27.632 51.968,-18.384 15.68,7.488 24.096,24.144 21.824,40.496 11.28,-12.048 29.456,-16.016 45.136,-8.544 19.44,9.264 27.632,32.576 18.384,51.952 z"
   id="path8"
   inkscape:connector-curvature="0" />
</g>
<path
   style="fill:#ececec;stroke-width:0.86326844"
   d="m 255.54302,226.39231 c 0,48.75054 -38.71513,88.18873 -86.5719,88.18873 -47.71992,0 -86.571902,-39.43819 -86.571902,-88.18873 0,-48.61114 38.851982,-88.04933 86.571902,-88.04933 47.85677,0.0138 86.5719,39.43819 86.5719,88.04933 z"
   id="path12"
   inkscape:connector-curvature="0" />
<path
   style="fill:#ffffff;stroke-width:0.8802731"
   d="m 240.75403,221.52455 c -4.99989,41.36237 -41.36399,74.81974 -81.34918,74.81974 -39.85985,0 -68.285417,-33.45737 -63.285526,-74.81974 4.985966,-41.24842 41.475416,-74.69155 81.335256,-74.69155 39.9852,0 68.28542,33.45737 63.29945,74.69155 z"
   id="path14"
   inkscape:connector-curvature="0" />
<circle
   style="fill:#3E4347;"
   cx="173.616"
   cy="196.161"
   r="34.672"
   id="circle16" />
<ellipse
   transform="matrix(-0.7071 -0.7071 0.7071 -0.7071 186.961 445.4086)"
   style="fill:#FFFFFF;"
   cx="185.728"
   cy="183.983"
   rx="10.736"
   ry="7.568"
   id="ellipse18" />
<path
   style="fill:#ececec"
   d="M445.872,244.593c0,45.376-36.704,82.08-82.08,82.08c-45.232,0-82.08-36.704-82.08-82.08  c0-45.248,36.832-81.936,82.08-81.936C409.168,162.641,445.872,199.345,445.872,244.593z"
   id="path20" />
<path
   style="fill:#FFFFFF;"
   d="M431.152,244.609c3.824,36.8-23.216,66.544-60.464,66.544c-37.136,0-70.464-29.76-74.288-66.544  c-3.808-36.688,23.344-66.448,60.48-66.448C394.144,178.161,427.344,207.921,431.152,244.609z"
   id="path22" />
<circle
   style="fill:#3E4347;"
   cx="351.808"
   cy="224.481"
   r="34.672"
   id="circle24" />
<ellipse
   transform="matrix(-0.7071 -0.7071 0.7071 -0.7071 471.1412 619.679)"
   style="fill:#FFFFFF;"
   cx="363.91"
   cy="212.263"
   rx="10.736"
   ry="7.568"
   id="ellipse26" />
<path
   style="fill:#3e4347"
   d="m 105.78233,328.25209 c 12.208,18.528 24.464,31.2 39.744,44.464 31.696,26.704 73.648,42.288 117.872,42.816 46.464,-0.64 86.96,-16.352 118.416,-42.832 15.104,-13.104 27.76,-26.288 39.744,-44.448 -8.88,19.536 -19.152,36.192 -33.872,50.816 -34.96,34.272 -74.096,50.72 -123.744,51.84 -51.104,-1.168 -89.984,-18.256 -124.272,-51.856 -14.816,-14.72 -25.104,-31.52 -33.888,-50.8 z"
   id="path28"
   inkscape:connector-curvature="0" />
<g
   id="g30">
</g>
<g
   id="g32">
</g>
<g
   id="g34">
</g>
<g
   id="g36">
</g>
<g
   id="g38">
</g>
<g
   id="g40">
</g>
<g
   id="g42">
</g>
<g
   id="g44">
</g>
<g
   id="g46">
</g>
<g
   id="g48">
</g>
<g
   id="g50">
</g>
<g
   id="g52">
</g>
<g
   id="g54">
</g>
<g
   id="g56">
</g>
<g
   id="g58">
</g>
</svg>