<svg id="Layer_5" enable-background="new 0 0 64 64" height="512" viewBox="0 0 64 64" width="512" xmlns="http://www.w3.org/2000/svg"><path d="m21 29v-2h-2v2h-2v14h2v2h2v-2c2.206 0 4-1.794 4-4 0-1.193-.525-2.267-1.357-3 .832-.733 1.357-1.807 1.357-3 0-2.206-1.794-4-4-4zm0 12h-2v-4h2c1.103 0 2 .897 2 2s-.897 2-2 2zm0-6h-2v-4h2c1.103 0 2 .897 2 2s-.897 2-2 2z"/><path d="m63 10v-9h-9v2h5.586l-18 18h-6.861c.177-.983.275-1.985.275-3 0-9.374-7.626-17-17-17s-17 7.626-17 17c0 5.356 2.526 10.373 6.79 13.582-.502 1.382-.79 2.865-.79 4.418 0 1.637.317 3.198.872 4.642-5.642 1.886-6.872 5.005-6.872 7.358v6c0 2.706 1.852 9 19 9 12.203 0 16.656-3.187 18.212-6h24.788v-40h-8v38h-2v-34h-8v34h-2v-30h-8v16.9c-.799-.458-1.748-.882-2.872-1.258.555-1.444.872-3.005.872-4.642 0-2.584-.767-4.988-2.072-7.014 1.51-1.773 2.632-3.804 3.307-5.986h8.179l18.586-18.586v5.586zm-6 9h4v36h-4zm-31.023-2c-.056-2.139-.286-4.16-.668-6h5.948c.961 1.812 1.55 3.845 1.693 6zm-5.977 6c-2.535 0-4.895.74-6.896 2h-.364c-.414-1.864-.65-3.896-.708-6h11.944c-.044 1.543-.187 3.05-.431 4.504-1.129-.321-2.315-.504-3.545-.504zm-16.965-4h6.997c.055 2.085.266 4.118.653 6h-5.95c-.971-1.839-1.558-3.88-1.7-6zm.016-2c.143-2.155.732-4.188 1.693-6h5.948c-.382 1.84-.612 3.861-.668 6zm8.971 0c.061-2.203.316-4.222.713-6h10.529c.398 1.778.653 3.797.713 6zm5.978-14c1.716 0 3.547 2.264 4.729 6h-9.458c1.182-3.736 3.013-6 4.729-6zm11.972 6h-5.159c-.626-2.168-1.473-3.997-2.484-5.357 3.087.932 5.746 2.84 7.643 5.357zm-16.301-5.357c-1.01 1.36-1.857 3.189-2.483 5.357h-5.16c1.897-2.517 4.556-4.425 7.643-5.357zm-7.66 23.357h4.63c-.779.81-1.457 1.717-2.007 2.706-.995-.796-1.872-1.707-2.623-2.706zm-3.011 27v-1.406c.895.901 2.177 1.77 4 2.497v3.787c-2.319-1.039-4-2.583-4-4.878zm28 1.763v3.852c-1.288.39-2.663.669-4 .871v-3.913c1.515-.208 2.839-.484 4-.81zm-6 4.975c-1.585.163-3.002.227-4 .249v-3.999c1.445-.022 2.775-.089 4-.198zm-6 .25c-.998-.023-2.415-.087-4-.249v-3.947c1.225.108 2.555.176 4 .198zm-6-.503c-1.337-.202-2.712-.481-4-.871v-3.852c1.161.326 2.485.602 4 .809zm20-1.607v-3.787c1.823-.726 3.105-1.596 4-2.497v1.406c0 2.295-1.681 3.839-4 4.878zm14-35.878h4v32h-4zm-10 4h4v28h-2.086c.062-.367.086-.706.086-1v-6c0-1.408-.439-3.09-2-4.618zm0 21c0 6.662-14.161 7-17 7s-17-.338-17-7c0-2.462 1.948-4.313 5.743-5.526.348.602.736 1.178 1.173 1.715-2.521.707-4.916 1.886-4.916 3.811 0 3.436 7.775 5 15 5s15-1.564 15-5c0-1.925-2.395-3.104-4.916-3.811.437-.537.825-1.113 1.173-1.715 3.795 1.213 5.743 3.064 5.743 5.526zm-8.535-2.155c3.409.772 4.535 1.773 4.535 2.155 0 .897-4.423 3-13 3s-13-2.103-13-3c0-.382 1.126-1.383 4.535-2.155 2.277 1.961 5.231 3.155 8.465 3.155s6.188-1.194 8.465-3.155zm-8.465 1.155c-6.065 0-11-4.935-11-11s4.935-11 11-11 11 4.935 11 11-4.935 11-11 11zm5.449-22.787c.302-1.68.478-3.425.526-5.213h6.977c-.204 3.058-1.336 5.962-3.265 8.361-1.177-1.319-2.615-2.394-4.238-3.148z"/></svg>