<svg height="512" viewBox="0 0 64 64" width="512" xmlns="http://www.w3.org/2000/svg"><g id="Business-Profit-Growth-Money_Tree-Marketing" data-name="Business-Profit-Growth-Money Tree-Marketing"><path d="m61.63 52.757a1 1 0 0 0 -.6-1.282l-1.88-.685a4.985 4.985 0 0 0 -6.15 2.46 4.987 4.987 0 0 0 -6.152-2.46l-1.88.685a1 1 0 0 0 -.6 1.282l.685 1.878a4.987 4.987 0 0 0 6.408 2.988l.537-.2v2.577h-17.998v-4.572l.537.2a5 5 0 0 0 6.408-2.987l.685-1.879a1 1 0 0 0 -.6-1.282l-1.88-.685a4.983 4.983 0 0 0 -5.15 1.096v-.477l1.121-1.121a5.006 5.006 0 0 0 0-7.071l-1.414-1.414a1 1 0 0 0 -1.414 0l-1.414 1.414a5.006 5.006 0 0 0 0 7.071l1.121 1.121v.477a4.985 4.985 0 0 0 -5.152-1.1l-1.88.685a1 1 0 0 0 -.6 1.282l.685 1.878a4.987 4.987 0 0 0 6.408 2.988l.537-.2v4.576h-18.998v-2.572l.537.2a5 5 0 0 0 6.408-2.987l.685-1.879a1 1 0 0 0 -.6-1.282l-1.88-.685a4.984 4.984 0 0 0 -5.15 1.095v-1.941a10 10 0 1 0 -2 0v1.942a4.985 4.985 0 0 0 -5.152-1.1l-1.88.685a1 1 0 0 0 -.6 1.282l.685 1.878a4.987 4.987 0 0 0 6.408 2.988l.537-.2v2.576h-4.998v2h52v-2h-4v-2.572l.537.2a5 5 0 0 0 6.408-2.987zm-27.007-.294a3.005 3.005 0 0 1 3.846-1.794l.939.343-.342.939a3 3 0 0 1 -3.845 1.793l-.94-.342zm-3.844 1.281a3 3 0 0 1 -3.845-1.794l-.342-.938.939-.343a3.005 3.005 0 0 1 3.846 1.794l.342.939zm1.514-11.108.707-.707.707.707a3 3 0 0 1 0 4.243l-.707.707-.707-.707a3 3 0 0 1 0-4.243zm-18.67 11.827a3 3 0 0 1 3.846-1.794l.939.343-.342.939a3 3 0 0 1 -3.845 1.793l-.94-.342zm-3.844 1.281a3 3 0 0 1 -3.845-1.794l-.342-.938.939-.343a3.005 3.005 0 0 1 3.846 1.794l.342.939zm-5.779-15.744a8 8 0 1 1 8 8 8.009 8.009 0 0 1 -8-8zm46.779 15.744a3 3 0 0 1 -3.845-1.794l-.342-.938.939-.343a3.005 3.005 0 0 1 3.846 1.794l.342.939zm8.287-1.793a3 3 0 0 1 -3.845 1.793l-.94-.342.342-.939a3.005 3.005 0 0 1 3.846-1.794l.939.343z"/><path d="m13 46v-1a3 3 0 0 0 0-6h-2a1 1 0 0 1 0-2h2a1 1 0 0 1 1 1h2a3 3 0 0 0 -3-3v-1h-2v1a3 3 0 0 0 0 6h2a1 1 0 0 1 0 2h-2a1 1 0 0 1 -1-1h-2a3 3 0 0 0 3 3v1z"/><path d="m62.021 17.979-4.021-4.02v-6.959a1 1 0 0 0 -.293-.707l-4-4a1 1 0 0 0 -1.41 0l-3 2.967-1.418-1.423a1 1 0 0 0 -1.414 0l-11.315 11.313a1 1 0 0 0 0 1.414l6.436 6.436h-4.586a1 1 0 0 0 -.293-.707l-1-1a1 1 0 0 0 -.707-.293h-3a1 1 0 0 0 -1 1v8a1 1 0 0 0 1 1h3a1 1 0 0 0 .707-.293l1-1a1 1 0 0 0 .293-.707h10.586l1.707 1.707a1 1 0 0 0 1.414 0l11.314-11.313a1 1 0 0 0 0-1.415zm-9.021-13.569 3 3v4.545l-5.288-5.285zm-5.828 1.548 1.228 1.228-9.9 9.9-1.229-1.229zm-11.172 21.042a1 1 0 0 0 -1 1v.586l-.414.414h-1.586v-6h1.586l.414.414v.586a1 1 0 0 0 1 1h8a1 1 0 0 0 .707-1.707l-4.793-4.793 9.9-9.9 7.086 7.086-11.314 11.314zm14 1.586-1.293-1.293a.982.982 0 0 0 -.362-.224l9.969-9.969 1.586 1.587z"/><path d="m27 27h2v2h-2z"/><path d="m26 23h2v2h-2z"/><path d="m23 26h2v2h-2z"/><path d="m19 28h2v2h-2z"/><path d="m27 31h2v2h-2z"/><path d="m24 34h2v2h-2z"/><path d="m23 30h2v2h-2z"/><path d="m15.707 21.707 1.293-1.293v5.586h2v-5.586l1.293 1.293 1.414-1.414-3-3a1 1 0 0 0 -1.414 0l-3 3z"/><path d="m11 12.414v5.586h2v-5.586l1.293 1.293 1.414-1.414-3-3a1 1 0 0 0 -1.414 0l-3 3 1.414 1.414z"/><path d="m5 22.414v5.586h2v-5.586l1.293 1.293 1.414-1.414-3-3a1 1 0 0 0 -1.414 0l-3 3 1.414 1.414z"/><path d="m2 60h2v2h-2z"/><path d="m60 60h2v2h-2z"/></g></svg>