<?xml version="1.0" encoding="UTF-8" standalone="no"?>
<!-- Generator: Adobe Illustrator 19.0.0, SVG Export Plug-In . SVG Version: 6.00 Build 0)  -->

<svg
   xmlns:dc="http://purl.org/dc/elements/1.1/"
   xmlns:cc="http://creativecommons.org/ns#"
   xmlns:rdf="http://www.w3.org/1999/02/22-rdf-syntax-ns#"
   xmlns:svg="http://www.w3.org/2000/svg"
   xmlns="http://www.w3.org/2000/svg"
   xmlns:sodipodi="http://sodipodi.sourceforge.net/DTD/sodipodi-0.dtd"
   xmlns:inkscape="http://www.inkscape.org/namespaces/inkscape"
   version="1.1"
   id="Capa_1"
   x="0px"
   y="0px"
   viewBox="0 0 480.002 480.002"
   style="enable-background:new 0 0 480.002 480.002;"
   xml:space="preserve"
   sodipodi:docname="owner.svg"
   inkscape:version="0.92.4 (5da689c313, 2019-01-14)"><metadata
   id="metadata73"><rdf:RDF><cc:Work
       rdf:about=""><dc:format>image/svg+xml</dc:format><dc:type
         rdf:resource="http://purl.org/dc/dcmitype/StillImage" /></cc:Work></rdf:RDF></metadata><defs
   id="defs71" /><sodipodi:namedview
   pagecolor="#ffffff"
   bordercolor="#666666"
   borderopacity="1"
   objecttolerance="10"
   gridtolerance="10"
   guidetolerance="10"
   inkscape:pageopacity="0"
   inkscape:pageshadow="2"
   inkscape:window-width="1366"
   inkscape:window-height="745"
   id="namedview69"
   showgrid="false"
   inkscape:zoom="1.3906375"
   inkscape:cx="207.91724"
   inkscape:cy="261.23652"
   inkscape:window-x="-8"
   inkscape:window-y="-8"
   inkscape:window-maximized="1"
   inkscape:current-layer="Capa_1" />
<polygon
   style="fill:#ffffff"
   points="8.002,176.001 16.002,176.001 96.002,176.001 104.002,176.001 56.002,128.001 "
   id="polygon2" />
<polygon
   style="fill:#ffffff"
   points="16.002,256.001 64.002,256.001 96.002,256.001 96.002,176.001 16.002,176.001 "
   id="polygon4" />
<polygon
   style="fill:#e6e6e6"
   points="176.002,256.001 176.002,304.001 304.002,304.001 304.002,256.001 304.002,152.001   240.002,152.001 176.002,152.001 "
   id="polygon6" />
<polygon
   style="fill:#e6e6e6"
   points="136.002,224.001 176.002,256.001 176.002,152.001 "
   id="polygon8" />
<path
   style="fill:#ffffff"
   d="M24.002,288.001c0,17.672,14.328,32,32,32h80l36.992-66.408l-28.336-22.672l-31.72,57.08H24.002z"
   id="path10" />
<polygon
   style="fill:#e6e6e6"
   points="344.002,224.001 304.002,152.001 304.002,256.001 "
   id="polygon12" />
<g
   id="g18"
   style="fill:#ffffff">
	<path
   style="fill:#ffffff"
   d="M344.002,320.001h80c17.672,0,32-14.328,32-32h-88.936l-31.712-57.08l-28.336,22.672   L344.002,320.001z"
   id="path14" />
	<path
   style="fill:#ffffff"
   d="M312.002,80.001c0,1.792-0.136,3.552-0.272,5.312c-4.928,1.712-10.208,2.688-15.728,2.688   c-17.224,0-32.288-9.104-40.752-22.728c-13.52,9.12-31.472,14.728-51.248,14.728c-12.896,0-25.032-2.384-35.672-6.56   c-0.192,2.16-0.328,4.344-0.328,6.56c0,39.768,32.232,72,72,72S312.002,119.769,312.002,80.001z"
   id="path16" />
</g>
<polygon
   style="fill:#e6e6e6"
   points="176.002,472.001 240.002,472.001 304.002,472.001 304.002,304.001 176.002,304.001 "
   id="polygon20" />
<path
   style="fill:#ffffff"
   d="M424.002,64.001c-26.512,0-48,21.488-48,48c0,20.888,13.368,38.616,32,45.208v98.792l32-24l-8-16  l8-16l-8-16l5.176-25.872c20.096-5.736,34.824-24.192,34.824-46.128C472.002,85.489,450.514,64.001,424.002,64.001z"
   id="path22" />
<path
   style="fill:#808080"
   d="M255.25,65.273c8.464,13.624,23.528,22.728,40.752,22.728c5.52,0,10.8-0.976,15.728-2.688  c0.136-1.76,0.272-3.52,0.272-5.312c0-39.768-32.232-72-72-72c-2.416,0-4.808,0.128-7.16,0.36c-0.808,0.08-1.6,0.24-2.4,0.344  c-1.528,0.2-3.064,0.4-4.56,0.696c-0.944,0.192-1.864,0.456-2.792,0.68c-1.312,0.32-2.632,0.616-3.92,1.008  c-0.992,0.304-1.952,0.664-2.928,1.008c-1.176,0.416-2.36,0.816-3.512,1.288c-1,0.408-1.976,0.88-2.96,1.336  c-1.064,0.496-2.136,0.984-3.168,1.528c-1,0.528-1.968,1.096-2.944,1.672c-0.952,0.56-1.912,1.12-2.84,1.72  c-0.984,0.64-1.936,1.32-2.888,2.008c-0.856,0.616-1.704,1.24-2.528,1.888c-0.952,0.752-1.88,1.544-2.792,2.344  c-0.752,0.656-1.488,1.328-2.216,2.016c-0.912,0.872-1.808,1.768-2.672,2.688c-0.648,0.68-1.272,1.376-1.888,2.08  c-0.872,0.992-1.712,2.008-2.528,3.048c-0.536,0.688-1.064,1.392-1.576,2.104c-0.808,1.12-1.6,2.248-2.344,3.416  c-0.44,0.68-0.848,1.384-1.264,2.08c-0.736,1.24-1.456,2.496-2.128,3.792c-0.328,0.656-0.632,1.336-0.952,2.008  c-0.656,1.376-1.296,2.76-1.864,4.176c-0.248,0.616-0.456,1.248-0.688,1.872c-0.56,1.52-1.096,3.04-1.56,4.6  c-0.16,0.536-0.272,1.088-0.416,1.624c-0.448,1.68-0.88,3.368-1.208,5.096c-0.072,0.392-0.112,0.792-0.184,1.184  c-0.328,1.904-0.624,3.816-0.8,5.768l0,0c10.648,4.184,22.784,6.568,35.68,6.568C223.778,80.001,241.73,74.393,255.25,65.273z"
   id="path24" />
<g
   id="g36"
   transform="translate(-8)">
	<path
   style="fill:#212329"
   d="m 8.002,256.001 c 0,4.424 3.584,8 8,8 h 80 c 4.416,0 8,-3.576 8,-8 v -72 c 3.232,0 6.152,-1.944 7.392,-4.936 1.24,-2.992 0.552,-6.432 -1.736,-8.72 l -48,-48 c -3.128,-3.128 -8.184,-3.128 -11.312,0 l -48,48 c -2.288,2.288 -2.976,5.728 -1.736,8.72 1.24,2.992 4.16,4.936 7.392,4.936 z m 48,-116.688 28.688,28.688 H 27.314 Z m 32,44.688 v 64 h -16 v -16 h -16 v 16 h -32 v -64 z"
   id="path26"
   inkscape:connector-curvature="0" />
	<path
   style="fill:#212329"
   d="m 24.002,280.001 c -4.416,0 -8,3.576 -8,8 0,22.056 17.944,40 40,40 h 80 c 2.904,0 5.576,-1.568 6.992,-4.112 l 25.008,-44.896 v 25.008 168 c 0,4.424 3.584,8 8,8 h 128 c 4.416,0 8,-3.576 8,-8 v -168 -25.008 l 25.008,44.896 c 1.416,2.544 4.088,4.112 6.992,4.112 h 80 c 22.056,0 40,-17.944 40,-40 0,-4.424 -3.584,-8 -8,-8 H 371.77 l -26.144,-47.048 3.376,-2.696 c 3.048,-2.44 3.896,-6.728 2,-10.136 l -40,-72 c -0.24,-0.432 -0.592,-0.752 -0.896,-1.12 -0.208,-0.256 -0.376,-0.544 -0.616,-0.768 -0.696,-0.656 -1.472,-1.208 -2.344,-1.576 -0.096,-0.04 -0.2,-0.04 -0.296,-0.072 -0.816,-0.312 -1.68,-0.488 -2.56,-0.52 -0.104,-0.008 -0.184,-0.064 -0.288,-0.064 h -16.208 c 18.096,-13.552 30.256,-34.528 31.92,-58.408 0,-0.032 0.016,-0.064 0.024,-0.096 0.136,-1.824 0.264,-3.648 0.264,-5.496 0,-44.112 -35.888,-80 -80,-80 -2.72,0 -5.4,0.144 -8.048,0.408 -0.368,0.04 -0.72,0.112 -1.08,0.152 -2.336,0.264 -4.648,0.6 -6.92,1.056 -0.104,0.024 -0.2,0.048 -0.304,0.072 -25.936,5.312 -47.232,23.04 -57.312,47.112 -0.016,0.04 -0.04,0.088 -0.056,0.128 -0.816,1.952 -1.536,3.952 -2.192,5.984 -0.2,0.608 -0.424,1.208 -0.616,1.824 -0.416,1.4 -0.752,2.832 -1.096,4.264 -0.304,1.232 -0.624,2.44 -0.872,3.696 -0.152,0.792 -0.24,1.6 -0.368,2.4 -0.304,1.84 -0.592,3.68 -0.768,5.56 0,0.024 -0.008,0.04 -0.008,0.064 0,0.016 0.008,0.032 0,0.04 -0.208,2.392 -0.36,4.8 -0.36,7.24 0,26.184 12.704,49.4 32.208,64 h -16.208 c -0.104,0 -0.192,0.056 -0.296,0.056 -0.864,0.032 -1.696,0.208 -2.488,0.504 -0.12,0.04 -0.248,0.04 -0.368,0.088 -0.864,0.368 -1.64,0.912 -2.328,1.568 -0.248,0.232 -0.408,0.52 -0.624,0.784 -0.304,0.368 -0.656,0.688 -0.888,1.112 l -40,72 c -1.896,3.408 -1.056,7.696 2,10.136 l 3.376,2.696 -26.152,47.056 z m 272,184 h -48 v -112 h -16 v 112 h -48 v -152 h 112 z m 36.952,-220.912 27.12,48.8 c 1.408,2.536 4.088,4.112 6.992,4.112 h 79.568 c -3.304,9.312 -12.2,16 -22.632,16 h -75.304 l -31.408,-56.384 12.528,-10.024 z m -2.6,-18.416 v 0 l -7.496,5.992 -10.856,8.688 v -56.48 l 21.72,39.104 z M 177.202,67.793 c 0.176,-0.928 0.424,-1.832 0.64,-2.744 0.28,-1.168 0.552,-2.344 0.896,-3.488 0.152,-0.528 0.336,-1.032 0.504,-1.552 0.528,-1.592 1.08,-3.176 1.728,-4.712 0.056,-0.128 0.104,-0.248 0.16,-0.376 7.304,-17.088 21.832,-30.368 39.728,-35.984 0.08,-0.024 0.152,-0.048 0.232,-0.072 1.76,-0.544 3.56,-0.992 5.384,-1.384 0.32,-0.064 0.632,-0.152 0.952,-0.216 1.64,-0.328 3.312,-0.568 5,-0.768 0.432,-0.048 0.856,-0.128 1.296,-0.168 2.072,-0.216 4.16,-0.328 6.28,-0.328 2.2,0 4.368,0.112 6.512,0.328 0.64,0.064 1.256,0.2 1.888,0.288 1.488,0.2 2.976,0.384 4.432,0.68 0.76,0.152 1.488,0.392 2.24,0.568 1.296,0.312 2.608,0.608 3.872,1 0.808,0.248 1.576,0.584 2.368,0.864 1.168,0.416 2.352,0.8 3.488,1.28 0.824,0.344 1.608,0.776 2.408,1.152 1.056,0.504 2.136,0.968 3.16,1.528 0.808,0.44 1.568,0.944 2.352,1.416 0.976,0.584 1.968,1.136 2.912,1.768 0.768,0.512 1.48,1.096 2.216,1.64 0.904,0.664 1.832,1.304 2.696,2.016 0.72,0.592 1.376,1.24 2.072,1.864 0.832,0.744 1.68,1.464 2.472,2.248 0.664,0.656 1.264,1.376 1.904,2.064 0.752,0.816 1.52,1.6 2.232,2.448 0.6,0.728 1.144,1.504 1.712,2.256 0.664,0.872 1.352,1.728 1.976,2.64 0.536,0.784 1.008,1.624 1.504,2.44 0.576,0.928 1.176,1.84 1.704,2.8 0.464,0.848 0.856,1.736 1.288,2.608 0.48,0.984 0.992,1.944 1.424,2.952 0.384,0.888 0.688,1.816 1.032,2.728 0.392,1.032 0.808,2.056 1.144,3.112 0.296,0.936 0.512,1.904 0.768,2.864 0.288,1.072 0.6,2.136 0.832,3.232 0.208,0.976 0.328,1.984 0.488,2.976 0.176,1.112 0.392,2.208 0.512,3.336 0.104,1 0.128,2.016 0.192,3.032 0.064,1.016 0.144,2.024 0.152,3.048 -16.424,3.352 -33.136,-3.992 -41.912,-18.128 -1.152,-1.848 -3,-3.152 -5.128,-3.6 -0.552,-0.128 -1.112,-0.176 -1.672,-0.176 -1.584,0 -3.144,0.472 -4.48,1.368 -12.76,8.608 -29.368,13.36 -46.76,13.36 -9.224,0 -18.384,-1.36 -26.84,-3.952 0.016,-0.08 0.024,-0.168 0.04,-0.256 z m -0.976,16.552 c 8.896,2.368 18.312,3.656 27.776,3.656 17.704,0 34.848,-4.248 49.104,-12.072 10.568,12.688 26.104,20.072 42.896,20.072 2.016,0 4.024,-0.288 6.024,-0.512 -6.952,27.816 -32.08,48.512 -62.024,48.512 -33.824,0 -61.528,-26.392 -63.776,-59.656 z m 119.776,75.656 v 96 40 h -112 v -40 -96 z m -128,22.872 v 56.48 l -10.864,-8.688 -7.488,-5.992 v 0 l -3.368,-2.696 z m -48.072,109.008 27.12,-48.8 3.136,2.504 12.528,10.024 -31.408,56.392 H 56.002 c -10.432,0 -19.328,-6.688 -22.632,-16 h 79.568 c 2.904,0 5.584,-1.576 6.992,-4.12 z"
   id="path28"
   inkscape:connector-curvature="0" />
	<path
   style="fill:#212329"
   d="m 424.002,56.001 c -30.88,0 -56,25.128 -56,56 0,21.72 12.648,41.368 32,50.552 v 93.448 c 0,3.032 1.712,5.8 4.424,7.16 1.128,0.56 2.36,0.84 3.576,0.84 1.696,0 3.384,-0.536 4.8,-1.6 l 32,-24 c 3.096,-2.32 4.08,-6.512 2.352,-9.976 l -6.208,-12.424 6.208,-12.424 c 1.128,-2.248 1.128,-4.904 0,-7.16 l -6.776,-13.544 3.728,-18.648 c 21.368,-8.232 35.896,-29.048 35.896,-52.224 0,-30.872 -25.12,-56 -56,-56 z m 10.984,94.432 c -2.88,0.832 -5.064,3.184 -5.648,6.128 l -5.176,25.872 c -0.352,1.744 -0.104,3.552 0.688,5.152 l 6.208,12.416 -6.208,12.424 c -1.128,2.248 -1.128,4.904 0,7.16 l 5.016,10.032 -13.864,10.384 v -82.792 c 0,-3.392 -2.136,-6.416 -5.336,-7.536 -15.944,-5.648 -26.664,-20.792 -26.664,-37.672 0,-22.056 17.944,-40 40,-40 22.056,0 40,17.944 40,40 0,17.752 -11.936,33.552 -29.016,38.432 z"
   id="path30"
   inkscape:connector-curvature="0" />
	<rect
   x="40.001999"
   y="200.00101"
   style="fill:#212329"
   width="16"
   height="16"
   id="rect32" />
	<rect
   x="416.00201"
   y="88.000999"
   style="fill:#212329"
   width="16"
   height="16"
   id="rect34" />
</g>
<g
   id="g38">
</g>
<g
   id="g40">
</g>
<g
   id="g42">
</g>
<g
   id="g44">
</g>
<g
   id="g46">
</g>
<g
   id="g48">
</g>
<g
   id="g50">
</g>
<g
   id="g52">
</g>
<g
   id="g54">
</g>
<g
   id="g56">
</g>
<g
   id="g58">
</g>
<g
   id="g60">
</g>
<g
   id="g62">
</g>
<g
   id="g64">
</g>
<g
   id="g66">
</g>
</svg>