<?xml version="1.0" encoding="UTF-8" standalone="no"?>
<svg
   xmlns:dc="http://purl.org/dc/elements/1.1/"
   xmlns:cc="http://creativecommons.org/ns#"
   xmlns:rdf="http://www.w3.org/1999/02/22-rdf-syntax-ns#"
   xmlns:svg="http://www.w3.org/2000/svg"
   xmlns="http://www.w3.org/2000/svg"
   xmlns:sodipodi="http://sodipodi.sourceforge.net/DTD/sodipodi-0.dtd"
   xmlns:inkscape="http://www.inkscape.org/namespaces/inkscape"
   height="512"
   viewBox="0 0 58 52"
   width="512"
   version="1.1"
   id="svg30"
   sodipodi:docname="photography.svg"
   inkscape:version="0.92.4 (5da689c313, 2019-01-14)">
  <metadata
     id="metadata36">
    <rdf:RDF>
      <cc:Work
         rdf:about="">
        <dc:format>image/svg+xml</dc:format>
        <dc:type
           rdf:resource="http://purl.org/dc/dcmitype/StillImage" />
      </cc:Work>
    </rdf:RDF>
  </metadata>
  <defs
     id="defs34" />
  <sodipodi:namedview
     pagecolor="#ffffff"
     bordercolor="#666666"
     borderopacity="1"
     objecttolerance="10"
     gridtolerance="10"
     guidetolerance="10"
     inkscape:pageopacity="0"
     inkscape:pageshadow="2"
     inkscape:window-width="1366"
     inkscape:window-height="745"
     id="namedview32"
     showgrid="false"
     inkscape:zoom="0.921875"
     inkscape:cx="72.305191"
     inkscape:cy="302.99731"
     inkscape:window-x="-8"
     inkscape:window-y="-8"
     inkscape:window-maximized="1"
     inkscape:current-layer="svg30" />
  <path
     id="Shape"
     d="M 37.614,-0.49152542 H 24.386 c -0.834384,2.1092e-4 -1.580966,0.52476078 -1.873,1.31597458 L 20,7.6067797 31.368644,7.6652543 42,7.6067797 39.487,0.82444916 C 39.194965,0.03323536 38.448384,-0.4913145 37.614,-0.49152542 Z"
     inkscape:connector-curvature="0"
     style="fill:#000000;fill-rule:nonzero;stroke-width:0.43046875;stroke-miterlimit:4;stroke-dasharray:none"
     sodipodi:nodetypes="cccccccc" />
  <path
     id="path3"
     d="m 47,4.1228814 h 6 c 0.552285,0 1,0.2496581 1,0.5576271 V 6.911017 H 46 V 4.6805085 c 0,-0.307969 0.447715,-0.5576271 1,-0.5576271 z"
     inkscape:connector-curvature="0"
     style="fill:#b3b3b3;fill-rule:nonzero;stroke-width:0.74674433" />
  <path
     id="path5"
     d="m 5,3.2627119 h 10 c 0.552285,0 1,0.3376835 1,0.7542372 V 7.0338983 H 4 V 4.0169491 C 4,3.6003954 4.4477152,3.2627119 5,3.2627119 Z"
     inkscape:connector-curvature="0"
     style="fill:#b3b3b3;fill-rule:nonzero;stroke-width:0.86846834" />
  <path
     id="path7"
     d="M 36,4.5084746 H 26 c -0.552285,0 -1,-0.4477153 -1,-1 0,-0.5522847 0.447715,-1 1,-1 h 10 c 0.552285,0 1,0.4477153 1,1 0,0.5522847 -0.447715,1 -1,1 z"
     inkscape:connector-curvature="0"
     style="fill:#cccccc;fill-rule:nonzero" />
  <path
     id="path9"
     d="m 58,9.5084746 v 8.0000004 l -28,4 -30,-4 V 9.5084746 c 0.0032948,-1.1032019 0.89679813,-1.9967052 2,-2 h 54 c 1.103202,0.00329 1.996705,0.8967981 2,2 z"
     inkscape:connector-curvature="0"
     style="fill:none;fill-rule:nonzero;stroke:#000000;stroke-opacity:1;stroke-width:0.95473438;stroke-miterlimit:4;stroke-dasharray:none" />
  <path
     id="path11"
     d="m 58,17.508475 v 32 c -0.0033,1.103202 -0.896798,1.996705 -2,2 H 2 c -1.10320187,-0.0033 -1.9967052,-0.896798 -2,-2 v -32 z"
     inkscape:connector-curvature="0"
     style="fill:#1a1a1a;fill-rule:nonzero" />
  <path
     id="path13"
     d="M 20,13.508475 H 4 c -0.5522847,0 -1,-0.447715 -1,-1 0,-0.552285 0.4477153,-1 1,-1 h 16 c 0.552285,0 1,0.447715 1,1 0,0.552285 -0.447715,1 -1,1 z"
     inkscape:connector-curvature="0"
     style="fill:#bdc3c7;fill-rule:nonzero;stroke:#000000;stroke-opacity:1;stroke-width:0.30903125;stroke-miterlimit:4;stroke-dasharray:none" />
  <path
     id="path15"
     d="m 54,13.508475 h -2 c -0.552285,0 -1,-0.447715 -1,-1 0,-0.552285 0.447715,-1 1,-1 h 2 c 0.552285,0 1,0.447715 1,1 0,0.552285 -0.447715,1 -1,1 z"
     inkscape:connector-curvature="0"
     style="fill:#000000;fill-rule:nonzero" />
  <circle
     id="Oval"
     cx="31"
     cy="33.508476"
     r="18"
     style="fill:#666666;fill-rule:nonzero;stroke:#002124;stroke-opacity:1;fill-opacity:1" />
  <circle
     id="circle18"
     cx="31"
     cy="33.508476"
     r="16"
     style="fill:#938774;fill-rule:nonzero;stroke:#000000;stroke-opacity:1;fill-opacity:1" />
  <path
     id="path20"
     d="m 45,33.508475 c 0.0086,6.607618 -4.598225,12.324062 -11.056733,13.7199 -6.458508,1.395838 -13.014829,-1.907982 -15.735669,-7.92942 -2.720841,-6.021438 -0.867331,-13.125315 4.448565,-17.049846 5.315896,-3.924531 12.650595,-3.603972 17.603837,0.769366 3.01094,2.655331 4.737099,6.47546 4.74,10.49 z"
     inkscape:connector-curvature="0"
     style="fill:none;fill-rule:nonzero;fill-opacity:0.00510204" />
  <path
     id="path22"
     d="M 41,27.508475 C 41.003,33.013068 37.778211,38.007964 32.760311,40.270981 27.742412,42.533997 21.863873,41.644601 17.74,37.998475 15.70092,31.991127 17.958395,25.363609 23.240511,21.850017 28.522626,18.336425 35.507626,18.815974 40.26,23.018475 c 0.49152,1.445885 0.741533,2.962855 0.74,4.49 z"
     inkscape:connector-curvature="0"
     style="fill:none;fill-rule:nonzero;fill-opacity:0.35204083" />
  <circle
     id="circle24"
     cx="31"
     cy="33.508476"
     r="4"
     style="fill:#e6e6e6;fill-rule:nonzero;fill-opacity:0.48469388" />
  <circle
     id="circle26"
     cx="31"
     cy="33.508476"
     r="2"
     style="fill:#000000;fill-rule:nonzero;fill-opacity:0.81122446" />
</svg>
