<?xml version="1.0" encoding="UTF-8" standalone="no"?>
<!-- Generator: Adobe Illustrator 19.0.0, SVG Export Plug-In . SVG Version: 6.00 Build 0)  -->

<svg
   xmlns:dc="http://purl.org/dc/elements/1.1/"
   xmlns:cc="http://creativecommons.org/ns#"
   xmlns:rdf="http://www.w3.org/1999/02/22-rdf-syntax-ns#"
   xmlns:svg="http://www.w3.org/2000/svg"
   xmlns="http://www.w3.org/2000/svg"
   xmlns:sodipodi="http://sodipodi.sourceforge.net/DTD/sodipodi-0.dtd"
   xmlns:inkscape="http://www.inkscape.org/namespaces/inkscape"
   version="1.1"
   id="Layer_1"
   x="0px"
   y="0px"
   viewBox="0 0 512 512"
   style="enable-background:new 0 0 512 512;"
   xml:space="preserve"
   sodipodi:docname="piggybank.svg"
   inkscape:version="0.92.4 (5da689c313, 2019-01-14)"><metadata
   id="metadata61"><rdf:RDF><cc:Work
       rdf:about=""><dc:format>image/svg+xml</dc:format><dc:type
         rdf:resource="http://purl.org/dc/dcmitype/StillImage" /></cc:Work></rdf:RDF></metadata><defs
   id="defs59">
	
</defs><sodipodi:namedview
   pagecolor="#ffffff"
   bordercolor="#666666"
   borderopacity="1"
   objecttolerance="10"
   gridtolerance="10"
   guidetolerance="10"
   inkscape:pageopacity="0"
   inkscape:pageshadow="2"
   inkscape:window-width="1366"
   inkscape:window-height="745"
   id="namedview57"
   showgrid="false"
   inkscape:zoom="0.4609375"
   inkscape:cx="256"
   inkscape:cy="256"
   inkscape:window-x="-8"
   inkscape:window-y="-8"
   inkscape:window-maximized="1"
   inkscape:current-layer="Layer_1" />



<g
   id="g76"
   transform="matrix(0.94915254,0,0,1,15.186441,0)"><g
     id="g6">
	<g
   id="g4">
		<path
   id="path2"
   d="m 260.348,352.204 c -4.503,0 -8.153,3.65 -8.153,8.153 v 17.39 c 0,4.503 3.65,8.153 8.153,8.153 4.503,0 8.153,-3.65 8.153,-8.153 v -17.39 c 0,-4.503 -3.65,-8.153 -8.153,-8.153 z"
   inkscape:connector-curvature="0" />
	</g>
</g><g
     id="g12">
	<g
   id="g10">
		<path
   id="path8"
   d="m 507.064,235.387 c -3.182,-3.182 -7.411,-4.934 -11.912,-4.934 -10e-4,0 -0.002,0 -0.003,0 l -20.929,0.003 c -0.265,0 -0.447,-0.298 -0.503,-0.574 -5.753,-28.218 -18.654,-54.82 -37.31,-76.932 -18.032,-21.372 -41.127,-38.18 -66.88,-48.737 -4.154,-17.536 -12.925,-35.616 -30.222,-49.207 -16.746,-13.158 -33.612,-15.69 -34.321,-15.792 -2.336,-0.333 -4.709,0.363 -6.495,1.912 -1.786,1.549 -2.811,3.795 -2.811,6.159 V 91.311 H 266.09 c -7.312,-25.09 -30.5,-43.482 -57.919,-43.482 -28.001,0 -51.603,19.177 -58.376,45.085 -40.312,5.491 -77.4,25.021 -104.92,55.386 C 15.937,180.233 0,221.569 0,264.696 c 0,96.801 50.255,175.564 65.659,197.397 4.758,6.745 12.551,10.773 20.846,10.773 h 34.701 c 14.086,0 25.546,-11.46 25.546,-25.546 v -11.285 c 8.781,1.352 17.702,2.045 26.633,2.045 h 78.811 v 9.24 c 0,14.086 11.46,25.546 25.546,25.546 h 38.117 c 11.966,0 22.471,-8.493 24.978,-20.193 l 4.184,-19.524 c 53.584,-13.049 96.667,-50.641 117.872,-99.424 h 32.258 c 9.291,0 16.849,-7.558 16.849,-16.849 v -69.572 c 0,-4.503 -1.752,-8.734 -4.936,-11.917 z M 208.17,64.136 c 24.276,0 44.025,19.75 44.025,44.026 0,6.208 -1.329,12.323 -3.833,17.936 h -80.385 c -2.503,-5.615 -3.833,-11.728 -3.833,-17.936 0,-24.277 19.75,-44.026 44.026,-44.026 z m 287.524,252.738 c 0,0.3 -0.243,0.544 -0.544,0.544 h -26.128 c 4.441,-13.904 7.174,-28.526 7.956,-43.604 0.234,-4.496 -3.223,-8.331 -7.72,-8.564 -4.497,-0.228 -8.331,3.223 -8.564,7.72 -3.454,66.592 -48.778,123.449 -111.832,142.252 l 11.391,-53.155 c 0.944,-4.403 -1.861,-8.737 -6.264,-9.68 -4.4,-0.946 -8.737,1.861 -9.68,6.264 l -19.416,90.604 c -0.907,4.232 -4.707,7.304 -9.034,7.304 H 277.74 c -5.095,0 -9.24,-4.145 -9.24,-9.24 v -34.786 c 0,-4.503 -3.65,-8.153 -8.153,-8.153 -4.503,0 -8.153,3.65 -8.153,8.153 v 9.24 h -78.811 c -8.945,0 -17.874,-0.769 -26.633,-2.262 v -59.155 c 0,-4.503 -3.65,-8.153 -8.153,-8.153 -4.503,0 -8.153,3.65 -8.153,8.153 v 86.964 c 0,5.095 -4.145,9.24 -9.24,9.24 H 86.505 c -3.048,0 -5.79,-1.409 -7.522,-3.866 C 64.28,431.851 16.306,356.697 16.306,264.695 c 0,-39.072 14.437,-76.52 40.651,-105.445 23.99,-26.473 55.999,-43.853 90.907,-49.561 0.141,5.587 1.057,11.111 2.701,16.407 h -3.27 c -4.503,0 -8.153,3.65 -8.153,8.153 0,4.503 3.65,8.153 8.153,8.153 h 121.75 c 4.503,0 8.153,-3.65 8.153,-8.153 0,-4.503 -3.65,-8.153 -8.153,-8.153 h -3.271 c 1.795,-5.779 2.727,-11.828 2.727,-17.936 0,-0.183 -0.012,-0.362 -0.014,-0.544 h 27.19 v 17.936 c 0,4.503 3.65,8.153 8.153,8.153 4.503,0 8.153,-3.65 8.153,-8.153 V 57.99 c 15.469,5.854 44.569,23.835 44.569,76.26 0,4.503 3.65,8.153 8.153,8.153 4.503,0 8.153,-3.65 8.153,-8.153 0,-3.454 -0.125,-7.101 -0.411,-10.87 19.667,9.58 37.311,23.272 51.498,40.087 16.9,20.031 28.586,44.123 33.795,69.673 1.609,7.895 8.541,13.624 16.483,13.623 l 20.929,-0.002 c 0.055,0 0.225,0 0.384,0.159 0.159,0.159 0.159,0.327 0.159,0.384 v 69.57 z"
   inkscape:connector-curvature="0" />
	</g>
</g><g
     id="g18">
	<g
   id="g16">
		<path
   id="path14"
   d="m 424.521,235.759 c -5.06,-13.576 -18.455,-22.698 -33.327,-22.698 -14.873,0 -28.266,9.121 -33.329,22.698 -1.573,4.219 0.572,8.914 4.791,10.487 4.22,1.575 8.915,-0.572 10.487,-4.791 2.696,-7.23 9.95,-12.088 18.05,-12.088 8.1,0 15.355,4.858 18.05,12.088 1.223,3.281 4.333,5.307 7.64,5.307 0.947,0 1.909,-0.166 2.847,-0.516 4.219,-1.573 6.364,-6.269 4.791,-10.487 z"
   inkscape:connector-curvature="0" />
	</g>
</g><g
     id="g22">
		<path
   d="m 216.323,258.479 v -41.664 c 15.994,1.944 27.176,9.354 27.176,16.085 0,4.503 3.65,8.153 8.153,8.153 4.503,0 8.153,-3.65 8.153,-8.153 0,-16.668 -18.534,-30.069 -43.482,-32.49 v -0.937 c 0,-4.503 -3.65,-8.153 -8.153,-8.153 -4.503,0 -8.153,3.65 -8.153,8.153 v 0.937 c -24.948,2.421 -43.482,15.822 -43.482,32.49 0,23.807 23.52,32.399 43.482,38.013 v 41.664 c -15.994,-1.944 -27.176,-9.354 -27.176,-16.085 0,-4.503 -3.65,-8.153 -8.153,-8.153 -4.503,0 -8.153,3.65 -8.153,8.153 0,16.668 18.534,30.069 43.482,32.49 v 0.937 c 0,4.503 3.65,8.153 8.153,8.153 4.503,0 8.153,-3.65 8.153,-8.153 v -0.937 c 24.948,-2.421 43.482,-15.822 43.482,-32.49 0,-23.808 -23.521,-32.399 -43.482,-38.013 z m -16.306,-4.636 c -20.08,-6.299 -27.176,-12.023 -27.176,-20.943 0,-6.731 11.182,-14.141 27.176,-16.085 z m 16.306,58.735 V 275.55 c 20.08,6.298 27.176,12.023 27.176,20.943 0,6.731 -11.183,14.141 -27.176,16.085 z"
   id="path20"
   inkscape:connector-curvature="0" />
	</g></g>
<g
   id="g26">
</g>
<g
   id="g28">
</g>
<g
   id="g30">
</g>
<g
   id="g32">
</g>
<g
   id="g34">
</g>
<g
   id="g36">
</g>
<g
   id="g38">
</g>
<g
   id="g40">
</g>
<g
   id="g42">
</g>
<g
   id="g44">
</g>
<g
   id="g46">
</g>
<g
   id="g48">
</g>
<g
   id="g50">
</g>
<g
   id="g52">
</g>
<g
   id="g54">
</g>
</svg>