<?xml version="1.0" encoding="UTF-8" standalone="no"?>
<svg
   xmlns:dc="http://purl.org/dc/elements/1.1/"
   xmlns:cc="http://creativecommons.org/ns#"
   xmlns:rdf="http://www.w3.org/1999/02/22-rdf-syntax-ns#"
   xmlns:svg="http://www.w3.org/2000/svg"
   xmlns="http://www.w3.org/2000/svg"
   xmlns:xlink="http://www.w3.org/1999/xlink"
   xmlns:sodipodi="http://sodipodi.sourceforge.net/DTD/sodipodi-0.dtd"
   xmlns:inkscape="http://www.inkscape.org/namespaces/inkscape"
   viewBox="0 -1 466.104 466"
   version="1.1"
   id="svg30"
   sodipodi:docname="project-management.svg"
   inkscape:version="0.92.4 (5da689c313, 2019-01-14)">
  <metadata
     id="metadata36">
    <rdf:RDF>
      <cc:Work
         rdf:about="">
        <dc:format>image/svg+xml</dc:format>
        <dc:type
           rdf:resource="http://purl.org/dc/dcmitype/StillImage" />
        <dc:title></dc:title>
      </cc:Work>
    </rdf:RDF>
  </metadata>
  <defs
     id="defs34">
    <linearGradient
       inkscape:collect="always"
       id="linearGradient864">
      <stop
         style="stop-color:#808080;stop-opacity:1;"
         offset="0"
         id="stop860" />
      <stop
         style="stop-color:#808080;stop-opacity:0;"
         offset="1"
         id="stop862" />
    </linearGradient>
    <filter
       inkscape:collect="always"
       style="color-interpolation-filters:sRGB"
       id="filter844"
       x="-0.0114"
       width="1.0228"
       y="-0.012666667"
       height="1.0253333">
      <feGaussianBlur
         inkscape:collect="always"
         stdDeviation="0.38"
         id="feGaussianBlur846" />
    </filter>
    <filter
       inkscape:collect="always"
       style="color-interpolation-filters:sRGB"
       id="filter940"
       x="-0.0029647269"
       width="1.0059295"
       y="-0.0020159903"
       height="1.004032">
      <feGaussianBlur
         inkscape:collect="always"
         stdDeviation="0.25237172"
         id="feGaussianBlur942" />
    </filter>
    <radialGradient
       inkscape:collect="always"
       xlink:href="#linearGradient864"
       id="radialGradient944"
       cx="237.25015"
       cy="240.61818"
       fx="237.25015"
       fy="240.61818"
       r="102.75542"
       gradientTransform="matrix(1,0,0,1.4678318,0,-112.56884)"
       gradientUnits="userSpaceOnUse" />
  </defs>
  <sodipodi:namedview
     pagecolor="#ffffff"
     bordercolor="#666666"
     borderopacity="1"
     objecttolerance="10"
     gridtolerance="10"
     guidetolerance="10"
     inkscape:pageopacity="0"
     inkscape:pageshadow="2"
     inkscape:window-width="1366"
     inkscape:window-height="745"
     id="namedview32"
     showgrid="false"
     inkscape:zoom="1.0128755"
     inkscape:cx="182.44483"
     inkscape:cy="261.4122"
     inkscape:window-x="-8"
     inkscape:window-y="-8"
     inkscape:window-maximized="1"
     inkscape:current-layer="svg30" />
  <path
     d="m 158.17347,280.94021 c -4.14393,-7.21759 -7.65767,-14.7865 -10.49881,-22.6101 -13.86308,15.43952 -37.24516,17.68509 -53.794906,5.16965 C 77.326542,250.98252 73.116975,227.87779 84.192401,210.32838 95.26783,192.77896 117.93756,186.6382 136.35837,196.1985 c 1.08606,0.56159 2.01385,1.32719 3.00289,1.95733 1.45197,-19.31532 6.78278,-38.13772 15.68186,-55.33931 l -9.04584,-4.67746 -16.9865,20.81659 c -1.69315,2.07527 -4.31113,3.16661 -6.97366,2.90683 -2.66779,-0.25813 -5.02421,-1.83276 -6.28324,-4.19445 l -12.63658,-23.68911 -32.342104,10.29507 3.349539,26.61345 c 0.336043,2.65839 -0.676517,5.30546 -2.70243,7.05476 -2.024234,1.75455 -4.791344,2.37738 -7.36731,1.66105 l -25.864717,-7.14729 -14.698022,28.42477 20.813119,16.98472 c 2.071797,1.69135 3.163134,4.30932 2.90683,6.97366 -0.259772,2.66252 -1.836236,5.02241 -4.197918,6.28145 l -23.68217,12.64017 10.295069,32.34209 26.618715,-3.3512 c 2.654926,-0.33785 5.307259,0.67303 7.060013,2.70074 1.754555,2.02424 2.375598,4.79481 1.660936,7.37605 l -7.1577,25.85933 28.424778,14.69803 16.981362,-20.82365 c 1.69494,-2.07874 4.31292,-3.17008 6.97892,-2.90851 2.66779,0.25813 5.02768,1.83457 6.28492,4.19971 l 12.63478,23.69258 33.84235,-10.77262 c 3.29331,-12.10105 1.56961,-25.01972 -4.78279,-35.83307 z m 0,0"
     id="path4"
     style="fill:#b3b3b3"
     inkscape:connector-curvature="0" />
  <path
     d="m 339.39987,210.57424 c -0.006,-57.6208 -34.7711,-107.13069 -82.86432,-118.006113 -48.09323,-10.875417 -95.9814,19.938263 -114.1414,73.451463 -18.15999,53.51318 -1.48516,114.66132 39.74749,145.74885 9.44852,6.89168 15.25341,18.98309 15.39194,32.06228 v 26.9799 c 0,11.06123 7.61978,20.02954 17.02395,20.02954 h 45.39721 c 9.40142,0 17.02396,-8.96831 17.02396,-20.02954 v -26.4257 c 0.14408,-13.38889 6.06534,-25.77044 15.7189,-32.86424 29.13246,-22.129 46.72166,-60.14732 46.70227,-100.94644 z m 0,0"
     id="path6"
     style="fill:url(#radialGradient944);stroke:#000000;stroke-width:6.07829285;stroke-miterlimit:5.4;stroke-dasharray:none;stroke-opacity:1;fill-opacity:1;filter:url(#filter940);opacity:1"
     inkscape:connector-curvature="0" />
  <path
     d="m427.648438 99.679688 25.152343-18.863282-28.800781-38.402344-25.152344 18.863282c-5.175781 3.878906-12.179687 4.257812-17.746094.960937-5.566406-3.296875-8.597656-9.621093-7.6875-16.023437l4.441407-31.113282-47.519531-6.789062-4.441407 31.109375c-.910156 6.410156-5.59375 11.636719-11.863281 13.242187-6.269531 1.609376-12.890625-.71875-16.773438-5.898437l-18.859374-25.152344-38.398438 28.800781 18.855469 25.152344c3.878906 5.179688 4.257812 12.179688.960937 17.746094s-9.621094 8.597656-16.023437 7.6875l-31.113281-4.441406-6.792969 47.519531 31.121093 4.441406c6.40625.914063 11.632813 5.597657 13.238282 11.867188 1.605468 6.269531-.722656 12.890625-5.902344 16.773437l-25.144531 18.863282 28.800781 38.398437 25.144531-18.855469c5.175781-3.882812 12.183594-4.265625 17.753907-.96875 5.566406 3.296875 8.601562 9.625 7.6875 16.03125l-4.480469 31.105469 47.519531 6.792969 4.480469-31.121094c.914062-6.40625 5.597656-11.628906 11.867187-13.234375 6.269532-1.609375 12.890625.722656 16.769532 5.898437l18.867187 25.144532 38.398437-28.800782-18.871093-25.144531c-3.882813-5.175781-4.265625-12.183593-.96875-17.753906 3.296875-5.566406 9.625-8.601563 16.03125-7.683594l31.113281 4.445313 6.792969-47.519532-31.113281-4.445312c-6.402344-.917969-11.625-5.597656-13.234376-11.867188-1.605468-6.265624.71875-12.882812 5.890626-16.765624zm-91.648438 94.734374c-30.929688 0-56-25.070312-56-56 0-30.925781 25.070312-56 56-56s56 25.074219 56 56c0 30.929688-25.070312 56-56 56zm0 0"
     fill="#1cc8eb"
     id="path8"
     style="fill:#808080;stroke:#000000;stroke-opacity:1;fill-opacity:0.3622449;stroke-width:10.8;stroke-miterlimit:4;stroke-dasharray:none" />
  <g
     id="g850"
     transform="translate(2.9618644,-6.911017)"
     style="fill:#000000;fill-opacity:0.68367344">
    <path
       style="fill:#000000;stroke:#000000;stroke-width:7.19999981;stroke-linecap:round;stroke-miterlimit:0.1;stroke-dasharray:none;stroke-opacity:1;paint-order:markers fill stroke;filter:url(#filter844);fill-opacity:0.68367344"
       id="path2"
       d="m 194.10547,440.3125 c 0,13.25391 10.74219,24 24,24 h 32 c 13.2539,0 24,-10.74609 24,-24 v -48 h -80 z m 0,0"
       inkscape:connector-curvature="0" />
    <path
       style="fill:#000000;fill-opacity:0.68367344"
       id="path10"
       d="m 194.10547,416.3125 h 80 v 16 h -80 z m 0,0"
       inkscape:connector-curvature="0" />
  </g>
  <path
     inkscape:connector-curvature="0"
     style="fill:#000000"
     id="path12"
     d="m 221.16903,357.24894 h 16 v 24 h -16 z m 0,0" />
  <path
     inkscape:connector-curvature="0"
     style="fill:#000000;stroke-width:0.71776611"
     id="path14"
     d="m 233.29666,347.37606 h -9.95577 c -0.006,-17.51337 -8.12065,-33.21234 -20.40981,-39.48028 -24.49809,-12.74611 -41.51721,-42.75977 -44.00128,-77.60538 -2.48408,-34.84563 9.98737,-68.5819 32.24686,-87.23049 l 5.2817,11.20663 c -19.08512,15.98034 -29.78221,44.90083 -27.65299,74.77542 2.12676,29.8714 16.71528,55.60294 37.71814,66.52818 16.13439,8.2117 26.78531,28.82023 26.77315,51.80592 z m 0,0" />
  <path
     inkscape:connector-curvature="0"
     style="fill:#000000"
     id="path16"
     d="m 343.82675,282.3104 39.99837,0.36079 c 4.41779,0.0399 7.9674,3.65013 7.92752,8.07183 -0.0399,4.41779 -3.65404,7.96737 -8.07183,7.92752 l -39.99837,-0.36079 c -4.41779,-0.0399 -7.96737,-3.65404 -7.92752,-8.07183 0.0399,-4.4217 3.65404,-7.96737 8.07183,-7.92752 z m 0,0" />
  <path
     inkscape:connector-curvature="0"
     style="fill:#000000"
     id="path18"
     d="m 327.75378,305.81217 c 2.82812,-3.39454 7.87109,-3.85547 11.26562,-1.02735 l 35.71094,29.75391 c 3.39453,2.82812 3.85547,7.87109 1.02735,11.26562 -2.83204,3.39453 -7.875,3.85547 -11.26954,1.02735 l -35.71093,-29.75391 c -3.39453,-2.82812 -3.85157,-7.87109 -1.02344,-11.26562 z m 0,0" />
  <path
     inkscape:connector-curvature="0"
     style="fill:#000000;stroke-width:1.06301224"
     id="path20"
     d="m 311.05124,325.83305 c 3.60808,-2.66001 8.23739,-1.12208 10.34315,3.44378 l 19.04838,41.30244 c 2.10387,4.56182 0.88429,10.41719 -2.7238,13.0772 -3.60808,2.66 -8.23925,1.11805 -10.34314,-3.44377 l -19.04839,-41.30244 c -2.10573,-4.56587 -0.88429,-10.41719 2.7238,-13.07721 z m 0,0" />
  <path
     inkscape:connector-curvature="0"
     style="fill:#000000"
     id="path22"
     d="m 100.20189,96.00501 47.99389,13.89962 c 4.24581,1.23074 6.68781,5.66462 5.45904,9.90706 -1.22878,4.24244 -5.66267,6.68443 -9.90848,5.45369 L 95.752436,111.36577 c -4.24581,-1.23074 -6.687802,-5.66463 -5.459025,-9.90707 1.228771,-4.242428 5.662665,-6.684429 9.908479,-5.45369 z m 0,0" />
  <path
     inkscape:connector-curvature="0"
     style="fill:#000000"
     id="path24"
     d="m 120.08007,48.361521 c 3.06753,-3.176754 8.1311,-3.260309 11.30786,-0.192782 l 37.98859,36.691875 c 3.18061,3.068101 3.26804,8.13225 0.20051,11.309002 -3.06754,3.176752 -8.13168,3.264174 -11.30786,0.192783 L 120.28058,59.670523 c -3.18062,-3.068102 -3.26804,-8.13225 -0.20051,-11.309002 z m 0,0" />
  <path
     inkscape:connector-curvature="0"
     style="fill:#000000"
     id="path26"
     d="m 176.26114,19.160084 c 4.26829,-1.143281 8.65339,1.388112 9.79667,5.656402 l 12.95951,48.349183 c 1.14328,4.26829 -1.38807,8.65729 -5.65636,9.800571 -4.26829,1.143281 -8.65343,-1.392018 -9.79667,-5.656403 l -12.9595,-48.349184 c -1.14328,-4.26829 1.38806,-8.657288 5.65635,-9.800569 z m 0,0" />
</svg>
