<?xml version="1.0" encoding="UTF-8" standalone="no"?>
<svg
   xmlns:dc="http://purl.org/dc/elements/1.1/"
   xmlns:cc="http://creativecommons.org/ns#"
   xmlns:rdf="http://www.w3.org/1999/02/22-rdf-syntax-ns#"
   xmlns:svg="http://www.w3.org/2000/svg"
   xmlns="http://www.w3.org/2000/svg"
   xmlns:sodipodi="http://sodipodi.sourceforge.net/DTD/sodipodi-0.dtd"
   xmlns:inkscape="http://www.inkscape.org/namespaces/inkscape"
   aria-hidden="true"
   focusable="false"
   data-prefix="fas"
   data-icon="shopping-cart"
   class="svg-inline--fa fa-shopping-cart fa-w-18"
   role="img"
   viewBox="0 0 576 512"
   version="1.1"
   id="svg4"
   sodipodi:docname="shopping-cart-solid.svg"
   inkscape:version="0.92.4 (5da689c313, 2019-01-14)">
  <metadata
     id="metadata10">
    <rdf:RDF>
      <cc:Work
         rdf:about="">
        <dc:format>image/svg+xml</dc:format>
        <dc:type
           rdf:resource="http://purl.org/dc/dcmitype/StillImage" />
      </cc:Work>
    </rdf:RDF>
  </metadata>
  <defs
     id="defs8" />
  <sodipodi:namedview
     pagecolor="#ffffff"
     bordercolor="#666666"
     borderopacity="1"
     objecttolerance="10"
     gridtolerance="10"
     guidetolerance="10"
     inkscape:pageopacity="0"
     inkscape:pageshadow="2"
     inkscape:window-width="1366"
     inkscape:window-height="745"
     id="namedview6"
     showgrid="false"
     inkscape:zoom="0.32593203"
     inkscape:cx="382.87698"
     inkscape:cy="264.59458"
     inkscape:window-x="-8"
     inkscape:window-y="-8"
     inkscape:window-maximized="1"
     inkscape:current-layer="svg4" />
  <g
     id="g821"
     transform="matrix(0.94782316,0,0,0.95886816,12.063876,21.268185)">
    <path
       style="fill:none;stroke:#000000;stroke-width:13.5;stroke-miterlimit:4;stroke-dasharray:none;stroke-opacity:0.51530612"
       id="path2"
       d="m 528.12,301.319 47.273,-208 C 578.806,78.301 567.391,64 551.99,64 H 159.208 L 150.042,19.19 C 147.758,8.021 137.93,0 126.529,0 H 24 C 10.745,0 0,10.745 0,24 v 16 c 0,13.255 10.745,24 24,24 h 69.883 l 70.248,343.435 C 147.325,417.1 136,435.222 136,456 c 0,30.928 25.072,56 56,56 30.928,0 56,-25.072 56,-56 0,-15.674 -6.447,-29.835 -16.824,-40 H 440.823 C 430.447,426.165 424,440.326 424,456 c 0,30.928 25.072,56 56,56 30.928,0 56,-25.072 56,-56 0,-22.172 -12.888,-41.332 -31.579,-50.405 l 5.517,-24.276 C 513.351,366.301 501.936,352 486.535,352 H 218.117 l -6.545,-32 h 293.145 c 11.206,0 20.92,-7.754 23.403,-18.681 z"
       inkscape:connector-curvature="0" />
    <path
       sodipodi:nodetypes="cc"
       inkscape:connector-curvature="0"
       id="path817"
       d="M 99.306019,64.271186 C 151.82923,64.400942 152.9369,64.15801 152.9369,64.15801"
       style="fill:none;stroke:#000000;stroke-width:13.85058498;stroke-linecap:butt;stroke-linejoin:miter;stroke-miterlimit:4;stroke-dasharray:none;stroke-opacity:0.51372549" />
  </g>
</svg>
