<?xml version="1.0" encoding="UTF-8" standalone="no"?>
<svg
   xmlns:dc="http://purl.org/dc/elements/1.1/"
   xmlns:cc="http://creativecommons.org/ns#"
   xmlns:rdf="http://www.w3.org/1999/02/22-rdf-syntax-ns#"
   xmlns:svg="http://www.w3.org/2000/svg"
   xmlns="http://www.w3.org/2000/svg"
   xmlns:sodipodi="http://sodipodi.sourceforge.net/DTD/sodipodi-0.dtd"
   xmlns:inkscape="http://www.inkscape.org/namespaces/inkscape"
   height="512pt"
   viewBox="0 0 512 511"
   width="512pt"
   version="1.1"
   id="svg9"
   sodipodi:docname="smart-house.svg"
   inkscape:version="0.92.4 (5da689c313, 2019-01-14)">
  <metadata
     id="metadata15">
    <rdf:RDF>
      <cc:Work
         rdf:about="">
        <dc:format>image/svg+xml</dc:format>
        <dc:type
           rdf:resource="http://purl.org/dc/dcmitype/StillImage" />
      </cc:Work>
    </rdf:RDF>
  </metadata>
  <defs
     id="defs13" />
  <sodipodi:namedview
     pagecolor="#ffffff"
     bordercolor="#666666"
     borderopacity="1"
     objecttolerance="10"
     gridtolerance="10"
     guidetolerance="10"
     inkscape:pageopacity="0"
     inkscape:pageshadow="2"
     inkscape:window-width="640"
     inkscape:window-height="480"
     id="namedview11"
     showgrid="false"
     inkscape:zoom="0.34570313"
     inkscape:cx="341.33333"
     inkscape:cy="341.33333"
     inkscape:window-x="0"
     inkscape:window-y="0"
     inkscape:window-maximized="0"
     inkscape:current-layer="svg9" />
  <linearGradient
     id="linear0"
     gradientUnits="userSpaceOnUse"
     x1="255.9999393808"
     x2="255.9999393808"
     y1=".5003002281"
     y2="512.0640125335">
    <stop
       offset="0"
       stop-color="#2af598"
       id="stop2" />
    <stop
       offset="1"
       stop-color="#009efd"
       id="stop4" />
  </linearGradient>
  <path
     d="m512 234.042969-26.929688 29.523437-23.273437-21.230468v159.839843h-39.960937v-196.296875l-165.835938-151.289062-165.835938 151.289062v196.292969h-39.957031v-159.835937l-23.273437 21.230468-26.933594-29.523437 256-233.542969zm-222.035156 31.265625c0-19.308594-15.652344-34.964844-34.964844-34.964844-19.308594 0-34.964844 15.65625-34.964844 34.964844 0 11.878906 5.929688 22.371094 14.984375 28.6875v154.414062c-9.054687 6.320313-14.984375 16.808594-14.984375 28.6875 0 19.3125 15.65625 34.964844 34.964844 34.964844 19.3125 0 34.964844-15.652344 34.964844-34.964844 0-11.878906-5.929688-22.367187-14.984375-28.6875v-154.414062c9.054687-6.320313 14.984375-16.808594 14.984375-28.6875zm-123.875 24.976562c-19.3125 0-34.964844 15.652344-34.964844 34.964844 0 11.878906 5.929688 22.367188 14.984375 28.6875v103.179688h-47.238281c-6.316406-9.054688-16.808594-14.984376-28.6875-14.984376-19.308594 0-34.964844 15.65625-34.964844 34.964844 0 19.3125 15.65625 34.964844 34.964844 34.964844 11.878906 0 22.371094-5.929688 28.6875-14.984375h87.199218v-143.140625c9.054688-6.320312 14.984376-16.808594 14.984376-28.6875 0-19.3125-15.65625-34.964844-34.964844-34.964844zm276.722656 151.847656c-11.878906 0-22.367188 5.929688-28.6875 14.984376h-48.234375v-83.199219c9.054687-6.320313 14.984375-16.808594 14.984375-28.6875 0-19.3125-15.652344-34.964844-34.964844-34.964844s-34.964844 15.652344-34.964844 34.964844c0 11.878906 5.929688 22.367187 14.984376 28.6875v123.160156h88.195312c6.320312 9.054687 16.808594 14.984375 28.6875 14.984375 19.3125 0 34.964844-15.652344 34.964844-34.964844 0-19.308594-15.652344-34.964844-34.964844-34.964844zm0 0"
     fill="url(#linear0)"
     id="path7"
     style="fill:#000000" />
</svg>
