<?xml version="1.0" encoding="UTF-8" standalone="no"?>
<svg
   xmlns:dc="http://purl.org/dc/elements/1.1/"
   xmlns:cc="http://creativecommons.org/ns#"
   xmlns:rdf="http://www.w3.org/1999/02/22-rdf-syntax-ns#"
   xmlns:svg="http://www.w3.org/2000/svg"
   xmlns="http://www.w3.org/2000/svg"
   xmlns:sodipodi="http://sodipodi.sourceforge.net/DTD/sodipodi-0.dtd"
   xmlns:inkscape="http://www.inkscape.org/namespaces/inkscape"
   height="496pt"
   viewBox="0 0 496 496"
   width="496pt"
   version="1.1"
   id="svg14"
   sodipodi:docname="training.svg"
   inkscape:version="0.92.4 (5da689c313, 2019-01-14)">
  <metadata
     id="metadata20">
    <rdf:RDF>
      <cc:Work
         rdf:about="">
        <dc:format>image/svg+xml</dc:format>
        <dc:type
           rdf:resource="http://purl.org/dc/dcmitype/StillImage" />
      </cc:Work>
    </rdf:RDF>
  </metadata>
  <defs
     id="defs18" />
  <sodipodi:namedview
     pagecolor="#ffffff"
     bordercolor="#666666"
     borderopacity="1"
     objecttolerance="10"
     gridtolerance="10"
     guidetolerance="10"
     inkscape:pageopacity="0"
     inkscape:pageshadow="2"
     inkscape:window-width="1366"
     inkscape:window-height="745"
     id="namedview16"
     showgrid="false"
     inkscape:zoom="0.35685484"
     inkscape:cx="330.66667"
     inkscape:cy="330.66667"
     inkscape:window-x="-8"
     inkscape:window-y="-8"
     inkscape:window-maximized="1"
     inkscape:current-layer="svg14" />
  <g
     id="g28"
     transform="matrix(0.74999999,0,0,0.75423727,65.152545,67.25424)">
    <path
       id="path2"
       d="m 120,32 h 80 v 16 h -80 z m 0,0"
       inkscape:connector-curvature="0" />
    <path
       id="path4"
       d="m 144,96 h -16 v 88 H 112 V 120 H 96 v 64 H 80 V 144 H 64 v 40 H 48 v 16 h 112 v -16 h -16 z m 0,0"
       inkscape:connector-curvature="0" />
    <path
       id="path6"
       d="m 48,216 h 16 v 16 H 48 Z m 0,0"
       inkscape:connector-curvature="0" />
    <path
       id="path8"
       d="m 80,216 h 80 v 16 H 80 Z m 0,0"
       inkscape:connector-curvature="0" />
    <path
       id="path10"
       d="m 472,328 c 13.23047,0 24,-10.76953 24,-24 V 180.81641 C 496,164.99219 484.18359,151.375 468.52734,149.13672 L 440,145.0625 V 131.67969 C 449.79297,122.88672 456,110.17578 456,96 V 80 c 0,-26.472656 -21.52734,-48 -48,-48 -26.47266,0 -48,21.527344 -48,48 v 16 c 0,14.16797 6.20703,26.87891 16,35.67969 V 145.0625 L 331.16797,151.47266 303.63281,120 H 304 V 80 h 16 V 32 h -84.6875 l -32,-32 h -86.625 l -32,32 H 0 V 80 H 16 V 272 H 0 v 48 h 80 v 22.49609 L 26.527344,480 H 0 v 16 H 496 V 480 H 464 V 326.52734 C 466.51172,327.42578 469.18359,328 472,328 Z M 415.57422,229.11328 408,236.6875 l -7.57422,-7.57422 6.64453,-53.16797 c 0.3125,0.008 0.60938,0.0547 0.92969,0.0547 0.32031,0 0.61719,-0.0469 0.92969,-0.0547 z M 376,80 c 0,-17.648438 14.35156,-32 32,-32 17.64844,0 32,14.351562 32,32 v 16 c 0,17.64844 -14.35156,32 -32,32 -17.64844,0 -32,-14.35156 -32,-32 z m 32,64 c 5.61719,0 10.98437,-1.02344 16,-2.80078 v 8.60156 C 422.01562,152.86328 416.50391,160 408,160 c -8.51953,0 -14.03906,-7.16797 -16,-10.19922 v -8.60156 C 397.01562,142.97656 402.38281,144 408,144 Z m -27.94531,16.64062 c 2.42578,3.26954 6.23437,7.4961 11.46484,10.67969 L 383.57422,234.88672 408,259.3125 l 24.42578,-24.42578 -7.94531,-63.56641 c 5.23828,-3.1914 9.04687,-7.41015 11.46484,-10.67969 l 30.32031,4.32813 C 474.09766,166.08984 480,172.90234 480,180.80859 V 304 c 0,4.40625 -3.59375,8 -8,8 -4.40625,0 -8,-3.59375 -8,-8 V 192 h -16 v 80 h -80 v -80 h -48.3125 c -2.44141,0 -4.71875,-1.09766 -6.24609,-3 L 257.86328,119.52734 C 256.66406,118.02344 256,116.13672 256,114.20703 v -1.70312 c 0,-4.6875 3.81641,-8.50391 8.50391,-8.50391 2.45703,0 4.79296,1.05469 6.40625,2.90234 l 53.92187,61.625 z M 136,352 V 480 H 75.695312 L 125.47266,352 Z m 16,0 h 16 v 128 h -16 z m 32,0 h 10.52734 l 49.77735,128 H 184 Z m 27.69531,0 h 14.83203 l 49.77735,128 H 261.47266 Z M 240,342.49609 V 320 h 80 V 272 H 304 V 202.03906 C 308.33594,205.81641 313.82422,208 319.6875,208 H 352 V 480 H 293.47266 Z M 368,288 h 32 V 480 H 368 Z M 16,48 h 75.3125 l 32,-32 h 73.375 l 32,32 H 304 V 64 H 16 Z m 16,32 h 256 v 22.13672 l -5.04688,-5.769532 C 278.29687,91.046875 271.57422,88 264.50391,88 251,88 240,99 240,112.50391 v 1.70312 c 0,5.53516 1.90234,10.97656 5.36719,15.3125 L 288,182.80859 V 272 H 32 Z M 16,288 h 288 v 16 H 16 Z m 208,32 v 16 H 96 V 320 Z M 93.472656,352 H 108.30469 L 58.527344,480 H 43.695312 Z M 416,480 V 288 h 32 v 192 z m 0,0"
       inkscape:connector-curvature="0" />
    <path
       id="path12"
       d="m 224,160 c -26.47266,0 -48,21.52734 -48,48 0,26.47266 21.52734,48 48,48 26.47266,0 48,-21.52734 48,-48 0,-26.47266 -21.52734,-48 -48,-48 z m -8,17.13672 V 200 H 193.13672 C 196.04687,188.80859 204.80859,180.04687 216,177.13672 Z M 193.13672,216 H 216 v 22.86328 C 204.80859,235.95312 196.04687,227.19141 193.13672,216 Z M 232,238.86328 v -61.72656 c 13.76172,3.57422 24,16 24,30.86328 0,14.86328 -10.23828,27.28906 -24,30.86328 z m 0,0"
       inkscape:connector-curvature="0" />
  </g>
</svg>
