<?xml version="1.0" encoding="UTF-8" standalone="no"?>
<svg
   xmlns:dc="http://purl.org/dc/elements/1.1/"
   xmlns:cc="http://creativecommons.org/ns#"
   xmlns:rdf="http://www.w3.org/1999/02/22-rdf-syntax-ns#"
   xmlns:svg="http://www.w3.org/2000/svg"
   xmlns="http://www.w3.org/2000/svg"
   xmlns:sodipodi="http://sodipodi.sourceforge.net/DTD/sodipodi-0.dtd"
   xmlns:inkscape="http://www.inkscape.org/namespaces/inkscape"
   id="Layer_1"
   height="512"
   viewBox="0 0 512 512"
   width="512"
   data-name="Layer 1"
   version="1.1"
   sodipodi:docname="tv.svg"
   inkscape:version="0.92.4 (5da689c313, 2019-01-14)">
  <metadata
     id="metadata19">
    <rdf:RDF>
      <cc:Work
         rdf:about="">
        <dc:format>image/svg+xml</dc:format>
        <dc:type
           rdf:resource="http://purl.org/dc/dcmitype/StillImage" />
      </cc:Work>
    </rdf:RDF>
  </metadata>
  <defs
     id="defs17" />
  <sodipodi:namedview
     pagecolor="#ffffff"
     bordercolor="#666666"
     borderopacity="1"
     objecttolerance="10"
     gridtolerance="10"
     guidetolerance="10"
     inkscape:pageopacity="0"
     inkscape:pageshadow="2"
     inkscape:window-width="640"
     inkscape:window-height="480"
     id="namedview15"
     showgrid="false"
     inkscape:zoom="0.4609375"
     inkscape:cx="226.93672"
     inkscape:cy="300.50596"
     inkscape:window-x="0"
     inkscape:window-y="0"
     inkscape:window-maximized="0"
     inkscape:current-layer="Layer_1" />
  <path
     d="m93.559 72h-20a23.272 23.272 0 0 0 -23.247 23.246v204.975h20v-204.975a23.272 23.272 0 0 1 23.247-23.246z"
     fill="#d4e1f4"
     id="path2"
     style="fill:#cccccc" />
  <path
     d="m70.312 332.923v-20.7h-20v20.7a23.273 23.273 0 0 0 23.247 23.247h20a23.273 23.273 0 0 1 -23.247-23.247z"
     fill="#d4e1f4"
     id="path4"
     style="fill:#cccccc" />
  <path
     d="m438.441 60h-364.882a35.287 35.287 0 0 0 -35.247 35.246v237.677a35.287 35.287 0 0 0 35.247 35.247h120.492v71.83h-27.94a6 6 0 0 0 0 12h185.041a6 6 0 1 0 0-12h-33.2v-71.83h120.489a35.287 35.287 0 0 0 35.247-35.247v-237.677a35.287 35.287 0 0 0 -35.247-35.246zm-364.882 12h364.882a23.272 23.272 0 0 1 23.247 23.246v204.975h-411.376v-204.975a23.272 23.272 0 0 1 23.247-23.246zm232.39 368h-99.9v-71.83h99.9zm132.492-83.83h-364.882a23.273 23.273 0 0 1 -23.247-23.247v-20.7h411.376v20.7a23.273 23.273 0 0 1 -23.247 23.247z"
     fill="#0635c9"
     id="path6"
     style="fill:#000000" />
  <g
     fill="#1ae5be"
     id="g12"
     style="fill:#000000">
    <path
       d="m323.293 124.6-27.047-22.69a14.255 14.255 0 0 0 -20.05 1.748l-78.6 93.523a10.107 10.107 0 0 0 -2.275 5.1l-6.675 47.465a6 6 0 0 0 7.8 6.541l45.578-14.836a10.1 10.1 0 0 0 4.63-3.127l78.413-93.681a14.259 14.259 0 0 0 -1.774-20.043zm-117.4 88.693 23.453 19.671-9.637 3.137-15.227-12.772zm4.107-12.219 60.921-72.487 10.473 8.783-60.941 72.471zm-7.491 36.259 3.746 3.142-4.388 1.428zm38.15-10.544-11.012-9.236 60.941-72.471 10.846 9.1zm75.2-89.848-6.726 8.036-30.5-25.576 6.744-8.023a2.241 2.241 0 0 1 3.151-.274l27.048 22.685a2.242 2.242 0 0 1 .284 3.152z"
       id="path8"
       style="fill:#000000" />
    <path
       d="m297.316 267.218h-106.554a6 6 0 0 0 0 12h106.554a6 6 0 0 0 0-12z"
       id="path10"
       style="fill:#000000" />
  </g>
</svg>
