<svg id="Layer_35" enable-background="new 0 0 64 64" height="512" viewBox="0 0 64 64" width="512" xmlns="http://www.w3.org/2000/svg"><path d="m50 3v14c0 .55-.45 1-1 1h-2c-.55 0-1-.45-1-1v-1-12-1c0-.55.45-1 1-1h2c.55 0 1 .45 1 1z" fill="#fcd770"/><path d="m46 4v12h-8v-2-8-2z" fill="#e6e9ed"/><path d="m38 6v8l-7-.88-.05.01c-.26-1.22-1.34-2.13-2.64-2.13h-.41c-.59 0-1.15.19-1.62.54l-1.14.86-3.14-.4v-4z" fill="#aab2bd"/><path d="m16.73 49.11-.11.11c-.36.45-.58 1.01-.61 1.6-1.17-.4-2.01-1.51-2.01-2.82v-6c0-.55-.45-1-1-1h-5-2c-2.21 0-4-1.79-4-4v-2h11 3c2.21 0 4 1.79 4 4v7l.15.2c-1.2.88-2.34 1.85-3.42 2.91z" fill="#cf9e76"/><path d="m8 41v18c0 .83-.34 1.58-.88 2.12s-1.29.88-2.12.88c-1.66 0-3-1.34-3-3v-22c0 2.21 1.79 4 4 4z" fill="#cf9e76"/><path d="m25.14 12.4 1.14-.86c.47-.35 1.03-.54 1.62-.54h.41c1.3 0 2.38.91 2.64 2.13.03.18.05.37.05.56 0 .83-.38 1.61-1.04 2.12l-6.34 4.93c-1.05.82-2.34 1.26-3.68 1.26h-6.94v13h-11v-12c0-3.31 2.69-6 6-6h3 7.33c.44 0 .86-.14 1.2-.4z" fill="#ff826e"/><circle cx="11" cy="11" fill="#f0d0b4" r="6"/><g fill="#fcd770"><path d="m58 20v26.31c-1.27-.96-2.61-1.81-4-2.54v-23.77z"/><path d="m50 24v17.97c-1.3-.49-2.64-.88-4-1.18v-16.79z"/><path d="m39 40c-.24 0-.47 0-.71.02-.1-.01-.19-.01-.29.01v-.01-12.02h4v12.14l-2.36-.12z"/></g><path d="m38 40.03c.1-.02.19-.02.29-.01-5.75.37-10.29 5.14-10.29 10.98 0 5.87 4.58 10.65 10.36 10.98-8.1-.15-15.84-3.4-21.63-9.09l-.11-.11c-.4-.5-.62-1.13-.62-1.78 0-.06 0-.12.01-.18.03-.59.25-1.15.61-1.6l.11-.11c1.08-1.06 2.22-2.03 3.42-2.91 5.16-3.81 11.39-5.98 17.85-6.17z" fill="#e6e9ed"/><path d="m42 40.14c1.35.13 2.69.34 4 .65 1.36.3 2.7.69 4 1.18.35.12.69.25 1.03.39 1.01.41 2.01.88 2.97 1.41 1.39.73 2.73 1.58 4 2.54v.01c1.15.84 2.24 1.78 3.27 2.79l.11.11c.4.5.62 1.13.62 1.78s-.22 1.28-.62 1.78l-.11.11c-5.79 5.69-13.53 8.94-21.63 9.09 5.78-.33 10.36-5.11 10.36-10.98s-4.58-10.65-10.36-10.98z" fill="#e6e9ed"/><path d="m39.64 40.02c5.78.33 10.36 5.11 10.36 10.98s-4.58 10.65-10.36 10.98c-.21.02-.43.02-.64.02s-.43 0-.64-.02c-5.78-.33-10.36-5.11-10.36-10.98 0-5.84 4.54-10.61 10.29-10.98.24-.02.47-.02.71-.02z" fill="#aab2bd"/><path d="m34 47c0 1.66 1.34 3 3 3s3-1.34 3-3c0-1.39-.94-2.53-2.22-2.89.39-.07.8-.11 1.22-.11 3.87 0 7 3.13 7 7 0 .06-.01.12-.01.19-1.16.41-1.99 1.51-1.99 2.81 0 .53.15 1.03.39 1.46-1.28 1.55-3.22 2.54-5.39 2.54-3.87 0-7-3.13-7-7 0-2.02.85-3.83 2.21-5.09-.13.34-.21.7-.21 1.09z" fill="#69d6f4"/><path d="m37.78 44.11c1.28.36 2.22 1.5 2.22 2.89 0 1.66-1.34 3-3 3s-3-1.34-3-3c0-.39.08-.75.21-1.09v-.01c.97-.92 2.19-1.55 3.56-1.79z" fill="#e6e9ed"/><path d="m39 59c2.392 0 4.639-1.058 6.165-2.902l.438-.529-.338-.599c-.175-.314-.265-.64-.265-.97 0-.834.534-1.587 1.328-1.872l.617-.301.047-.649c.005-.059.008-.118.008-.178 0-4.411-3.589-8-8-8s-8 3.589-8 8 3.589 8 8 8zm5.979-8.439c-1.208.708-1.979 2.013-1.979 3.439 0 .434.072.858.215 1.27-1.119 1.106-2.625 1.73-4.215 1.73-3.309 0-6-2.691-6-6 0-.787.156-1.537.433-2.227.656 1.314 2.001 2.227 3.567 2.227 2.206 0 4-1.794 4-4 0-.637-.159-1.244-.435-1.788 2.405.653 4.217 2.765 4.414 5.349zm-5.979-3.561c0 1.103-.897 2-2 2s-2-.897-2-2c0-.179.036-.36.088-.54.737-.636 1.629-1.096 2.612-1.315.772.291 1.3 1.024 1.3 1.855z"/><path d="m62.156 48.595-.186-.192c-.944-.928-1.939-1.784-2.971-2.582v-26.821h-6v23.129c-.656-.311-1.324-.595-2-.861v-18.268h-6v16.553c-.661-.122-1.329-.221-2-.303v-12.25h-6v12.067c-5.76.346-11.247 2.174-16 5.31v-5.377c0-2.757-2.243-5-5-5h-2v-11h5.941c1.549 0 3.075-.523 4.298-1.474l6.338-4.93c.752-.585 1.217-1.423 1.359-2.346l5.065.633v2.117h8c0 1.103.897 2 2 2h2c1.103 0 2-.897 2-2v-14c0-1.103-.897-2-2-2h-2c-1.103 0-2 .897-2 2h-8v2.117l-16 2v5.766l1.563.195-3.63 2.723c-.171.128-.384.199-.6.199h-2.444c1.301-1.272 2.111-3.042 2.111-5 0-3.86-3.141-7-7-7s-7 3.14-7 7c0 2.069.907 3.925 2.339 5.208-3.059.748-5.339 3.505-5.339 6.792v14 22c0 2.206 1.794 4 4 4s4-1.794 4-4v-17h4l-.001 5.998c-.001 1.454.81 2.775 2.041 3.475.088.702.359 1.376.803 1.932l.186.192c6.165 6.064 14.324 9.403 22.971 9.403s16.806-3.339 22.97-9.401l.187-.193c.543-.681.843-1.536.843-2.406s-.3-1.725-.844-2.405zm-15.156-45.595h2l.001 14h-2.001zm8 18h2v23.378c-.652-.43-1.322-.827-2-1.208zm-8 4h2v15.558c-.66-.211-1.326-.408-2-.576zm2 26c0 5.514-4.486 10-10 10s-10-4.486-10-10 4.486-10 10-10 10 4.486 10 10zm-10-22h2v10.067c-.664-.04-1.33-.067-2-.067zm0-24h6v10h-6zm-16 6.117v-2.234l14-1.75v5.735l-5.317-.665c-.573-1.295-1.865-2.203-3.37-2.203h-.418c-.792 0-1.577.262-2.212.737l-.818.613zm-17-.117c0-2.757 2.243-5 5-5s5 2.243 5 5-2.243 5-5 5-5-2.243-5-5zm2 7h10.333c.646 0 1.285-.213 1.8-.6l6.75-5.062c.291-.218.65-.338 1.013-.338h.418c.929 0 1.686.756 1.686 1.686 0 .524-.237 1.009-.651 1.331l-6.338 4.93c-.873.679-1.963 1.053-3.07 1.053h-7.941v13h-9v-11c0-2.757 2.243-5 5-5zm-1 41c0 1.103-.897 2-2 2s-2-.897-2-2v-18.026c.838.635 1.87 1.026 3 1.026h1zm6-19h-7c-1.654 0-3-1.346-3-3v-1h9 1 3c1.654 0 3 1.346 3 3v6.82c-1.031.798-2.026 1.654-2.97 2.582l-.187.193c-.159.199-.29.415-.406.639-.273-.346-.44-.775-.439-1.235l.002-5.999c0-1.103-.897-2-2-2zm4.431 12.171-.058-.057c-.241-.32-.373-.714-.373-1.114s.132-.794.373-1.114l.059-.058c3.847-3.783 8.523-6.429 13.608-7.783-2.472 2.199-4.04 5.394-4.04 8.955s1.568 6.755 4.04 8.955c-5.086-1.355-9.762-4.001-13.609-7.784zm43.196-.057-.059.058c-3.847 3.783-8.523 6.429-13.608 7.783 2.472-2.199 4.04-5.394 4.04-8.955s-1.568-6.756-4.04-8.955c5.085 1.355 9.761 4.001 13.609 7.784l.058.057c.241.32.373.714.373 1.114s-.132.794-.373 1.114z"/></svg>